<?xml version="1.0" standalone="no"?>
<!DOCTYPE svg PUBLIC "-//W3C//DTD SVG 1.1//EN" "http://www.w3.org/Graphics/SVG/1.1/DTD/svg11.dtd" >
<svg xmlns="http://www.w3.org/2000/svg">
<metadata></metadata>
<defs>
<font id="sfu_helveticaultracompressed" horiz-adv-x="681" >
<font-face units-per-em="2048" ascent="1638" descent="-410" />
<missing-glyph horiz-adv-x="339" />
<glyph horiz-adv-x="0" />
<glyph unicode="&#xd;" horiz-adv-x="339" />
<glyph unicode=" "  horiz-adv-x="339" />
<glyph unicode="&#x09;" horiz-adv-x="339" />
<glyph unicode="&#xa0;" horiz-adv-x="339" />
<glyph unicode="!" horiz-adv-x="417" d="M106 0v227h205v-227h-205zM106 313v1145h205v-1145h-205z" />
<glyph unicode="&#x22;" d="M96 903v555h180v-555h-180zM403 903v555h181v-555h-181z" />
<glyph unicode="#" d="M-70 438v152h166l31 278h-147v152h165l54 438h135l-51 -438h198l51 438h136l-50 -438h134v-152h-152l-31 -278h131v-152h-151l-51 -438h-138l52 438h-199l-51 -438h-135l49 438h-146zM233 590h199l31 278h-199z" />
<glyph unicode="$" d="M53 221v316h217v-250q0 -59 11 -80q14 -33 63 -33q59 0 59 64v147q0 66 -38 119l-275 373q-37 49 -37 141v174q39 197 236 231v93h114v-93q92 4 158 -59.5t66 -155.5v-297h-217v250q0 51 -7 66q-12 23 -59 22q-68 0 -68 -57v-145q0 -51 72 -142l191 -241 q51 -66 69.5 -116t18.5 -130v-199q-14 -104 -60 -153q-55 -57 -172 -66v-104h-114v104q-109 -6 -168.5 53.5t-59.5 167.5z" />
<glyph unicode="%" horiz-adv-x="1024" d="M33 825v367q0 133 41 192q47 74 174 74q193 0 215 -162v-458q0 -90 -61.5 -138.5t-161.5 -48.5q-207 0 -207 174zM199 862q0 -45 6 -59q10 -25 47 -25q35 0 43 35q2 12 2 64v360q0 47 -4 61q-8 33 -41 33q-53 1 -53 -71v-398zM227 -16l478 1491h98l-477 -1491h-99z M561 174v367q0 133 41 192q47 74 174 74q193 0 215 -162v-459q0 -90 -61.5 -138t-161.5 -48q-207 0 -207 174zM727 211q0 -45 6 -59q10 -25 47 -25q35 0 43 35q2 12 2 63v361q0 47 -4 61q-8 33 -41 33q-53 0 -53 -72v-397z" />
<glyph unicode="&#x26;" horiz-adv-x="796" d="M66 266v289q0 209 129 283q-80 96 -80 329q0 164 53 236q63 84 225 84q143 0 199 -78q45 -66 45 -225q0 -133 -45 -213q-49 -92 -180 -176q68 -166 123 -394h4v377h190v-518q0 -39 -22 -106h71v-154h-131q-47 0 -76 27q-74 -55 -198 -56q-129 0 -218 83t-89 212zM283 264 q0 -80 34 -108q27 -23 89 -23q51 0 63 19q-129 254 -180 469h-6v-357zM311 1059q0 -59 37 -111q92 57 92 125v207q0 57 -63 57q-66 0 -66 -80v-198z" />
<glyph unicode="'" horiz-adv-x="454" d="M137 903v555h180v-555h-180z" />
<glyph unicode="(" horiz-adv-x="342" d="M27 662q0 395 174 796h178q-172 -397 -172 -796q0 -502 182 -861h-180q-182 340 -182 861z" />
<glyph unicode=")" horiz-adv-x="342" d="M-47 -199q182 358 182 861q0 399 -172 796h178q174 -401 174 -796q0 -520 -182 -861h-180z" />
<glyph unicode="*" horiz-adv-x="645" d="M31 1257l45 89l192 -86v198h107v-196l194 84l45 -89l-211 -96l142 -168l-92 -63l-134 170l-129 -170l-92 63l138 166z" />
<glyph unicode="+" horiz-adv-x="1024" d="M10 496v180h414v411h180v-411h410v-180h-410v-412h-180v412h-414z" />
<glyph unicode="," horiz-adv-x="339" d="M31 -256l65 483h205l-149 -483h-121z" />
<glyph unicode="-" horiz-adv-x="339" d="M41 541v147h260v-147h-260z" />
<glyph unicode="." horiz-adv-x="339" d="M68 0v227h204v-227h-204z" />
<glyph unicode="/" horiz-adv-x="569" d="M-20 -29l499 1516h109l-500 -1516h-108z" />
<glyph unicode="0" d="M57 266v916q0 162 74 231q66 61 209 62q143 0 211 -62q74 -70 74 -231v-916q0 -283 -295 -282q-123 0 -195 69q-78 74 -78 213zM274 274q0 -117 70 -116q63 0 64 108v942q0 92 -72 92q-62 0 -62 -92v-934z" />
<glyph unicode="1" d="M98 1116v152q100 16 146 53q55 45 53 137h178v-1458h-217v1116h-160z" />
<glyph unicode="2" d="M57 0v92q0 182 90 383q10 18 170 313q90 168 91 269v135q0 109 -60 108q-74 0 -74 -108v-256h-217v229q0 168 75 239t241 71q252 0 252 -336q0 -172 -84 -359q-78 -152 -156 -303q-86 -172 -90 -303h321v-174h-559z" />
<glyph unicode="3" d="M57 330v207h217v-224q0 -156 60 -155q74 0 74 112v265q0 117 -101 116h-33v174q133 -10 134 144v131q0 121 -2 139q-10 61 -58 61q-55 0 -67 -47q-6 -20 -7 -92v-221h-217v238q0 162 76 231q68 66 215 66q276 0 277 -285v-236q0 -174 -172 -213v-8q111 -37 147 -90 q25 -37 25 -119v-245q0 -164 -78 -236q-68 -59 -205 -59q-166 0 -231 94q-53 78 -54 252z" />
<glyph unicode="4" d="M12 371v151l264 936h308v-913h86v-174h-86v-371h-207v371h-365zM193 545h184v729h-4q-78 -405 -180 -729z" />
<glyph unicode="5" d="M57 231v306h217v-273q0 -106 76 -106q57 0 58 106v365q0 98 -66 98q-53 0 -61 -45h-215v776h544v-174h-327v-432q82 63 159 63q182 0 183 -278v-354q0 -299 -293 -299q-274 0 -275 247z" />
<glyph unicode="6" d="M57 254v928q0 293 287 293q281 0 281 -301v-240h-217v274q0 92 -66 92q-68 0 -68 -92v-389q66 70 162 70q189 -1 189 -232v-387q0 -133 -52 -200q-68 -86 -235 -86q-281 0 -281 270zM274 281q0 -59 9 -84q16 -39 63 -39q62 0 62 94v354q0 86 -70 86q-63 0 -64 -86v-325z " />
<glyph unicode="7" d="M41 1284v174h602v-180l-317 -1278h-232l332 1284h-385z" />
<glyph unicode="8" d="M57 250v272q0 100 38 152.5t138 77.5v4q-176 10 -176 213v227q0 150 95 223q74 55 180 56q121 0 196 -60q92 -74 95 -219l2 -205q2 -223 -172 -235v-4q172 -47 172 -166v-367q0 -106 -79 -170.5t-212 -64.5q-129 0 -203 69.5t-74 196.5zM274 262q0 -104 70 -104 q64 0 64 104v313q0 80 -68 80q-66 0 -66 -80v-313zM274 948q0 -51 13 -69q14 -25 59 -25q62 0 62 88v264q0 94 -66 94q-68 0 -68 -94v-258z" />
<glyph unicode="9" d="M57 297v145h217v-180q0 -92 66 -92q68 0 68 92v299q-66 -70 -162 -69q-189 0 -189 231v477q0 133 52 201q68 86 235 86q281 0 281 -270v-928q0 -293 -287 -293q-281 0 -281 301zM274 774q0 -86 70 -86q63 0 64 86v416q0 61 -9 84q-16 39 -63 39q-62 0 -62 -94v-445z" />
<glyph unicode=":" horiz-adv-x="339" d="M68 0v227h204v-227h-204zM68 840v227h204v-227h-204z" />
<glyph unicode=";" horiz-adv-x="339" d="M16 -256l66 483h205l-150 -483h-121zM68 840v227h204v-227h-204z" />
<glyph unicode="&#x3c;" horiz-adv-x="1024" d="M66 518v135l895 391v-153l-695 -305l695 -305v-154z" />
<glyph unicode="=" horiz-adv-x="1024" d="M10 287v180h1004v-180h-1004zM10 705v180h1004v-180h-1004z" />
<glyph unicode="&#x3e;" horiz-adv-x="1024" d="M63 43v156l693 305l-693 305v154l895 -392v-135z" />
<glyph unicode="?" d="M90 942v324q0 221 244 221q127 0 188 -51q70 -59 70 -205v-164q0 -115 -23 -160l-100 -196q-23 -45 -23 -170v-228h-204v312q0 82 22 127l96 194q35 70 35 121v203q0 45 -9 59t-46 14q-53 0 -53 -79v-322h-197zM242 0v227h204v-227h-204z" />
<glyph unicode="@" horiz-adv-x="1638" d="M86 731q0 317 224.5 536.5t541.5 219.5q285 0 487 -172q211 -180 211 -451q0 -268 -188 -442q-154 -143 -307 -143q-115 0 -121 120h-4q-113 -121 -230 -120q-129 0 -219 100t-90 237q0 207 123 363q131 164 328 164q161 -1 235 -144l35 115h156l-140 -536 q-16 -63 -16 -93q0 -47 37 -47q94 0 175 119t81 274q0 238 -164 377q-152 131 -391 131q-262 0 -427 -175t-165 -439q0 -266 173 -436t439 -170q283 0 455 190h160q-102 -160 -267 -249t-356 -89q-326 0 -551 218.5t-225 541.5zM582 641q0 -82 46 -134t120 -52 q109 0 192 114q76 106 76 226q0 74 -47 127t-115 53q-113 0 -197 -113q-76 -102 -75 -221z" />
<glyph unicode="A" d="M12 0l166 1458h326l166 -1458h-219l-41 395h-154l-47 -395h-197zM276 586h113l-45 606h-14z" />
<glyph unicode="B" d="M57 0v1458h308q254 0 253 -262v-231q0 -88 -53 -136q-43 -35 -147 -59v-4q113 -23 155 -61q51 -51 52 -166v-232q0 -137 -64 -219q-68 -88 -199 -88h-305zM274 174h43q90 0 91 115v276q0 115 -91 115h-43v-506zM274 854h50q78 0 77 109v221q0 108 -76 108h-1h-50v-438z " />
<glyph unicode="C" d="M57 217v1024q0 131 93 195q74 51 190 51q119 0 192 -51q92 -63 93 -195v-315h-217v297q0 90 -66 90q-68 0 -68 -90v-987q0 -90 68 -91q66 0 66 91v315h217v-334q0 -131 -93 -194q-74 -51 -192 -52q-117 0 -190 52q-92 63 -93 194z" />
<glyph unicode="D" d="M57 0v1458h262q166 0 236 -70.5t70 -259.5v-864q0 -111 -66 -184q-72 -80 -192 -80h-310zM274 174h52q51 0 67 29q14 20 15 80v893q0 59 -15 79q-16 29 -67 29h-52v-1110z" />
<glyph unicode="E" horiz-adv-x="569" d="M63 0v1458h484v-190h-266v-375h256v-191h-256v-512h270v-190h-488z" />
<glyph unicode="F" horiz-adv-x="569" d="M63 0v1458h488v-190h-270v-375h260v-191h-260v-702h-218z" />
<glyph unicode="G" d="M57 217v1024q0 131 93 195q74 51 190 51q119 0 192 -51q92 -63 93 -195v-309h-217v291q0 90 -66 90q-68 0 -68 -90v-987q0 -90 68 -91q66 0 66 91v317h-86v174h303v-727h-109l-6 92h-4q-59 -121 -197 -121q-96 0 -164 52q-88 66 -88 194z" />
<glyph unicode="H" d="M63 0v1458h218v-559h120v559h217v-1458h-217v709h-120v-709h-218z" />
<glyph unicode="I" horiz-adv-x="342" d="M61 0v1458h218v-1458h-218z" />
<glyph unicode="J" d="M63 244v311h218v-305q0 -104 61 -105q59 0 59 105v1208h217v-1237q0 -131 -94 -196q-76 -53 -190 -54q-117 0 -194 77t-77 196z" />
<glyph unicode="K" d="M63 0v1458h218v-657h6l166 657h211l-166 -665l170 -793h-224l-157 739h-6v-739h-218z" />
<glyph unicode="L" horiz-adv-x="569" d="M63 0v1458h218v-1268h276v-190h-494z" />
<glyph unicode="M" horiz-adv-x="985" d="M74 0v1458h321l70 -602q16 -135 35 -455h10q4 168 20 453l60 604h321v-1458h-190v672q0 272 8 518h-8q-23 -242 -53 -561l-76 -629h-199l-78 702q-18 182 -51 488h-8q0 -25 4 -141q4 -92 4 -144v-905h-190z" />
<glyph unicode="N" horiz-adv-x="796" d="M63 0v1458h326l62 -420q49 -336 59 -411q31 -236 43 -414h8v78q0 72 -3 214t-3 212v741h178v-1458h-321l-103 729q-43 307 -65 516h-8q0 -33 3 -95.5t3 -92.5v-1057h-179z" />
<glyph unicode="O" d="M57 217v1024q0 131 93 195q74 51 190 51q119 0 192 -51q92 -63 93 -195v-1024q0 -131 -93 -194q-74 -51 -192 -52q-117 0 -190 52q-93 63 -93 194zM274 236q0 -90 68 -91q66 0 66 91v987q0 90 -66 90q-68 0 -68 -90v-987z" />
<glyph unicode="P" d="M57 0v1458h228q178 0 259 -68.5t81 -215.5v-316q0 -172 -85 -240q-74 -60 -221 -60q-21 0 -45 1v-559h-217zM274 733q66 0 88 8q41 12 46 58v346q0 94 -35 123q-21 17 -70 17q-13 0 -29 -1v-551z" />
<glyph unicode="Q" d="M57 217v1024q0 131 93 195q74 51 190 51q119 0 192 -51q92 -63 93 -195v-1024q0 -143 -109 -203q0 -14 33 -14h96v-162h-110q-74 0 -101 41q-20 29 -24 101q-31 -8 -70 -9q-117 0 -190 52q-93 63 -93 194zM274 236q0 -90 68 -91q66 0 66 91v987q0 90 -66 90 q-68 0 -68 -90v-987z" />
<glyph unicode="R" d="M57 0v1458h287q281 0 281 -250v-207q0 -94 -39 -143q-49 -61 -176 -76v-4q197 -25 206 -178q0 -16 9 -297q6 -184 26 -303h-217q-23 106 -26 279v-2v280q0 69 -30 95q-28 25 -94 24h-10v-676h-217zM274 854h41q92 0 93 94v264q0 72 -82 72h-52v-430z" />
<glyph unicode="S" d="M57 217v336h217v-317q0 -90 68 -91q66 0 66 91v153q0 84 -91 205q-84 106 -170 211q-90 127 -90 227v209q0 131 93 195q74 51 190 51q119 0 192 -51q92 -63 93 -195v-307h-217v289q0 90 -66 90q-68 0 -68 -90v-181q0 -47 175.5 -267t175.5 -300v-258q0 -131 -93 -194 q-74 -51 -192 -52q-117 0 -190 52q-92 63 -93 194z" />
<glyph unicode="T" horiz-adv-x="645" d="M25 1268v190h596v-190h-189v-1268h-217v1268h-190z" />
<glyph unicode="U" d="M57 217v1241h217v-1222q0 -90 68 -91q66 0 66 91v1222h217v-1241q0 -131 -93 -194q-74 -51 -192 -52q-117 0 -190 52q-92 63 -93 194z" />
<glyph unicode="V" d="M8 1458h217l68 -608q16 -213 49 -574h4q23 309 43 525l66 657h217l-172 -1458h-328z" />
<glyph unicode="W" horiz-adv-x="985" d="M20 1458h220l45 -530q20 -236 26 -516h11q0 328 24 567l49 479h236l45 -575q8 -106 22 -471h11q6 150 22 428l55 618h177l-146 -1458h-235l-37 524q-27 379 -27 563h-10q-12 -160 -41 -481l-61 -606h-252z" />
<glyph unicode="X" d="M2 0l182 737l-166 721h226q45 -211 59 -287q31 -162 43 -288h6q10 143 86 440l35 135h203l-176 -665l180 -793h-223l-78 352q-14 68 -33 187l-14 98q-4 -133 -47 -320q-41 -159 -80 -317h-203z" />
<glyph unicode="Y" d="M8 1458h223l72 -317q20 -88 47 -316h4q10 195 37 305l78 328h203l-223 -903v-555h-218v545z" />
<glyph unicode="Z" horiz-adv-x="530" d="M23 0v152l251 1116h-247v190h477v-160l-254 -1108h256v-190h-483z" />
<glyph unicode="[" horiz-adv-x="454" d="M61 -199v1657h365v-143h-184v-1370h184v-144h-365z" />
<glyph unicode="\" horiz-adv-x="569" d="M-117 1487h111l692 -1516h-115z" />
<glyph unicode="]" horiz-adv-x="454" d="M29 -55h184v1370h-184v143h364v-1657h-364v144z" />
<glyph unicode="^" horiz-adv-x="1024" d="M20 631l408 827h168l408 -827h-185l-307 639l-307 -639h-185z" />
<glyph unicode="_" horiz-adv-x="1024" d="M0 -61h1024v-140h-1024v140z" />
<glyph unicode="`" horiz-adv-x="303" d="M-104 1647h202l191 -351h-111z" />
<glyph unicode="a" horiz-adv-x="569" d="M41 121v393q0 96 74 145q68 39 137 80q74 59 74 187q0 116 -38 116h-1q-37 0 -45 -51q-2 -14 -2 -84v-153h-199v235q0 90 65.5 143.5t178.5 53.5t178 -53.5t65 -143.5v-989h-184q-12 25 -12 80h-4q-33 -53 -64 -73.5t-90 -20.5q-133 0 -133 135zM238 193q7 -39 41 -39h6 q47 6 47 47v405q-94 -55 -94 -119v-294z" />
<glyph unicode="b" horiz-adv-x="569" d="M41 0v1458h197v-360h4q55 88 141 88q145 0 145 -137v-926q0 -137 -145 -137q-82 0 -141 84h-4v-70h-197zM238 225q0 -71 46 -71h2v0q46 0 46 71v721q0 72 -47 72t-47 -72v-721z" />
<glyph unicode="c" horiz-adv-x="569" d="M41 182v807q0 90 65.5 143.5t178.5 53.5t178 -53.5t65 -143.5v-235h-196v217q0 71 -46 71h-1q-47 0 -47 -71v-785q0 -57 47 -57t47 57v275h196v-279q0 -90 -65.5 -143t-177.5 -53q-113 0 -178.5 53t-65.5 143z" />
<glyph unicode="d" horiz-adv-x="569" d="M41 123v926q0 137 145 137q86 0 142 -88h4v360h196v-1458h-196v70h-4q-59 -84 -142 -84q-145 0 -145 137zM238 225q0 -71 46 -71h1q47 0 47 71v721q0 72 -47 72t-47 -72v-721z" />
<glyph unicode="e" horiz-adv-x="569" d="M41 182v807q0 90 65.5 143.5t178.5 53.5t178 -53.5t65 -143.5v-430h-290v-373q0 -57 47 -57t47 57v275h196v-279q0 -90 -65.5 -143t-177.5 -53q-113 0 -178.5 53t-65.5 143zM238 696h94v289q0 57 -47 57t-47 -57v-289z" />
<glyph unicode="f" horiz-adv-x="342" d="M10 1016v155h62v148q0 139 147 139h111v-155h-27q-35 0 -35 -60v-72h62v-155h-62v-1016h-196v1016h-62z" />
<glyph unicode="g" horiz-adv-x="569" d="M41 -66v146h192v-127q0 -72 48 -72q47 0 47 72v260h-4q-43 -80 -136 -80q-147 0 -147 156v741q0 156 147 156q70 0 144 -84v69h196v-1237q0 -90 -65.5 -143t-177.5 -53q-113 0 -178.5 53t-65.5 143zM238 373q0 -72 47 -72t47 72v573q0 72 -47 72t-47 -72v-573z" />
<glyph unicode="h" horiz-adv-x="569" d="M41 0v1458h197v-354h4q43 82 135 82q100 0 131 -60q20 -39 20 -151v-975h-196v946q0 72 -43 72q-51 0 -51 -72v-946h-197z" />
<glyph unicode="i" horiz-adv-x="303" d="M53 0v1171h197v-1171h-197zM53 1249v209h197v-209h-197z" />
<glyph unicode="j" horiz-adv-x="303" d="M-35 -106q49 0 68.5 17t19.5 64v1196h197v-1189q0 -121 -25 -170q-37 -74 -145 -74h-115v156zM53 1249v209h197v-209h-197z" />
<glyph unicode="k" horiz-adv-x="569" d="M45 0v1458h197v-825h8l106 538h197l-113 -528l119 -643h-201l-108 616h-8v-616h-197z" />
<glyph unicode="l" horiz-adv-x="303" d="M53 0v1458h197v-1458h-197z" />
<glyph unicode="m" horiz-adv-x="872" d="M51 0v1171h197v-77h4q53 92 137 92q90 0 139 -84q43 84 142 84q100 0 131 -60q20 -39 20 -151v-975h-196v946q0 72 -47 72q-43 0 -43 -72v-946h-197v946q0 72 -47 72q-43 0 -43 -72v-946h-197z" />
<glyph unicode="n" horiz-adv-x="569" d="M41 0v1171h197v-67h4q43 82 135 82q100 0 131 -60q20 -39 20 -151v-975h-196v946q0 72 -43 72q-51 0 -51 -72v-946h-197z" />
<glyph unicode="o" horiz-adv-x="569" d="M41 182v807q0 90 65.5 143.5t178.5 53.5t178 -53.5t65 -143.5v-807q0 -90 -65.5 -143t-177.5 -53q-113 0 -178.5 53t-65.5 143zM238 186q0 -57 47 -57t47 57v799q0 57 -47 57t-47 -57v-799z" />
<glyph unicode="p" horiz-adv-x="569" d="M41 -262v1433h197v-69h4q59 84 141 84q145 0 145 -137v-926q0 -137 -145 -137q-86 0 -141 88h-4v-336h-197zM238 225q0 -71 46 -71h1h1q46 0 46 71v721q0 72 -47 72t-47 -72v-721z" />
<glyph unicode="q" horiz-adv-x="569" d="M41 123v926q0 137 145 137q82 0 142 -84h4v69h196v-1433h-196v336h-4q-55 -88 -142 -88q-145 0 -145 137zM238 225q0 -71 46 -71h1q47 0 47 71v721q0 72 -47 72t-47 -72v-721z" />
<glyph unicode="r" horiz-adv-x="569" d="M41 0v1171h197v-67h4q43 82 135 82q104 0 135 -66q16 -39 16 -157v-404h-196v387q0 72 -43 72q-51 0 -51 -72v-946h-197z" />
<glyph unicode="s" horiz-adv-x="569" d="M41 182v275h197v-256q0 -72 47 -72t47 72v121q0 94 -145.5 255.5t-145.5 253.5v158q0 90 65.5 143.5t178.5 53.5t178 -53.5t65 -143.5v-241h-196v223q0 71 -46 71h-1q-47 0 -47 -71v-97q0 -53 145 -206.5t145 -247.5v-238q0 -90 -65.5 -143t-177.5 -53q-113 0 -178.5 53 t-65.5 143z" />
<glyph unicode="t" horiz-adv-x="342" d="M12 1016v155h58v211h196v-211h64v-155h-64v-766q0 -94 43 -94h21v-156h-113q-80 0 -119 61q-29 43 -28 95v860h-58z" />
<glyph unicode="u" horiz-adv-x="569" d="M41 209v962h197v-946q0 -71 42 -71h1q51 0 51 71v946h196v-1171h-196v68h-4q-43 -82 -135 -82q-104 0 -134 65q-18 39 -18 158z" />
<glyph unicode="v" horiz-adv-x="569" d="M4 1171h197l47 -407q18 -154 26 -537h9q4 135 24 408l62 536h194l-162 -1171h-245z" />
<glyph unicode="w" horiz-adv-x="909" d="M6 1171h203l43 -550q16 -219 22 -394h9q8 268 18 400l47 544h219l33 -475q12 -156 27 -469h6q8 143 26 430l39 514h203l-145 -1171h-215l-47 391q-37 305 -37 557h-4q-6 -150 -27 -448l-53 -500h-232z" />
<glyph unicode="x" horiz-adv-x="530" d="M8 0l119 614l-109 557h197q25 -133 55 -401h4q16 131 43 401h189l-98 -553l114 -618h-196q-23 111 -37 244q-25 209 -29 235h-4q-2 -31 -59 -479h-189z" />
<glyph unicode="y" horiz-adv-x="569" d="M8 1171h195l43 -389q18 -170 33 -524h8q6 166 30 483l48 430h194l-174 -1241q-18 -129 -55 -160.5t-162 -31.5h-64q-39 2 -57 2v154h59q70 0 70 69q0 4 -33 240z" />
<glyph unicode="z" horiz-adv-x="454" d="M8 0v162l223 854h-223v155h420v-155l-225 -860h241v-156h-436z" />
<glyph unicode="{" d="M76 569v127q68 0 122 52.5t54 134.5v342q0 106 80 174q68 59 151 59h160v-143h-108q-102 0 -103 -121v-336q0 -106 -74 -170q-51 -43 -112 -53v-4q63 -10 112 -51q74 -63 74 -181v-333q0 -121 103 -121h108v-144h-160q-84 0 -151 60q-80 68 -80 174v340q0 90 -57 145 q-51 49 -119 49z" />
<glyph unicode="|" horiz-adv-x="454" d="M137 0v1458h180v-1458h-180z" />
<glyph unicode="}" d="M39 -55h108q102 0 103 121v335q0 106 74 170q51 43 112 54v4q-63 10 -112 51q-74 63 -74 180v334q0 121 -103 121h-108v143h160q84 0 153 -59q78 -68 78 -174v-340q0 -90 57 -146q51 -49 119 -49v-127q-68 0 -119 -49q-57 -55 -57 -137v-342q0 -106 -78 -174 q-70 -59 -153 -60h-160v144z" />
<glyph unicode="~" horiz-adv-x="1024" d="M39 563q92 176 256 176q82 0 235.5 -69.5t200.5 -69.5q84 1 180 148l74 -144q-61 -86 -102 -121q-70 -55 -154 -55q-82 0 -221 69.5t-223 69.5q-104 0 -172 -147z" />
<glyph horiz-adv-x="1019" d="M-84 535l43 96h115q6 51 24 149h-135l43 99h121q84 229 221 374q170 180 383 181q193 -1 338 -138l-47 -319l-98 12q0 322 -193 322q-211 0 -330 -432h353l-43 -99h-336q-12 -49 -33 -149h301l-43 -96h-274q-12 -84 -13 -152q0 -115 43 -186q53 -88 160 -88 q119 0 207 139q49 78 104 244l113 -21l-111 -385q-158 -109 -325 -109q-227 0 -340 173q-96 145 -96 385h-152z" />
<glyph unicode="&#xa1;" horiz-adv-x="417" d="M106 -229v1140h205v-1140h-205zM106 997v228h205v-228h-205z" />
<glyph unicode="&#xa2;" d="M104 182v807q0 90 66 143.5t178 53.5q35 0 49 -4l41 145h111l-47 -178q90 -55 90 -160v-235h-197v217q0 72 -47 71q-47 0 -47 -71v-785q0 -57 47 -57t47 57v275h197v-279q0 -90 -65.5 -143t-178.5 -53q-41 0 -86 10l-37 -166h-108l47 215q-59 49 -60 137z" />
<glyph unicode="&#xa3;" d="M39 152q106 117 106 299q0 66 -8 221h-94v116h68q-57 197 -58 390q0 297 301 297q158 0 218.5 -60.5t60.5 -200.5v-133h-217v140q0 80 -72 79q-74 0 -74 -149q0 -66 37 -223q16 -61 35 -140h156v-116h-142q6 -63 6 -119q0 -254 -135 -373l4 -4q100 27 230 6 q63 -10 90 -10q51 0 100 25l8 -191q-59 -14 -114 -14q-35 0 -92 6q-68 8 -105 10q-137 6 -166 2q-55 -10 -104 -12z" />
<glyph unicode="&#xa4;" d="M51 578l66 63q-57 66 -58 166q0 109 58 166l-66 65l58 60l65 -64q66 55 170 56q100 0 160 -56l69 64l60 -60l-64 -63q53 -63 54 -166q0 -102 -54 -168l64 -63l-60 -60l-63 66q-63 -57 -166 -58q-109 0 -172 58l-63 -66zM160 807q0 -78 53 -132t131 -54q76 0 127 55 t51 133q0 76 -52 131t-126 55q-78 0 -131 -55t-53 -133z" />
<glyph unicode="&#xa5;" d="M8 1458h225l70 -317q27 -117 39 -316h16q4 180 33 305l78 328h203l-154 -637h123v-119h-147l-25 -102h117v-117h-140v-483h-217v483h-139v117h117l-25 102h-147v117h123z" />
<glyph unicode="&#xa6;" horiz-adv-x="454" d="M137 0v545h180v-545h-180zM137 913v545h180v-545h-180z" />
<glyph unicode="&#xa7;" d="M47 684q0 162 141 246q-96 104 -96 270q0 287 256 287q250 0 250 -238v-90h-180v90q0 94 -70 94q-55 0 -67 -43q-6 -16 -7 -92q0 -121 95 -223l172 -172q94 -113 94 -254q0 -172 -139 -260q98 -96 98 -272q0 -152 -62.5 -220.5t-209.5 -68.5q-248 0 -248 242v126h180 v-129q0 -96 76 -96q59 0 76 43q8 23 8 94q0 121 -95 224q-88 88 -178 176q-94 115 -94 266zM227 694q0 -133 183 -276q45 70 45 139q0 66 -62 143q-57 62 -112 123q-53 -49 -54 -129z" />
<glyph unicode="&#xa8;" horiz-adv-x="303" d="M-84 1364v199h184v-199h-184zM203 1364v199h184v-199h-184z" />
<glyph unicode="&#xa9;" horiz-adv-x="1638" d="M45 729q0 332 234 549q223 209 540 209t541 -209q233 -217 233 -549t-233 -549q-224 -209 -541 -209t-540 209q-233 217 -234 549zM229 729q0 -264 170 -437t420 -173q248 0 419 174t171 436t-171 436t-419 174q-250 0 -420 -173t-170 -437zM412 733q0 201 115.5 329 t314.5 128q145 0 245 -80q104 -86 125 -233h-149q-16 76 -75.5 120.5t-143.5 44.5q-123 0 -189.5 -85t-66.5 -220q0 -131 71.5 -222t188.5 -91q86 0 144.5 48t70.5 128h156q-25 -150 -128.5 -237t-242.5 -87q-195 0 -315.5 130.5t-120.5 326.5z" />
<glyph unicode="&#xaa;" horiz-adv-x="342" d="M12 848v237q0 72 98.5 128.5t96.5 117.5q-2 63 -33 64q-39 0 -39 -74v-72h-123v131q0 106 150 107q166 -1 166 -107v-604h-117q-8 14 -8 47h-2q-37 -55 -101 -55q-88 0 -88 80zM133 891q4 -27 39 -23q18 2 35 29v244q-35 -14 -49 -29q-25 -29 -25 -43v-178z" />
<glyph unicode="&#xab;" d="M33 453v266l280 307v-250l-178 -190l178 -187v-260zM367 453v266l280 307v-250l-178 -190l178 -187v-260z" />
<glyph unicode="&#xac;" horiz-adv-x="1024" d="M10 705v180h1004v-570h-180v390h-824z" />
<glyph unicode="&#xad;" horiz-adv-x="692" d="M16 356l68 250h504l-68 -250h-504z" />
<glyph unicode="&#xae;" horiz-adv-x="1638" d="M45 729q0 332 234 549q223 209 540 209t541 -209q233 -217 233 -549t-233 -549q-224 -209 -541 -209t-540 209q-233 217 -234 549zM229 729q0 -264 170 -437t420 -173q248 0 419 174t171 436t-171 436t-419 174q-250 0 -420 -173t-170 -437zM522 313v858h324 q324 0 323 -251q0 -207 -229 -232l236 -375h-164l-215 369h-125v-369h-150zM672 805h157q90 0 129 20q53 29 54 107q0 117 -181 117h-159v-244z" />
<glyph unicode="&#xaf;" horiz-adv-x="303" d="M-82 1386v132h469v-132h-469z" />
<glyph unicode="&#xb0;" horiz-adv-x="819" d="M111 1159q0 123 88 211t211 88t211 -88t88 -211t-88 -211t-211 -88t-211 88t-88 211zM219 1159q0 -84 54.5 -141t136.5 -57t136 57t54 141t-54 141.5t-136 57.5t-136.5 -57.5t-54.5 -141.5z" />
<glyph unicode="&#xb1;" horiz-adv-x="1024" d="M10 84v180h1004v-180h-1004zM10 616v181h412v290h180v-290h412v-181h-412v-292h-180v292h-412z" />
<glyph unicode="&#xb2;" horiz-adv-x="407" d="M23 590v55q0 109 59 229q4 12 108 191q59 100 60 160v80q0 66 -37 65q-49 0 -49 -65v-154h-141v137q0 100 49 143.5t155 43.5q164 0 164 -201q0 -129 -105.5 -310.5t-107.5 -269.5h209v-104h-364z" />
<glyph unicode="&#xb3;" horiz-adv-x="407" d="M23 788v123h141v-133q0 -94 39 -94q47 0 47 68v159q0 70 -64 70h-22v104q86 -6 86 86v78q0 74 -2 84q-6 37 -35 37q-37 0 -45 -29q-4 -12 -4 -55v-133h-141v143q0 178 190 179q178 0 178 -170v-142q0 -104 -110 -129v-4q72 -23 94 -53q16 -23 16 -72v-147 q0 -178 -182 -178q-109 0 -152 57q-35 47 -34 151z" />
<glyph unicode="&#xb4;" horiz-adv-x="303" d="M14 1296l191 351h203l-283 -351h-111z" />
<glyph unicode="&#xb6;" horiz-adv-x="1228" d="M55 1077q0 381 484 381h620v-143h-180v-1682h-180v1682h-121v-1682h-180v1078q-203 0 -323 101t-120 265z" />
<glyph unicode="&#xb7;" horiz-adv-x="339" d="M61 586q0 45 32 76.5t77 31.5t78 -31.5t33 -76.5t-33 -78t-78 -33t-77 32t-32 79z" />
<glyph unicode="&#xb8;" horiz-adv-x="303" d="M-68 -387q0 4 11.5 22.5t17.5 36.5q63 -27 123 -26q119 0 129 84q12 100 -102 100q-38 0 -54 -6l60 164h61l-31 -97q29 4 50 5q70 0 117.5 -37t47.5 -109q0 -92 -88 -137q-68 -37 -168 -37q-63 0 -135 18q-39 10 -39 19z" />
<glyph unicode="&#xb9;" horiz-adv-x="407" d="M39 1260v90q131 20 129 114h117v-874h-142v670h-104z" />
<glyph unicode="&#xba;" horiz-adv-x="342" d="M12 903v455q0 129 152 129q164 0 164 -115v-446q0 -158 -164 -158q-152 0 -152 135zM133 901q0 -41 35 -41q39 0 39 45v303q0 123 -2 146q-6 41 -33 41q-39 0 -39 -43v-451z" />
<glyph unicode="&#xbb;" d="M33 139v260l178 187l-178 190v250l280 -307v-266zM367 139v260l178 187l-178 190v250l280 -307v-266z" />
<glyph unicode="&#xbc;" horiz-adv-x="1021" d="M49 1260v90q131 20 129 114h117v-874h-141v670h-105zM193 -16l477 1491h98l-477 -1491h-98zM545 223v90l172 561h198v-546h58v-105h-58v-223h-133v223h-237zM662 328h120v442h-4q-46 -247 -116 -442z" />
<glyph unicode="&#xbd;" horiz-adv-x="1021" d="M37 1260v90q131 20 129 114h117v-874h-142v670h-104zM180 -16l477 1491h99l-477 -1491h-99zM616 0v55q0 109 60 230q4 12 108 190q59 100 60 160v80q0 66 -37 65q-49 0 -49 -65v-154h-142v137q0 100 49.5 143.5t155.5 43.5q164 0 164 -201q0 -129 -105.5 -310.5 t-107.5 -269.5h209v-104h-365z" />
<glyph unicode="&#xbe;" horiz-adv-x="1021" d="M33 788v123h141v-133q0 -94 39 -94q47 0 47 68v159q0 70 -63 70h-23v104q86 -6 86 86v78q0 74 -2 84q-6 37 -35 37q-37 0 -45 -29q-4 -12 -4 -55v-133h-141v143q0 178 190 179q178 0 178 -170v-142q0 -104 -110 -129v-4q72 -23 94 -53q16 -23 16 -72v-147 q0 -178 -182 -178q-109 0 -151 57q-35 47 -35 151zM250 -16l477 1491h98l-477 -1491h-98zM565 223v90l172 561h199v-546h57v-105h-57v-223h-133v223h-238zM682 328h121v442h-4q-47 -247 -117 -442z" />
<glyph unicode="&#xbf;" d="M90 -6v164q0 115 23 159l100 197q23 45 23 170v227h204v-311q0 -82 -22 -127l-96 -194q-35 -70 -35 -121v-203q0 -45 9 -59.5t46 -14.5q53 0 53 80v322h197v-324q0 -221 -244 -221q-127 0 -186 51q-72 59 -72 205zM236 997v228h204v-228h-204z" />
<glyph unicode="&#xc0;" d="M12 0l166 1458h326l166 -1458h-219l-41 395h-154l-47 -395h-197zM68 1874h163l152 -281h-88zM276 586h113l-45 606h-14z" />
<glyph unicode="&#xc1;" d="M12 0l166 1458h326l166 -1458h-219l-41 395h-154l-47 -395h-197zM276 586h113l-45 606h-14zM293 1593l151 281h162l-225 -281h-88z" />
<glyph unicode="&#xc2;" d="M12 0l166 1458h326l166 -1458h-219l-41 395h-154l-47 -395h-197zM125 1511l145 281h131l142 -281h-88l-117 183l-125 -183h-88zM276 586h113l-45 606h-14z" />
<glyph unicode="&#xc3;" d="M12 0l166 1458h326l166 -1458h-219l-41 395h-154l-47 -395h-197zM82 1583q74 176 207 164q25 -2 76 -26.5t77 -26.5q59 -6 93 59q2 -2 33.5 -4t31.5 -4q-27 -66 -82 -109q-61 -49 -127 -43q-29 2 -81 24.5t-77 24.5q-55 7 -92 -65zM276 586h113l-45 606h-14z" />
<glyph unicode="&#xc4;" d="M12 0l166 1458h326l166 -1458h-219l-41 395h-154l-47 -395h-197zM106 1612v199h184v-199h-184zM276 586h113l-45 606h-14zM393 1612v199h184v-199h-184z" />
<glyph unicode="&#xc5;" d="M12 0l166 1458h326l166 -1458h-219l-41 395h-154l-47 -395h-197zM172 1704q0 72 50 123t120 51t120 -51t50 -123t-50.5 -123t-119.5 -51q-70 0 -120 51t-50 123zM264 1704q0 -31 24.5 -55.5t53.5 -24.5t53 24.5t24 55.5t-24.5 55.5t-52.5 24.5q-29 0 -53.5 -24.5 t-24.5 -55.5zM276 586h113l-45 606h-14z" />
<glyph unicode="&#xc6;" horiz-adv-x="985" d="M0 0l303 1458h664v-190h-285v-375h270v-191h-270v-512h281v-190h-498v395h-172l-82 -395h-211zM334 586h131v682h-19z" />
<glyph unicode="&#xc7;" d="M57 217v1024q0 131 93 195q74 51 190 51q119 0 192 -51q92 -63 93 -195v-315h-217v297q0 90 -66 90q-68 0 -68 -90v-987q0 -90 68 -91q66 0 66 91v315h217v-334q0 -131 -93 -194q-74 -51 -192 -52q-117 0 -190 52q-92 63 -93 194zM122 -387q0 4 11.5 22.5t17.5 36.5 q63 -27 123 -26q119 0 129 84q12 100 -102 100q-38 0 -54 -6l60 164h61l-31 -97q29 4 50 5q70 0 117.5 -37t47.5 -109q0 -92 -88 -137q-68 -37 -168 -37q-63 0 -135 18q-39 10 -39 19z" />
<glyph unicode="&#xc8;" horiz-adv-x="569" d="M39 1874h164l151 -281h-88zM63 0v1458h484v-190h-266v-375h256v-191h-256v-512h270v-190h-488z" />
<glyph unicode="&#xc9;" horiz-adv-x="569" d="M63 0v1458h484v-190h-266v-375h256v-191h-256v-512h270v-190h-488zM266 1593l152 281h162l-226 -281h-88z" />
<glyph unicode="&#xca;" horiz-adv-x="569" d="M63 0v1458h484v-190h-266v-375h256v-191h-256v-512h270v-190h-488zM96 1532l146 280h131l141 -280h-88l-117 182l-125 -182h-88z" />
<glyph unicode="&#xcb;" horiz-adv-x="569" d="M49 1612v199h184v-199h-184zM63 0v1458h484v-190h-266v-375h256v-191h-256v-512h270v-190h-488zM336 1612v199h184v-199h-184z" />
<glyph unicode="&#xcc;" horiz-adv-x="342" d="M-102 1874h163l152 -281h-88zM61 0v1458h218v-1458h-218z" />
<glyph unicode="&#xcd;" horiz-adv-x="342" d="M61 0v1458h218v-1458h-218zM125 1593l151 281h162l-225 -281h-88z" />
<glyph unicode="&#xce;" horiz-adv-x="342" d="M-89 1544l181 351h164l176 -351h-109l-147 228l-156 -228h-109zM61 0v1458h218v-1458h-218z" />
<glyph unicode="&#xcf;" horiz-adv-x="342" d="M-64 1612v199h184v-199h-184zM61 0v1458h218v-1458h-218zM223 1612v199h184v-199h-184z" />
<glyph unicode="&#xd0;" d="M4 655v174h53v629h262q166 0 236 -70.5t70 -259.5v-864q0 -111 -66 -184q-72 -80 -192 -80h-310v655h-53zM274 174h52q51 0 67 29q14 20 15 80v893q0 59 -15 79q-16 29 -67 29h-52v-455h93v-174h-93v-481z" />
<glyph unicode="&#xd1;" horiz-adv-x="796" d="M63 0v1458h326l62 -420q49 -336 59 -411q31 -236 43 -414h8v78q0 72 -3 214t-3 212v741h178v-1458h-321l-103 729q-43 307 -65 516h-8q0 -33 3 -95.5t3 -92.5v-1057h-179zM135 1591q31 209 187 209q27 0 94.5 -22.5t97.5 -22.5q72 0 90 78h41q35 2 35 -2 q-8 -80 -62.5 -138.5t-129.5 -58.5q-35 0 -101.5 20.5t-95.5 20.5q-68 0 -84 -84h-72z" />
<glyph unicode="&#xd2;" d="M57 217v1024q0 123 82 189q76 57 201 57q127 0 201 -57q84 -63 84 -189v-1024q0 -125 -84 -188q-74 -57 -201 -58q-125 0 -201 58q-82 65 -82 188zM68 1874h163l152 -281h-88zM274 236q0 -90 68 -91q66 0 66 91v987q0 90 -66 90q-68 0 -68 -90v-987z" />
<glyph unicode="&#xd3;" d="M57 217v1024q0 123 82 189q76 57 201 57q127 0 201 -57q84 -63 84 -189v-1024q0 -125 -84 -188q-74 -57 -201 -58q-125 0 -201 58q-82 65 -82 188zM274 236q0 -90 68 -91q66 0 66 91v987q0 90 -66 90q-68 0 -68 -90v-987zM293 1593l151 281h162l-225 -281h-88z" />
<glyph unicode="&#xd4;" d="M57 217v1024q0 123 82 189q76 57 201 57q127 0 201 -57q84 -63 84 -189v-1024q0 -125 -84 -188q-74 -57 -201 -58q-125 0 -201 58q-82 65 -82 188zM127 1511l145 281h131l142 -281h-88l-117 183l-125 -183h-88zM274 236q0 -90 68 -91q66 0 66 91v987q0 90 -66 90 q-68 0 -68 -90v-987z" />
<glyph unicode="&#xd5;" d="M57 217v1024q0 123 82 189q76 57 201 57q127 0 201 -57q84 -63 84 -189v-1024q0 -125 -84 -188q-74 -57 -201 -58q-125 0 -201 58q-82 65 -82 188zM82 1583q74 176 207 164q25 -2 76 -26.5t77 -26.5q59 -6 93 59q2 -2 33.5 -4t31.5 -4q-27 -66 -82 -109q-61 -49 -127 -43 q-29 2 -81 24.5t-77 24.5q-55 7 -92 -65zM274 236q0 -90 68 -91q66 0 66 91v987q0 90 -66 90q-68 0 -68 -90v-987z" />
<glyph unicode="&#xd6;" d="M57 217v1024q0 131 93 195q74 51 190 51q119 0 192 -51q92 -63 93 -195v-1024q0 -131 -93 -194q-74 -51 -192 -52q-117 0 -190 52q-93 63 -93 194zM106 1612v199h184v-199h-184zM274 236q0 -90 68 -91q66 0 66 91v987q0 90 -66 90q-68 0 -68 -90v-987zM393 1612v199h184 v-199h-184z" />
<glyph unicode="&#xd7;" horiz-adv-x="1024" d="M10 172l375 375l-375 377l125 129l377 -377l377 377l125 -129l-375 -375l375 -377l-125 -129l-377 377l-377 -377z" />
<glyph unicode="&#xd8;" d="M-4 -92l76 219q-15 35 -15 90v1024q0 131 93 195q74 51 190 51q117 0 190 -51l33 96h123l-74 -211q12 -31 13 -80v-1024q0 -131 -93 -194q-74 -51 -192 -52q-106 0 -180 45l-39 -108h-125zM274 236q0 -90 68 -91q66 0 66 91v495h-5l-129 -383v-112zM274 705h5l129 380 v138q0 90 -66 90q-68 0 -68 -90v-518z" />
<glyph unicode="&#xd9;" d="M57 217v1241h217v-1222q0 -90 68 -91q66 0 66 91v1222h217v-1241q0 -125 -84 -188q-74 -57 -201 -58q-125 0 -201 58q-82 66 -82 188zM68 1812h163l152 -280h-88z" />
<glyph unicode="&#xda;" d="M57 217v1241h217v-1222q0 -90 68 -91q66 0 66 91v1222h217v-1241q0 -125 -84 -188q-74 -57 -201 -58q-125 0 -201 58q-82 66 -82 188zM293 1532l151 280h162l-225 -280h-88z" />
<glyph unicode="&#xdb;" d="M57 217v1241h217v-1222q0 -90 68 -91q66 0 66 91v1222h217v-1241q0 -131 -93 -194q-74 -51 -192 -52q-117 0 -190 52q-92 63 -93 194zM81 1544l181 351h164l176 -351h-109l-147 228l-156 -228h-109z" />
<glyph unicode="&#xdc;" d="M57 217v1241h217v-1222q0 -90 68 -91q66 0 66 91v1222h217v-1241q0 -131 -93 -194q-74 -51 -192 -52q-117 0 -190 52q-92 63 -93 194zM106 1612v199h184v-199h-184zM393 1612v199h184v-199h-184z" />
<glyph unicode="&#xdd;" d="M8 1458h223l72 -317q20 -94 47 -316h4q10 193 37 305l78 328h203l-223 -903v-555h-218v545zM303 1532l152 280h161l-225 -280h-88z" />
<glyph unicode="&#xde;" d="M57 0v1458h217v-237q350 14 351 -285v-315q0 -172 -85 -241t-266 -58v-322h-217zM274 496q66 0 88 8q42 12 46 57v346q0 94 -35 123q-25 20 -99 17v-551z" />
<glyph unicode="&#xdf;" horiz-adv-x="569" d="M41 0v1194q0 264 235 264q160 0 209 -80q31 -47 31 -184v-244q-14 -84 -80 -108q0 -2 29 -23q49 -35 63 -84q8 -31 9 -119v-344q0 -152 -35 -213q-45 -76 -168 -75q-22 0 -49 2v143q55 0 55 61v533q-8 35 -55 43v143q35 -4 34 41v318q0 47 -36 47q-45 0 -45 -64v-1251 h-197z" />
<glyph unicode="&#xe0;" horiz-adv-x="569" d="M41 121v393q0 100 74 145q45 27 137 80q74 59 74 187q0 117 -39 116q-37 0 -45 -51q-2 -12 -2 -84v-153h-199v235q0 98 76 152q66 45 168 45t168 -45q75 -54 75 -152v-989h-184q-12 25 -12 80h-4q-33 -53 -64 -73.5t-90 -20.5q-133 0 -133 135zM41 1561h147l138 -252h-80 zM238 193q8 -43 47 -39q47 6 47 47v405q-94 -55 -94 -119v-294z" />
<glyph unicode="&#xe1;" horiz-adv-x="569" d="M41 121v393q0 100 74 145q45 27 137 80q74 59 74 187q0 117 -39 116q-37 0 -45 -51q-2 -12 -2 -84v-153h-199v235q0 98 76 152q66 45 168 45t168 -45q75 -54 75 -152v-989h-184q-12 25 -12 80h-4q-33 -53 -64 -73.5t-90 -20.5q-133 0 -133 135zM238 193q8 -43 47 -39 q47 6 47 47v405q-94 -55 -94 -119v-294zM248 1311l135 252h145l-202 -252h-78z" />
<glyph unicode="&#xe2;" horiz-adv-x="569" d="M41 121v393q0 100 74 145q45 27 137 80q74 59 74 187q0 117 -39 116q-37 0 -45 -51q-2 -12 -2 -84v-153h-199v235q0 98 76 152q66 45 168 45t168 -45q75 -54 75 -152v-989h-184q-12 25 -12 80h-4q-33 -53 -64 -73.5t-90 -20.5q-133 0 -133 135zM92 1229l131 252h119 l127 -252h-80l-104 164l-113 -164h-80zM238 193q8 -43 47 -39q47 6 47 47v405q-94 -55 -94 -119v-294z" />
<glyph unicode="&#xe3;" horiz-adv-x="569" d="M41 121v393q0 100 74 145q45 27 137 80q74 59 74 187q0 117 -39 116q-37 0 -45 -51q-2 -12 -2 -84v-153h-199v235q0 98 76 152q66 45 168 45t168 -45q75 -54 75 -152v-989h-184q-12 25 -12 80h-4q-33 -53 -64 -73.5t-90 -20.5q-133 0 -133 135zM55 1292q70 158 187 148 q20 -2 68 -24.5t71 -24.5q53 -4 82 55q2 -2 30.5 -4t28.5 -4q-23 -59 -75 -100.5t-113 -37.5q-16 2 -76 23q-41 18 -65 23q-47 6 -82 -60zM238 193q8 -43 47 -39q47 6 47 47v405q-94 -55 -94 -119v-294z" />
<glyph unicode="&#xe4;" horiz-adv-x="569" d="M41 121v393q0 96 74 145q68 39 137 80q74 59 74 187q0 117 -39 116q-37 0 -45 -51q-2 -14 -2 -84v-153h-199v235q0 90 65.5 143.5t178.5 53.5t178 -53.5t65 -143.5v-989h-184q-12 25 -12 80h-4q-33 -53 -64 -73.5t-90 -20.5q-133 0 -133 135zM49 1364v199h184v-199h-184z M238 193q8 -43 47 -39q47 6 47 47v405q-94 -55 -94 -119v-294zM336 1364v199h184v-199h-184z" />
<glyph unicode="&#xe5;" horiz-adv-x="569" d="M41 121v393q0 96 74 145q68 39 137 80q74 59 74 187q0 117 -39 116q-37 0 -45 -51q-2 -14 -2 -84v-153h-199v235q0 90 65.5 143.5t178.5 53.5t178 -53.5t65 -143.5v-989h-184q-12 25 -12 80h-4q-33 -53 -64 -73.5t-90 -20.5q-133 0 -133 135zM115 1456q0 72 50 123 t120 51t120 -51t50 -123t-50.5 -123t-119.5 -51q-70 0 -120 51t-50 123zM207 1456q0 -31 24.5 -55.5t53.5 -24.5t53 24.5t24 55.5t-24.5 55.5t-52.5 24.5q-29 0 -53.5 -24.5t-24.5 -55.5zM238 193q8 -43 47 -39q47 6 47 47v405q-94 -55 -94 -119v-294z" />
<glyph unicode="&#xe6;" horiz-adv-x="872" d="M47 121v393q0 96 74 145q68 39 137 80q74 59 74 187q0 117 -39 116q-37 0 -45 -51q-2 -14 -2 -84v-153h-199v235q0 90 65.5 143.5t178.5 53.5q82 0 145 -33q51 33 152 33q237 0 237 -244v-383h-290v-358q0 -72 47 -72t47 72v260h196v-271q0 -205 -264 -204 q-178 0 -209 133h-4q-27 -133 -168 -133q-133 0 -133 135zM244 193q8 -43 47 -39q47 6 47 47v405q-94 -55 -94 -119v-294zM535 696h94v228v73q-8 45 -43 45q-45 0 -51 -49q0 2 0 -86v-211z" />
<glyph unicode="&#xe7;" horiz-adv-x="569" d="M41 182v807q0 90 65.5 143.5t178.5 53.5t178 -53.5t65 -143.5v-235h-196v217q0 72 -47 71q-47 0 -47 -71v-785q0 -57 47 -57t47 57v275h196v-279q0 -90 -65.5 -143t-177.5 -53q-113 0 -178.5 53t-65.5 143zM65 -387q0 4 11.5 22.5t17.5 36.5q63 -27 123 -26q119 0 129 84 q12 100 -102 100q-38 0 -54 -6l60 164h61l-31 -97q29 4 50 5q70 0 117.5 -37t47.5 -109q0 -92 -88 -137q-68 -37 -168 -37q-63 0 -135 18q-39 10 -39 19z" />
<glyph unicode="&#xe8;" horiz-adv-x="569" d="M41 182v807q0 98 76 152q66 45 168 45t168 -45q76 -53 75 -152v-430h-290v-373q0 -57 47 -57t47 57v275h196v-279q0 -98 -75 -151q-66 -45 -168 -45t-168 45q-76 53 -76 151zM41 1561h147l138 -252h-80zM238 696h94v289q0 57 -47 57t-47 -57v-289z" />
<glyph unicode="&#xe9;" horiz-adv-x="569" d="M41 182v807q0 98 76 152q66 45 168 45t168 -45q76 -53 75 -152v-430h-290v-373q0 -57 47 -57t47 57v275h196v-279q0 -98 -75 -151q-66 -45 -168 -45t-168 45q-76 53 -76 151zM238 696h94v289q0 57 -47 57t-47 -57v-289zM248 1311l135 252h145l-202 -252h-78z" />
<glyph unicode="&#xea;" horiz-adv-x="569" d="M41 182v807q0 98 76 152q66 45 168 45t168 -45q76 -53 75 -152v-430h-290v-373q0 -57 47 -57t47 57v275h196v-279q0 -98 -75 -151q-66 -45 -168 -45t-168 45q-76 53 -76 151zM92 1229l131 252h119l127 -252h-80l-104 164l-113 -164h-80zM238 696h94v289q0 57 -47 57 t-47 -57v-289z" />
<glyph unicode="&#xeb;" horiz-adv-x="569" d="M41 182v807q0 90 65.5 143.5t178.5 53.5t178 -53.5t65 -143.5v-430h-290v-373q0 -57 47 -57t47 57v275h196v-279q0 -90 -65.5 -143t-177.5 -53q-113 0 -178.5 53t-65.5 143zM49 1364v199h184v-199h-184zM238 696h94v289q0 57 -47 57t-47 -57v-289zM336 1364v199h184v-199 h-184z" />
<glyph unicode="&#xec;" horiz-adv-x="303" d="M-92 1552h147l138 -252h-80zM53 0v1171h197v-1171h-197z" />
<glyph unicode="&#xed;" horiz-adv-x="303" d="M53 0v1171h197v-1171h-197zM115 1298l135 252h145l-202 -252h-78z" />
<glyph unicode="&#xee;" horiz-adv-x="303" d="M-109 1296l181 351h164l176 -351h-109l-147 228l-156 -228h-109zM53 0v1171h197v-1171h-197z" />
<glyph unicode="&#xef;" horiz-adv-x="303" d="M-84 1364v199h184v-199h-184zM53 0v1171h197v-1171h-197zM203 1364v199h184v-199h-184z" />
<glyph unicode="&#xf0;" horiz-adv-x="569" d="M37 1458h194l58 -80l135 27v-72l-88 -18l147 -207q45 -63 45 -147v-779q0 -90 -65.5 -143t-177.5 -53q-113 0 -178.5 53t-65.5 143v787q0 188 203 217l-70 98l-123 -24v71l74 15zM238 186q0 -57 47 -57t47 57v799q0 57 -47 57t-47 -57v-799z" />
<glyph unicode="&#xf1;" horiz-adv-x="569" d="M20 1343q31 209 187 209q27 0 94.5 -22.5t97.5 -22.5q72 0 90 78h41q35 2 35 -2q-8 -80 -62.5 -138.5t-129.5 -58.5q-35 0 -101.5 20.5t-95.5 20.5q-68 0 -84 -84h-72zM41 0v1171h197v-67h4q43 82 135 82q100 0 131 -60q20 -39 20 -151v-975h-196v946q0 72 -43 72 q-51 0 -51 -72v-946h-197z" />
<glyph unicode="&#xf2;" horiz-adv-x="569" d="M41 182v807q0 98 76 152q66 45 168 45t168 -45q75 -54 75 -152v-807q0 -98 -75 -151q-66 -45 -168 -45t-168 45q-76 53 -76 151zM41 1561h147l138 -252h-80zM238 186q0 -57 47 -57t47 57v799q0 57 -47 57t-47 -57v-799z" />
<glyph unicode="&#xf3;" horiz-adv-x="569" d="M41 182v807q0 98 76 152q66 45 168 45t168 -45q75 -54 75 -152v-807q0 -98 -75 -151q-66 -45 -168 -45t-168 45q-76 53 -76 151zM238 186q0 -57 47 -57t47 57v799q0 57 -47 57t-47 -57v-799zM248 1311l135 252h145l-202 -252h-78z" />
<glyph unicode="&#xf4;" horiz-adv-x="569" d="M41 182v807q0 98 76 152q66 45 168 45t168 -45q75 -54 75 -152v-807q0 -98 -75 -151q-66 -45 -168 -45t-168 45q-76 53 -76 151zM92 1229l131 252h119l127 -252h-80l-104 164l-113 -164h-80zM238 186q0 -57 47 -57t47 57v799q0 57 -47 57t-47 -57v-799z" />
<glyph unicode="&#xf5;" horiz-adv-x="569" d="M41 182v807q0 98 76 152q66 45 168 45t168 -45q75 -54 75 -152v-807q0 -98 -75 -151q-66 -45 -168 -45t-168 45q-76 53 -76 151zM55 1292q70 158 187 148q20 -2 68 -24.5t71 -24.5q53 -4 82 55q2 -2 30.5 -4t28.5 -4q-23 -59 -75 -100.5t-113 -37.5q-16 2 -76 23 q-41 18 -65 23q-47 6 -82 -60zM238 186q0 -57 47 -57t47 57v799q0 57 -47 57t-47 -57v-799z" />
<glyph unicode="&#xf6;" horiz-adv-x="569" d="M41 182v807q0 90 65.5 143.5t178.5 53.5t178 -53.5t65 -143.5v-807q0 -90 -65.5 -143t-177.5 -53q-113 0 -178.5 53t-65.5 143zM49 1364v199h184v-199h-184zM238 186q0 -57 47 -57t47 57v799q0 57 -47 57t-47 -57v-799zM336 1364v199h184v-199h-184z" />
<glyph unicode="&#xf7;" horiz-adv-x="1024" d="M10 496v180h1004v-180h-1004zM360 158q0 63 46.5 109t111.5 46q61 0 108.5 -46t47.5 -109q0 -59 -47 -108.5t-107 -49.5q-66 0 -113 47.5t-47 110.5zM360 1014q0 66 47.5 111.5t110.5 45.5q61 0 108.5 -47t47.5 -110q0 -59 -47 -107.5t-107 -48.5q-66 0 -113 46.5 t-47 109.5z" />
<glyph unicode="&#xf8;" horiz-adv-x="569" d="M2 -74l59 170q-20 35 -20 86v807q0 90 65.5 143.5t178.5 53.5q86 0 147 -33l33 94h108l-63 -178q18 -37 18 -80v-807q0 -90 -65.5 -143t-177.5 -53q-88 0 -144 30l-30 -90h-109zM238 186q0 -57 47 -57t47 57v373h-4l-90 -270v-103zM238 598h4l90 268v119q0 57 -47 57 t-47 -57v-387z" />
<glyph unicode="&#xf9;" horiz-adv-x="569" d="M41 209v962h197v-946q0 -72 43 -71q51 0 51 71v946h196v-1171h-196v68h-4q-43 -82 -135 -82q-104 0 -134 65q-18 41 -18 158zM41 1501h147l138 -252h-80z" />
<glyph unicode="&#xfa;" horiz-adv-x="569" d="M41 209v962h197v-946q0 -72 43 -71q51 0 51 71v946h196v-1171h-196v68h-4q-43 -82 -135 -82q-104 0 -134 65q-18 41 -18 158zM248 1249l135 252h145l-202 -252h-78z" />
<glyph unicode="&#xfb;" horiz-adv-x="569" d="M24 1296l181 351h164l176 -351h-109l-147 228l-156 -228h-109zM41 209v962h197v-946q0 -72 43 -71q51 0 51 71v946h196v-1171h-196v68h-4q-43 -82 -135 -82q-104 0 -134 65q-18 39 -18 158z" />
<glyph unicode="&#xfc;" horiz-adv-x="569" d="M41 209v962h197v-946q0 -72 43 -71q51 0 51 71v946h196v-1171h-196v68h-4q-43 -82 -135 -82q-104 0 -134 65q-18 39 -18 158zM49 1364v199h184v-199h-184zM336 1364v199h184v-199h-184z" />
<glyph unicode="&#xfd;" horiz-adv-x="569" d="M8 1171h195l43 -389q18 -166 33 -524h8q4 135 30 483l48 430h194l-174 -1241q-18 -125 -55 -158.5t-162 -33.5h-64q-12 0 -34 2h-23v154h59q70 0 70 69q-4 41 -33 240zM248 1249l135 252h145l-202 -252h-78z" />
<glyph unicode="&#xfe;" horiz-adv-x="569" d="M41 -262v1720h197v-356h4q59 84 141 84q145 0 145 -137v-926q0 -137 -145 -137q-86 0 -141 88h-4v-336h-197zM238 225q0 -72 47 -71q47 -1 47 71v721q0 72 -47 72t-47 -72v-721z" />
<glyph unicode="&#xff;" horiz-adv-x="569" d="M8 1171h195l43 -389q18 -170 33 -524h8q6 166 30 483l48 430h194l-174 -1241q-18 -129 -55 -160.5t-162 -31.5h-64q-39 2 -57 2v154h59q70 0 70 69q0 4 -33 240zM49 1364v199h184v-199h-184zM336 1364v199h184v-199h-184z" />
<glyph unicode="&#x152;" horiz-adv-x="909" d="M55 262v938q0 133 75 210t206 77q25 0 119 -14.5t219 -14.5h231v-190h-282v-375h274v-191h-274v-512h282v-190h-243q-119 0 -196 -14.5t-136 -14.5q-274 0 -275 291zM272 266q0 -59 7 -78q14 -43 61 -43q74 1 66 97v942q0 72 -5 88q-12 41 -61 41q-74 0 -68 -72v-975z " />
<glyph unicode="&#x153;" horiz-adv-x="872" d="M47 213v731q0 115 58.5 178.5t164.5 63.5q98 0 162 -35q53 35 156 35q237 0 237 -244v-383h-290v-358q0 -72 47 -72t47 72v260h196v-271q0 -205 -264 -204q-82 0 -135 30q-55 -31 -150 -30q-229 0 -229 227zM244 201q0 -72 47 -72t47 72v770q0 72 -47 71q-47 1 -47 -71 v-770zM535 696h94v275q0 72 -47 71q-47 0 -47 -71v-275z" />
<glyph unicode="&#x178;" d="M8 1458h223l72 -317q20 -88 47 -316h4q10 195 37 305l78 328h203l-223 -903v-555h-218v545zM106 1612v199h184v-199h-184zM393 1612v199h184v-199h-184z" />
<glyph unicode="&#x2c6;" horiz-adv-x="303" d="M-109 1296l181 351h164l176 -351h-109l-147 228l-156 -228h-109z" />
<glyph unicode="&#x2dc;" horiz-adv-x="303" d="M-113 1343q31 209 187 209q27 0 94.5 -22.5t97.5 -22.5q72 0 90 78h41q35 2 35 -2q-8 -80 -62.5 -138.5t-129.5 -58.5q-35 0 -101.5 20.5t-95.5 20.5q-68 0 -84 -84h-72z" />
<glyph unicode="&#x2000;" horiz-adv-x="947" />
<glyph unicode="&#x2001;" horiz-adv-x="1895" />
<glyph unicode="&#x2002;" horiz-adv-x="947" />
<glyph unicode="&#x2003;" horiz-adv-x="1895" />
<glyph unicode="&#x2004;" horiz-adv-x="631" />
<glyph unicode="&#x2005;" horiz-adv-x="473" />
<glyph unicode="&#x2006;" horiz-adv-x="315" />
<glyph unicode="&#x2007;" horiz-adv-x="315" />
<glyph unicode="&#x2008;" horiz-adv-x="236" />
<glyph unicode="&#x2009;" horiz-adv-x="379" />
<glyph unicode="&#x200a;" horiz-adv-x="105" />
<glyph unicode="&#x2010;" horiz-adv-x="339" d="M41 541v147h260v-147h-260z" />
<glyph unicode="&#x2011;" horiz-adv-x="339" d="M41 541v147h260v-147h-260z" />
<glyph unicode="&#x2012;" horiz-adv-x="339" d="M41 541v147h260v-147h-260z" />
<glyph unicode="&#x2013;" horiz-adv-x="1024" d="M0 545v137h1024v-137h-1024z" />
<glyph unicode="&#x2014;" horiz-adv-x="2048" d="M0 545v137h2048v-137h-2048z" />
<glyph unicode="&#x2018;" horiz-adv-x="342" d="M27 1458h188l70 -428h-129z" />
<glyph unicode="&#x2019;" horiz-adv-x="342" d="M57 1030l70 428h188l-129 -428h-129z" />
<glyph unicode="&#x201a;" horiz-adv-x="342" d="M57 -201l70 428h188l-129 -428h-129z" />
<glyph unicode="&#x201c;" horiz-adv-x="645" d="M41 1458h188l70 -428h-129zM307 1458h189l69 -428h-129z" />
<glyph unicode="&#x201d;" horiz-adv-x="645" d="M80 1030l70 428h188l-129 -428h-129zM346 1030l70 428h188l-129 -428h-129z" />
<glyph unicode="&#x201e;" horiz-adv-x="645" d="M80 -201l70 428h188l-129 -428h-129zM346 -201l70 428h188l-129 -428h-129z" />
<glyph unicode="&#x2022;" horiz-adv-x="1024" d="M154 717q0 150 104 254t254 104t254 -104t104 -254t-104 -254.5t-254 -104.5t-254 104.5t-104 254.5z" />
<glyph unicode="&#x2026;" horiz-adv-x="2048" d="M238 0v227h204v-227h-204zM922 0v227h204v-227h-204zM1606 0v227h204v-227h-204z" />
<glyph unicode="&#x202f;" horiz-adv-x="379" />
<glyph unicode="&#x2039;" horiz-adv-x="378" d="M49 453v266l281 307v-250l-178 -190l178 -187v-260z" />
<glyph unicode="&#x203a;" horiz-adv-x="378" d="M49 139v260l178 187l-178 190v250l281 -307v-266z" />
<glyph unicode="&#x205f;" horiz-adv-x="473" />
<glyph unicode="&#x2122;" horiz-adv-x="2027" d="M104 1315v143h680v-143h-249v-701h-181v701h-250zM973 614v844h254l223 -575l219 575h254v-844h-168v643h-4l-240 -643h-127l-239 643h-4v-643h-168z" />
<glyph unicode="&#x25fc;" horiz-adv-x="1167" d="M0 0v1167h1167v-1167h-1167z" />
</font>
</defs>
</svg>
