<?xml version="1.0" standalone="no"?>
<!DOCTYPE svg PUBLIC "-//W3C//DTD SVG 1.1//EN" "http://www.w3.org/Graphics/SVG/1.1/DTD/svg11.dtd" >
<svg xmlns="http://www.w3.org/2000/svg">
<metadata></metadata>
<defs>
<font id="sfu_helveticacondensedbold" horiz-adv-x="1024" >
<font-face units-per-em="2048" ascent="1638" descent="-410" />
<missing-glyph horiz-adv-x="512" />
<glyph horiz-adv-x="0" />
<glyph unicode="&#xd;" horiz-adv-x="512" />
<glyph unicode=" "  horiz-adv-x="512" />
<glyph unicode="&#x09;" horiz-adv-x="512" />
<glyph unicode="&#xa0;" horiz-adv-x="512" />
<glyph unicode="!" horiz-adv-x="681" d="M207 1106v430h266v-430q0 -211 -12 -354q-10 -117 -31 -355h-174q-4 72 -31 355q-20 217 -18 354zM209 0v270h266v-270h-266z" />
<glyph unicode="&#x22;" horiz-adv-x="681" d="M33 958v555h243v-555h-243zM408 958v555h243v-555h-243z" />
<glyph unicode="#" d="M63 477v201h201l23 188h-172v201h194l56 444h170l-54 -444h150l53 444h176l-55 -444h156v-201h-181l-22 -188h153v-201h-176l-59 -477h-174l57 477h-147l-60 -477h-172l58 477h-175zM436 678h146l24 188h-147z" />
<glyph unicode="$" d="M70 455h245q2 -137 15 -176q24 -82 114 -105v457q-197 129 -251 196q-102 119 -103 308q0 147 80 245q92 113 268 136v129h140v-129q360 -43 342 -412h-238q0 86 -16 127q-25 59 -97 80v-408q379 -193 383 -473q2 -213 -86 -322.5t-288 -138.5v-223h-140v217 q-393 33 -368 492zM336 1157q0 -68 33 -123q18 -29 75 -90v367q-109 -16 -108 -154zM569 174q123 37 123 193q0 70 -43 137q-35 55 -80 84v-414z" />
<glyph unicode="%" horiz-adv-x="1705" d="M63 1133q0 182 48 260q67 114 266 114q201 0 270 -114q47 -76 47 -260t-47 -261q-70 -115 -270 -114q-199 0 -266 114q-47 78 -48 261zM260 1133q0 -123 16 -164q23 -61 105 -62q80 0 102 62q14 39 15 164q0 125 -15 163q-22 62 -102 62q-82 0 -105 -62q-16 -41 -16 -163 zM428 -31l688 1567h144l-687 -1567h-145zM1016 375q0 182 47 260q67 115 266 115q201 0 270 -115q45 -76 46 -260q0 -184 -46 -260q-70 -115 -270 -115q-199 0 -266 115q-47 78 -47 260zM1212 375q0 -125 15 -164q25 -61 104 -61q80 0 103 61q14 39 14 164t-14 164 q-23 61 -103 61t-104 -61q-14 -39 -15 -164z" />
<glyph unicode="&#x26;" horiz-adv-x="1366" d="M129 426q0 160 80 281q66 100 211 202q-121 209 -121 332q0 168 113 256q96 76 241 76q129 0 224 -84q100 -92 100 -236q-1 -240 -234 -383l193 -333q41 127 47 280h227q0 -285 -135 -516l185 -307h-308l-55 102q-139 -133 -358 -133q-176 0 -293 133t-117 330zM395 463 q0 -94 56 -176q61 -92 151 -92q92 0 186 84l-247 423q-45 -18 -92 -79q-53 -76 -54 -160zM545 1268q0 -45 30 -107q25 -51 52 -100q119 94 118 186q0 51 -30.5 85t-71.5 36q-98 4 -98 -100z" />
<glyph unicode="'" horiz-adv-x="512" d="M135 958v555h244v-555h-244z" />
<glyph unicode="(" horiz-adv-x="681" d="M106 623q1 540 300 950h165q-102 -199 -143 -399q-51 -246 -51 -635q0 -287 41 -486q43 -209 157 -459h-169q-172 291 -232 490q-68 221 -68 539z" />
<glyph unicode=")" horiz-adv-x="681" d="M106 1573h170q172 -291 232 -490q68 -221 67 -538q0 -541 -299 -951h-165q102 199 143 400q51 246 51 635q0 287 -41 485q-43 209 -158 459z" />
<glyph unicode="*" d="M162 1194l49 156l182 -58q12 -2 37 -12q-2 12 -2 41v190h164v-190q0 -25 -2 -37l43 14l176 60l55 -160l-184 -55q-27 -8 -37 -8q18 -18 29 -37l110 -154l-135 -98l-110 158q-10 14 -19 30q-6 -12 -24 -39l-111 -151l-135 96l112 156q6 10 23 28q-23 6 -41 13z" />
<glyph unicode="+" d="M53 397v226h346v385h226v-385h348v-226h-348v-397h-226v397h-346z" />
<glyph unicode="," horiz-adv-x="681" d="M207 0v270h270v-264q0 -270 -270 -303v90q72 8 109.5 65.5t33.5 141.5h-143z" />
<glyph unicode="-" horiz-adv-x="681" d="M98 522v236h488v-236h-488z" />
<glyph unicode="." horiz-adv-x="681" d="M207 0v270h270v-270h-270z" />
<glyph unicode="/" horiz-adv-x="569" d="M-23 -193l484 1729h178l-483 -1729h-179z" />
<glyph unicode="0" d="M98 412v690q0 440 416 440q414 0 414 -440v-690q0 -442 -416 -443q-414 1 -414 443zM385 412q0 -217 125 -217q131 0 131 217v690q0 215 -131 215q-125 0 -125 -215v-690z" />
<glyph unicode="1" d="M90 1065v205q350 4 422 266h211v-1536h-287v1065h-346z" />
<glyph unicode="2" d="M66 0q4 139 24 260q31 178 270 432l140 148q82 86 106 131q35 63 35 164q0 182 -137 182q-102 0 -133 -76q-18 -45 -23 -217h-268v43q0 190 53 289q98 188 383 186q184 -2 298 -108.5t114 -288.5q0 -231 -183 -420l-225 -233q-147 -154 -149 -267h534v-225h-839z" />
<glyph unicode="3" d="M57 420v90h269q8 -182 14 -205q31 -111 147 -110q104 0 136 92q18 51 18 198q0 123 -33 162q-51 62 -258 62v225q45 2 95.5 4t84.5 18q88 41 88 189q0 172 -137 172t-137 -121v-109h-268q-27 455 403 455q418 0 418 -395q0 -117 -45 -201q-53 -100 -156 -117v-4 q106 -12 168 -104q66 -98 64 -268q-4 -483 -447 -484q-424 0 -424 451z" />
<glyph unicode="4" d="M47 311v226l465 974h319v-974h132v-226h-132v-311h-286v311h-498zM258 537h287v622h-4z" />
<glyph unicode="5" d="M76 483h268q6 -150 14 -182q29 -100 129 -106q111 -6 144 100q14 45 20 221q6 172 -39 244q-39 59 -125 59q-55 0 -96 -31.5t-47 -80.5h-254l39 804h739v-225h-518l-18 -328q88 86 223 86q383 0 383 -530q0 -274 -90 -403q-100 -141 -334 -142q-252 0 -350 125 q-90 113 -88 389z" />
<glyph unicode="6" d="M86 553v369q0 354 109 493q98 127 335 127q178 0 277 -82q109 -90 102 -264h-266q-6 129 -123 121q-104 -8 -137 -113q-14 -51 -14 -174v-98q49 51 80 69q57 33 145 33q346 0 346 -481q0 -303 -88 -436q-96 -147 -336 -148q-244 0 -344 156q-86 135 -86 428zM373 532 q-2 -186 16 -243q29 -100 131 -94q100 6 123 98q10 43 10 239q0 137 -12 181q-27 96 -127 96q-94 0 -123 -90q-18 -54 -18 -187z" />
<glyph unicode="7" d="M66 1286v225h864v-206q-178 -315 -287 -744q-80 -313 -90 -561h-295q27 391 244 938q82 207 176 348h-612z" />
<glyph unicode="8" d="M84 434q0 168 48 256t167 141q-98 53 -135 121q-45 80 -45 236q0 141 90 239q106 115 307 115q209 0 303 -100q88 -94 88 -295q0 -129 -39 -197q-43 -78 -155 -125q127 -29 178 -122t51 -267q0 -467 -420 -467q-238 0 -342 117q-96 109 -96 348zM371 426q0 -119 20 -162 q29 -68 125 -69q94 6 123 84q16 47 16 172q0 137 -20 190q-31 80 -123 80q-100 0 -127 -84q-14 -47 -14 -211zM385 1124q0 -198 129 -198q82 0 111 75q16 45 16 144q0 172 -123 172q-133 0 -133 -193z" />
<glyph unicode="9" d="M86 958q0 303 88 437q98 147 338 147q242 0 342 -156q86 -135 86 -428v-368q0 -354 -106 -494q-98 -127 -336 -127q-178 0 -277 82q-109 90 -102 264h266q4 -123 125 -120q104 2 135 110q14 49 14 176v99q-49 -51 -79 -70q-57 -33 -146 -33q-348 0 -348 481zM373 979 q0 -137 12 -180q27 -96 127 -97q94 0 123 91q18 53 18 186q2 186 -16 244q-29 100 -131 94q-100 -6 -123 -98q-10 -43 -10 -240z" />
<glyph unicode=":" horiz-adv-x="569" d="M150 0v270h270v-270h-270zM150 868v271h270v-271h-270z" />
<glyph unicode=";" horiz-adv-x="569" d="M150 0v270h270v-264q0 -270 -270 -303v90q72 8 109.5 65.5t33.5 141.5h-143zM150 868v271h270v-271h-270z" />
<glyph unicode="&#x3c;" d="M86 412v202l854 465v-227l-608 -342l608 -332v-227z" />
<glyph unicode="=" d="M53 197v225h920v-225h-920zM53 596v225h920v-225h-920z" />
<glyph unicode="&#x3e;" d="M86 -49v227l608 332l-608 342v227l854 -465v-202z" />
<glyph unicode="?" d="M106 1133q-25 440 400 440q182 0 288.5 -102.5t106.5 -278.5q0 -109 -35 -191q-29 -66 -106 -163q-59 -61 -142 -156q-74 -84 -73 -270h-240q-2 39 6 141q10 123 80 225q74 92 148 187q47 63 63 107t16 122q0 166 -116 166q-88 0 -115 -47q-18 -35 -21.5 -85t-5.5 -95 h-254zM301 0v266h260v-266h-260z" />
<glyph unicode="@" horiz-adv-x="1705" d="M78 774q0 340 235.5 569.5t577.5 229.5q297 0 500 -172q238 -201 237 -475q0 -268 -164 -437q-66 -68 -170 -120q-113 -59 -198 -60q-35 0 -62.5 28t-27.5 75q0 14 4 30q-137 -125 -256 -125q-158 0 -254 111q-92 104 -92 266q0 197 118 338q125 150 316 150 q172 0 260 -125l22 108h201l-108 -630q-4 -27 8 -38.5t32 -4.5q61 18 140 131q68 96 71 243q6 256 -156.5 405.5t-426.5 149.5q-283 0 -465 -182t-182 -465q0 -293 194.5 -476t487.5 -183q212 0 419 188h197q-246 -340 -633 -340q-346 0 -585.5 232.5t-239.5 578.5zM633 731 q-6 -94 37 -156q47 -70 137 -69q94 0 160 86q57 74 65 166q8 100 -31 166q-47 76 -137 67q-94 -8 -159.5 -84t-71.5 -176z" />
<glyph unicode="A" horiz-adv-x="1138" d="M18 0l367 1536h387l348 -1536h-307l-76 389h-336l-75 -389h-308zM446 614h246l-78 437q-18 100 -28 213q-2 35 -11 102h-4q-8 -104 -39 -315z" />
<glyph unicode="B" horiz-adv-x="1138" d="M133 0v1536h463q238 0 326 -113q76 -96 75 -276q0 -254 -184 -322v-4q223 -31 223 -356q0 -121 -20 -189q-45 -145 -134 -210.5t-243 -65.5h-506zM420 225h61q135 0 172 17q88 39 88 213q0 131 -39 180q-45 55 -172 55h-110v-465zM420 915h53q166 0 205 54q31 41 31 166 q0 94 -29 131q-35 45 -127 45h-133v-396z" />
<glyph unicode="C" horiz-adv-x="1138" d="M113 672v219q0 348 80 489q108 193 415 193h6q387 -2 420 -397q6 -74 6 -104v-13h-282q-20 172 -23 178q-31 104 -121 104q-145 0 -188 -149q-18 -66 -18 -238v-426q0 -333 205 -333h1q100 0 129 139q5 18 17 213h289q-2 -29 -7 -88q-12 -233 -100 -353 q-104 -143 -328 -143q-322 0 -428 201q-73 139 -73 498v10z" />
<glyph unicode="D" horiz-adv-x="1251" d="M147 0v1536h598q121 0 213.5 -78t126.5 -196q41 -137 41 -431q0 -315 -28 -456q-51 -244 -207 -334q-70 -41 -213 -41h-531zM434 225h125q182 0 232 123q40 98 40 440v17q0 283 -38 389q-45 117 -170 117h-189v-1086z" />
<glyph unicode="E" d="M131 0v1536h807v-225h-520v-387h479v-226h-479v-473h520v-225h-807z" />
<glyph unicode="F" d="M150 0v1536h813v-225h-527v-389h494v-226h-494v-696h-286z" />
<glyph unicode="G" horiz-adv-x="1251" d="M113 672v219q0 348 80 487q106 195 421 195q199 0 310 -66q127 -78 172 -266q10 -39 14 -186h-287q-4 145 -32 200q-45 84 -177 86h-4q-142 0 -184 -147q-18 -66 -18 -240v-426q0 -333 205 -333h1q211 0 211 371v34h-198v225h477v-825h-215v176h-4q-76 -211 -271 -213 h-12q-312 0 -416 199q-73 141 -73 510z" />
<glyph unicode="H" horiz-adv-x="1251" d="M139 0v1536h287v-608h401v608h287v-1536h-287v702h-401v-702h-287z" />
<glyph unicode="I" horiz-adv-x="569" d="M141 0v1536h287v-1536h-287z" />
<glyph unicode="J" horiz-adv-x="909" d="M14 408q0 40 2 79h287v-190q0 -102 92 -102q70 0 90 49q14 31 15 112v1180h286v-1120q0 -129 -8 -178q-16 -111 -76 -175q-94 -100 -350 -100q-193 0 -295 158q-43 68 -43 287z" />
<glyph unicode="K" horiz-adv-x="1138" d="M139 0v1536h287v-682h4q39 106 180 369l168 313h324l-379 -659l397 -877h-323l-271 606l-100 -166v-440h-287z" />
<glyph unicode="L" d="M139 0v1536h287v-1311h532v-225h-819z" />
<glyph unicode="M" horiz-adv-x="1593" d="M137 0v1536h457l154 -713q33 -147 53 -354h4q12 127 45 354l154 713h454v-1536h-287v483q0 508 25 916h-4l-307 -1399h-174l-301 1399h-11q25 -408 25 -916v-483h-287z" />
<glyph unicode="N" horiz-adv-x="1251" d="M139 0v1536h297l223 -559q115 -289 205 -610h4q-43 585 -43 868v301h287v-1536h-299l-223 547q-109 266 -205 610h-4q45 -559 45 -868v-289h-287z" />
<glyph unicode="O" horiz-adv-x="1251" d="M125 672v219q0 346 80 487q109 195 422 195t424 -195q77 -139 77 -478v-9v-219q0 -367 -73 -508q-106 -201 -428 -201t-428 201q-74 141 -74 508zM420 528q0 -333 206 -333h1q135 0 180 124q27 72 27 234v393q0 166 -23 244q-47 151 -182 151h-2q-145 0 -189 -149 q-18 -66 -18 -238v-426z" />
<glyph unicode="P" horiz-adv-x="1138" d="M139 0v1536h586q190 0 283 -137q76 -113 75 -299q0 -250 -143 -365q-117 -92 -322 -92h-192v-643h-287zM426 868h154q208 0 208 238q0 127 -55 170q-47 35 -176 35h-131v-443z" />
<glyph unicode="Q" horiz-adv-x="1251" d="M125 672v219q0 346 80 487q109 195 422 195t424 -195q77 -139 77 -478v-9v-219q0 -389 -84 -525l158 -157l-145 -135l-160 155q-94 -47 -270 -47q-322 0 -428 201q-74 141 -74 508zM420 528q0 -333 206 -333h1q39 0 73 10l-55 53l156 131l14 -14q16 74 16 153l3 426 q0 170 -19 238q-43 149 -186 149h-2q-145 0 -189 -149q-18 -66 -18 -238v-426z" />
<glyph unicode="R" horiz-adv-x="1251" d="M135 0v1536h543q436 0 436 -369q0 -338 -235 -370v-4q221 -29 221 -279q0 -446 61 -485v-29h-315q-25 68 -31 389q-2 109 -12 152q-23 82 -86 100q-70 21 -244 21h-51v-662h-287zM422 887h225q168 0 168 221q0 121 -49 166q-41 37 -131 37h-213v-424z" />
<glyph unicode="S" horiz-adv-x="1138" d="M100 430v113h287v-90q0 -258 180 -258q178 0 178 180q0 117 -114 203q-121 80 -240 161q-143 98 -215 195.5t-72 232.5q0 406 451 406q295 0 393 -195q51 -98 53 -309h-276v18q0 111 -23 164q-37 90 -145 90q-158 0 -158 -143q0 -78 47 -131q31 -33 117 -88 q256 -162 348 -252q129 -127 129 -321q0 -213 -128 -328t-345 -115q-467 0 -467 467z" />
<glyph unicode="T" d="M35 1311v225h956v-225h-334v-1311h-286v1311h-336z" />
<glyph unicode="U" horiz-adv-x="1251" d="M139 465v1071h287v-1047q0 -141 29 -202q45 -92 176 -92q125 0 168 92q28 61 28 202v1047h287v-1071q0 -264 -102 -379q-111 -123 -383 -123q-274 0 -387 123q-102 115 -103 379z" />
<glyph unicode="V" horiz-adv-x="1138" d="M43 1536h307l180 -985q20 -113 35 -262q12 -129 13 -127h4q0 -2 12 127q12 119 35 262l162 985h307l-332 -1536h-383z" />
<glyph unicode="W" horiz-adv-x="1705" d="M49 1536h297l129 -838q37 -236 51 -503h4q18 197 66 546l139 795h238l153 -795q14 -74 64 -546h4q14 168 53 503l115 838h297l-285 -1536h-344l-115 606q-18 96 -34 244q-12 123 -27 246h-4q-16 -164 -62 -490l-102 -606h-344z" />
<glyph unicode="X" horiz-adv-x="1138" d="M23 0l376 778l-362 758h321l156 -348q53 -119 55 -193h6q6 74 95 281l110 260h324l-369 -758l381 -778h-328l-163 375q-41 94 -60 194h-4q-10 -92 -98 -286l-127 -283h-313z" />
<glyph unicode="Y" horiz-adv-x="1138" d="M25 1536h313l162 -403q51 -129 67 -236h4q16 92 95 291l137 348h313l-405 -883v-653h-287v653z" />
<glyph unicode="Z" d="M68 0v229l493 953q23 47 80 135q-37 -6 -111 -6h-430v225h840v-229l-494 -953q-23 -45 -79 -135q37 6 110 6h481v-225h-890z" />
<glyph unicode="[" horiz-adv-x="681" d="M166 -193v1729h407v-156h-182v-1417h182v-156h-407z" />
<glyph unicode="\" horiz-adv-x="512" d="M-182 1536h217l661 -1536h-217z" />
<glyph unicode="]" horiz-adv-x="681" d="M109 -37h182v1417h-182v156h407v-1729h-407v156z" />
<glyph unicode="^" d="M20 764l369 772h246l369 -772l-213 -96l-279 571l-279 -571z" />
<glyph unicode="_" d="M0 -125h1024v-119h-1024v119z" />
<glyph unicode="`" horiz-adv-x="681" d="M2 1587h317l193 -299h-207z" />
<glyph unicode="a" d="M86 315q0 176 119 275q66 51 276 139q137 57 137 148q0 20 -6 45q-14 59 -125 59q-84 0 -114 -45q-25 -34 -25 -111v-12h-254v9q0 175 76 259q94 104 328 105q242 0 325 -115q55 -72 56 -227v-682v-7q0 -75 22 -155h-252q-18 36 -18 87q0 15 2 32h-4q-96 -150 -234 -150 q-160 0 -234.5 84t-74.5 262zM352 322q0 -147 125 -148q102 0 127 113q8 38 8 196v125q-74 -45 -215 -147q-45 -37 -45 -139z" />
<glyph unicode="b" d="M131 0v1536h266v-369q0 -20 -2 -57q-4 -49 -4 -72h4q72 148 230 148h8q139 -2 203 -88q73 -95 73 -316v-6v-418q0 -389 -270 -389h-6q-166 2 -244 154h-4v-123h-254zM397 379q0 -205 129 -205q117 0 117 199v385q0 117 -14 155q-23 68 -107 68q-125 0 -125 -256v-346z " />
<glyph unicode="c" horiz-adv-x="909" d="M98 401v375q0 410 361 410q186 0 282 -105q82 -90 82 -235v-92h-266v129q0 98 -92 98q-70 0 -88 -76q-12 -45 -12 -182v-272q0 -139 4 -166q18 -100 96 -111q55 2 74 51q10 27 18 119v107h266v-107q0 -375 -364 -375q-360 0 -361 432z" />
<glyph unicode="d" d="M109 358v418q0 225 73 322q66 86 205 88h8q158 0 230 -148h4q-8 47 -8 103v395h266v-1536h-266v123h-5q-66 -152 -229 -154h-8q-271 0 -270 389zM375 373q0 -199 117 -199q129 0 129 205v346q0 256 -125 256q-84 0 -107 -68q-14 -39 -14 -155v-385z" />
<glyph unicode="e" d="M106 455v303q0 428 390 428q256 0 344 -135q65 -100 65 -365v-8v-156h-532v-168q0 -180 139 -180q72 0 100 52q24 46 24 138q0 13 -1 27h266q1 -17 1 -33q0 -389 -370 -389q-229 0 -327.5 115t-98.5 371zM373 727h266v100q0 88 -29.5 121t-109.5 33q-88 0 -113 -63 q-14 -35 -14 -144v-47z" />
<glyph unicode="f" horiz-adv-x="569" d="M43 961v194h102v115q0 152 68 211q61 55 213 55h100v-213q-41 12 -59 12q-55 0 -55 -45v-135h114v-194h-114v-961h-267v961h-102z" />
<glyph unicode="g" d="M109 356v418q0 227 73 324q66 86 203 88h9q170 0 222 -150h5v119h266v-1120q0 -203 -78 -301q-100 -123 -352 -123q-318 0 -336 260h266q0 -68 113 -68q133 0 133 181v133l-4 4q-72 -147 -244 -152h-6q-270 0 -270 387zM375 373q0 -199 117 -199q129 0 129 205v346 q0 256 -125 256q-84 0 -107 -68q-14 -39 -14 -155v-385z" />
<glyph unicode="h" d="M125 0v1536h266v-500h4q84 150 240 150q121 0 190 -70q76 -78 76 -225v-891h-266v791q0 96 -19 135q-25 53 -94 55h-7q-124 0 -124 -213v-768h-266z" />
<glyph unicode="i" horiz-adv-x="569" d="M152 0v1155h266v-1155h-266zM152 1294v242h266v-242h-266z" />
<glyph unicode="j" horiz-adv-x="569" d="M63 -184h15q83 0 84 61v1278h266v-1161q0 -172 -6 -205q-18 -121 -103 -160q-49 -23 -150 -23q-47 0 -106 5v205zM162 1294v242h266v-242h-266z" />
<glyph unicode="k" horiz-adv-x="909" d="M98 0v1536h267v-694q0 -47 -5 -146h5l251 459h291l-291 -465l283 -690h-297l-166 471l-71 -119v-352h-267z" />
<glyph unicode="l" horiz-adv-x="569" d="M152 0v1536h266v-1536h-266z" />
<glyph unicode="m" horiz-adv-x="1593" d="M135 0v1155h266v-119h5q68 143 253 150h9q79 0 145 -33q82 -41 94 -117q80 150 269 150q139 0 215 -76q68 -68 67 -170v-940h-266v780q0 98 -21 142q-27 59 -97 59h-9q-88 -4 -117 -76q-18 -43 -18 -145v-760h-266v795q0 94 -19 133q-28 53 -107 53h-6q-86 -2 -112 -63 q-18 -43 -19 -158v-760h-266z" />
<glyph unicode="n" d="M125 0v1155h266v-119h4q68 150 240 150q121 0 190 -70q76 -78 76 -225v-891h-266v770q0 96 -19 135q-25 53 -94 56h-7q-124 0 -124 -213v-748h-266z" />
<glyph unicode="o" d="M109 537q2 358 53 473q82 176 354 176q268 0 348 -176q49 -113 51 -473v-17q0 -305 -69 -418q-84 -133 -330 -133q-252 0 -336 133q-71 111 -71 410v25zM375 377q0 -117 22 -154q29 -49 119 -49q86 0 113 49q20 37 20 154v385q0 109 -16 149q-29 70 -117 70 q-94 0 -123 -70q-18 -40 -18 -149v-385z" />
<glyph unicode="p" d="M119 -387v1542h266v-121h4q66 152 224 152h8q137 -2 202 -90q74 -96 74 -324v-418q0 -385 -268 -385h-8q-162 2 -244 150h-4v-506h-254zM385 379q0 -205 129 -205q117 0 117 199v385q0 117 -15 155q-23 68 -106 68q-125 0 -125 -256v-346z" />
<glyph unicode="q" d="M102 358v418q0 225 74 322q63 86 203 88h8q160 0 223 -148h4v117h267v-1540h-267v508h-4q-68 -152 -231 -154h-6q-270 0 -271 389zM369 373q0 -199 116 -199q129 0 129 205v346q0 256 -125 256q-84 0 -106 -68q-14 -39 -14 -155v-385z" />
<glyph unicode="r" horiz-adv-x="681" d="M123 0v1155h256v-205h4q45 113 104 164q68 55 166 62v-316q-29 2 -55 2q-209 0 -209 -194v-668h-266z" />
<glyph unicode="s" horiz-adv-x="909" d="M55 326q0 26 2 55h267q-4 -33 -5 -62q0 -98 43 -129q23 -16 84 -16q49 0 82 28.5t33 71.5q0 14 -4 29q-2 41 -47 80q-43 29 -84 57l-145 101q-219 152 -220 364q0 133 103.5 207t294.5 74q370 0 370 -362v-21h-266v20q0 158 -123 158q-112 0 -112 -92q0 -68 100 -135 l217 -148q59 -39 113 -100q63 -74 69 -127q4 -41 4 -76q0 -334 -399 -334q-141 0 -239 66q-137 90 -138 291z" />
<glyph unicode="t" horiz-adv-x="569" d="M29 961v194h106v318h268v-318h113v-194h-113v-717q6 -41 76 -41q17 0 37 2v-209q-82 -10 -135 -10q-244 0 -244 192v783h-108z" />
<glyph unicode="u" d="M119 270v885h266v-790q0 -113 27 -154q35 -37 82 -37q82 0 108 82q14 45 14 150v749h267v-1155h-254v172h-4q-59 -201 -248 -203q-150 0 -209 78q-49 68 -49 223z" />
<glyph unicode="v" horiz-adv-x="909" d="M20 1155h287l113 -647q20 -115 37 -342h4q16 229 37 342l114 647h277l-266 -1155h-332z" />
<glyph unicode="w" horiz-adv-x="1366" d="M23 1155h280l94 -704q23 -168 23 -256h4q6 111 27 247l110 713h219l129 -709q20 -109 27 -247h6q0 78 23 256l88 700h268l-234 -1155h-290l-88 467q-18 100 -35 291h-8q-6 -160 -27 -275l-82 -483h-297z" />
<glyph unicode="x" horiz-adv-x="909" d="M16 0l306 590l-291 565h313l88 -209q12 -35 29 -104h4q6 31 33 108l94 205h295l-289 -559l295 -596h-299l-80 186q-43 102 -53 170h-4q-12 -76 -60 -184l-75 -172h-306z" />
<glyph unicode="y" horiz-adv-x="909" d="M10 1155h281l117 -612q16 -90 38 -307h5q12 143 41 299l116 620h271l-281 -1171q-53 -225 -86 -279q-66 -104 -231 -104q-55 0 -125 10v207q6 0 30.5 -2t38.5 -2q88 0 88 55q0 47 -24 147z" />
<glyph unicode="z" horiz-adv-x="796" d="M47 0v209l406 741h-398v205h697v-190l-422 -760h422v-205h-705z" />
<glyph unicode="{" horiz-adv-x="561" d="M-66 666v4q154 20 154 223v377q0 137 57.5 201.5t194.5 64.5h152v-4q-88 -20 -125 -80q-29 -51 -29 -145v-377q0 -117 -31 -172q-39 -63 -137 -86v-4q168 -25 168 -277v-352q0 -184 154 -223v-4h-134q-158 0 -217 75q-53 66 -53 228v331q0 180 -154 220z" />
<glyph unicode="|" horiz-adv-x="512" d="M154 0v1536h204v-1536h-204z" />
<glyph unicode="}" horiz-adv-x="561" d="M70 -188q154 35 153 225v350q0 117 27 172q37 74 141 105v4q-98 23 -135 88q-33 55 -33 170v379q0 195 -153 225v6h139q143 0 203.5 -62.5t60.5 -207.5v-375q0 -203 154 -223v-4q-94 -12 -129 -74q-25 -47 -25 -148v-331q0 -164 -51 -230q-57 -74 -213 -74h-139v5z" />
<glyph unicode="~" d="M53 465q125 254 273 254q72 0 209 -67.5t174 -67.5q49 0 88 53q30 49 59 98l117 -149q-70 -123 -105 -162q-72 -78 -159 -78q-68 0 -211.5 67.5t-169.5 67.5q-53 0 -97 -57q-10 -14 -61 -111z" />
<glyph horiz-adv-x="1019" d="M-84 535l43 96h115q6 51 24 149h-135l43 99h121q84 229 221 374q170 180 383 181q193 -1 338 -138l-47 -319l-98 12q0 322 -193 322q-211 0 -330 -432h353l-43 -99h-336q-12 -49 -33 -149h301l-43 -96h-274q-12 -84 -13 -152q0 -115 43 -186q53 -88 160 -88 q119 0 207 139q49 78 104 244l113 -21l-111 -385q-158 -109 -325 -109q-227 0 -340 173q-96 145 -96 385h-152z" />
<glyph unicode="&#xa1;" horiz-adv-x="681" d="M209 82q0 211 12 354q12 119 31 355h180q2 -76 27 -355q16 -190 16 -354v-430h-266v430zM209 915v271h266v-271h-266z" />
<glyph unicode="&#xa2;" d="M147 397v375q0 207 107 322q90 96 219 96q45 0 84 -12l35 196h143l-43 -225q184 -82 185 -307v-92h-267v161h-6l-125 -702q37 -37 103 -4q29 37 28 135v106h267q2 -74 -7 -165q-14 -147 -104 -232.5t-227 -85.5q-45 0 -90 8l-41 -221h-142l49 258q-168 86 -168 389z M397 281h4l115 680l-18 2q-70 0 -88 -74q-13 -45 -13 -180v-428z" />
<glyph unicode="&#xa3;" d="M72 162q100 55 156.5 159.5t56.5 225.5q0 86 -33 143h-176v121h129q-94 150 -94 340q0 201 133 315q125 106 325 107q258 0 363 -195q41 -76 41 -288h-262q-2 133 -21 178q-33 80 -141 80q-170 0 -170 -218q0 -94 94 -319h299v-121h-254q18 -47 19 -121q0 -227 -248 -389 l2 -2l4 -2q111 61 199 64q47 2 133 -15q55 -12 112 -22q90 -14 201 63l57 -223q-109 -74 -258 -74q-66 0 -188.5 33t-185.5 33q-94 0 -220 -66z" />
<glyph unicode="&#xa4;" d="M18 281l86 90q-72 133 -71 262q0 141 71 264l-86 86l156 164l86 -88q127 78 252 78q137 0 260 -78l88 88l148 -164l-84 -86q74 -123 73 -262q0 -156 -73 -264l84 -90l-148 -162l-88 88q-129 -78 -252 -78q-141 0 -260 78l-86 -88zM274 635q0 -102 72 -183t170 -81 q100 0 170 80.5t70 183.5q0 102 -70 181t-170 79t-171 -79t-71 -181z" />
<glyph unicode="&#xa5;" d="M-37 1536h320l161 -403q51 -125 70 -236h4q18 111 70 236l162 403h311l-406 -883v-123h222v-102h-222v-125h222v-102h-222v-201h-286v201h-230v102h230v125h-230v102h230v123z" />
<glyph unicode="&#xa6;" horiz-adv-x="512" d="M154 0v614h204v-614h-204zM154 922v614h204v-614h-204z" />
<glyph unicode="&#xa7;" d="M76 688q0 201 176 297q-104 76 -105 256q0 133 95 225q106 106 295 107q172 0 271 -96.5t89 -264.5h-252q14 156 -129 156q-119 0 -119 -113q0 -84 95 -157l280 -221q176 -139 176 -318q0 -197 -170 -301q47 -33 82 -117t35 -157q0 -156 -121 -257.5t-280 -101.5 q-295 0 -369 252q-10 33 -14 148h256q-4 -190 149 -191q53 0 89 39t36 92q0 84 -123 180l-244 191q-111 86 -149 147q-49 78 -49 205zM309 723q0 -74 68 -129l252 -205q78 43 78 129q0 69 -82 137l-234 191q-82 -37 -82 -123z" />
<glyph unicode="&#xa8;" horiz-adv-x="681" d="M10 1319v235h260v-235h-260zM410 1319v235h262v-235h-262z" />
<glyph unicode="&#xa9;" horiz-adv-x="1699" d="M45 772q0 334 235.5 567.5t571.5 233.5q334 0 568.5 -233.5t234.5 -567.5q0 -336 -234.5 -572.5t-568.5 -236.5q-336 0 -571.5 236.5t-235.5 572.5zM197 772q0 -272 191.5 -463.5t463.5 -191.5q268 0 459.5 192.5t191.5 462.5q0 268 -191.5 458.5t-459.5 190.5 q-272 0 -463.5 -190.5t-191.5 -458.5zM440 778q0 203 120 333t321 130q147 0 250.5 -81t130.5 -224h-183q-29 158 -200 158q-123 0 -193 -97q-66 -86 -65 -215q0 -125 69 -219q76 -102 195 -102q76 0 133 47t61 119h183q-16 -141 -124 -227.5t-253 -86.5q-199 0 -322 133.5 t-123 331.5z" />
<glyph unicode="&#xaa;" horiz-adv-x="614" d="M41 596v129h532v-129h-532zM45 1051q0 104 78 163q41 31 178 84q90 35 90 88q0 14 -4 29q-10 43 -82 43q-90 1 -90 -108h-164q-2 109 49 161q61 61 213 62q156 0 213 -68q35 -45 35 -137v-410q0 -53 14 -96h-163q-16 29 -11 70h-4q-49 -88 -151 -88q-201 0 -201 207z M219 1055q0 -90 80 -90q66 0 82 67q6 25 6 119v76q-66 -41 -133 -82q-35 -29 -35 -90z" />
<glyph unicode="&#xab;" d="M152 418v209l321 288v-229l-192 -162l192 -166v-231zM532 418v209l326 288v-229l-196 -162l196 -166v-231z" />
<glyph unicode="&#xac;" d="M53 596v225h920v-606h-225v381h-695z" />
<glyph unicode="&#xad;" horiz-adv-x="692" d="M16 356l68 250h504l-68 -250h-504z" />
<glyph unicode="&#xae;" horiz-adv-x="1699" d="M45 770q0 332 236.5 567.5t570.5 235.5q332 0 567.5 -235.5t235.5 -567.5q0 -334 -235.5 -570.5t-567.5 -236.5q-334 0 -570.5 236.5t-236.5 570.5zM197 770q0 -272 191.5 -463.5t463.5 -191.5q270 0 460.5 191.5t190.5 463.5q0 270 -190.5 460.5t-460.5 190.5 q-272 0 -463.5 -190.5t-191.5 -460.5zM520 330v870h420q168 0 236 -43q102 -66 102 -225q0 -218 -238 -234l211 -368h-198l-193 368h-170v-368h-170zM690 827h254q80 0 117 23q47 31 47 108q0 74 -72 99q-41 14 -135 14h-211v-244z" />
<glyph unicode="&#xaf;" horiz-adv-x="681" d="M-12 1364v152h708v-152h-708z" />
<glyph unicode="&#xb0;" horiz-adv-x="819" d="M102 1229q0 127 90.5 217t217.5 90t217 -90t90 -217t-90 -217t-217 -90t-217.5 90t-90.5 217zM264 1229q0 -61 43 -103.5t105 -42.5q59 0 101 42t42 104q0 59 -42 102t-103 43q-59 0 -102.5 -43t-43.5 -102z" />
<glyph unicode="&#xb1;" d="M53 -31v226h920v-226h-920zM53 551v225h346v275h226v-275h348v-225h-348v-275h-226v275h-346z" />
<glyph unicode="&#xb2;" horiz-adv-x="614" d="M27 614q4 96 16 156q20 109 176 260l90 88q53 51 68 78q25 39 24 98q0 111 -90 111q-68 0 -86 -45q-14 -35 -14 -131h-174v26q0 113 33 175q66 113 249 110q121 -2 195 -66.5t74 -173.5q0 -138 -119 -251l-147 -140q-94 -88 -97 -159h348v-136h-546z" />
<glyph unicode="&#xb3;" horiz-adv-x="614" d="M25 864v54h174q6 -109 10 -123q18 -66 94 -66q70 0 90 55q10 29 10 119q0 76 -20 98q-35 37 -168 37v136q41 -2 117 12q57 25 57 112q0 104 -88 105q-90 0 -90 -74v-63h-174q-12 272 262 272q270 0 270 -238q0 -172 -129 -190v-4q152 -14 150 -221q-4 -291 -289 -291 q-276 0 -276 270z" />
<glyph unicode="&#xb4;" horiz-adv-x="681" d="M170 1288l192 299h318l-303 -299h-207z" />
<glyph unicode="&#xb6;" horiz-adv-x="1126" d="M47 1171q0 199 109 287q98 78 301 78h620v-242h-86v-1532h-241v1532h-140v-1532h-241v1059q-156 0 -239 96.5t-83 253.5z" />
<glyph unicode="&#xb7;" horiz-adv-x="681" d="M207 375h270v270h-270v-270z" />
<glyph unicode="&#xb8;" horiz-adv-x="681" d="M80 -416l39 86q104 -33 176 -32q37 0 66.5 28.5t23.5 65.5q-10 39 -41 49q-47 25 -133 -6l-43 41l121 184h108l-86 -129q31 12 68 12q90 0 139 -49q45 -35 45 -108q0 -43 -26 -95q-78 -100 -232 -100q-59 0 -225 53z" />
<glyph unicode="&#xb9;" horiz-adv-x="614" d="M102 1253v123q227 4 275 160h137v-922h-186v639h-226z" />
<glyph unicode="&#xba;" horiz-adv-x="614" d="M45 596v129h522v-129h-522zM45 1184q0 215 35 284q51 105 227 105t228 -105q35 -70 34 -284q0 -190 -45 -260q-55 -80 -215 -80q-162 0 -217 80q-47 70 -47 260zM217 1096q0 -63 10 -88q18 -41 78 -41q59 0 80 41q10 25 10 88v231q0 70 -16.5 96.5t-73.5 26.5 t-72.5 -25.5t-15.5 -97.5v-231z" />
<glyph unicode="&#xbb;" d="M166 127v231l196 174l-196 154v229l326 -288v-209zM551 127v231l194 174l-194 154v229l321 -288v-209z" />
<glyph unicode="&#xbc;" horiz-adv-x="1536" d="M41 1253v123q227 4 274 160h138v-922h-187v639h-225zM268 0l871 1511h153l-870 -1511h-154zM897 186v136l303 585h207v-585h86v-136h-86v-186h-186v186h-324zM1034 322h187v374h-4z" />
<glyph unicode="&#xbd;" horiz-adv-x="1536" d="M25 1253v123q227 4 274 160h137v-922h-186v639h-225zM221 0l871 1511h153l-870 -1511h-154zM952 0q4 96 17 156q20 109 176 260l90 88q53 51 68 78q25 39 24 98q0 111 -90 111q-68 0 -86 -46q-14 -35 -14 -131h-174v27q0 113 32 174q66 113 250 111q121 -2 194.5 -66.5 t73.5 -173.5q1 -139 -118 -252l-148 -139q-94 -88 -96 -160h348v-135h-547z" />
<glyph unicode="&#xbe;" horiz-adv-x="1536" d="M25 864v54h174q6 -109 10 -123q18 -66 94 -66q70 0 90 55q10 29 10 119q0 76 -20 98q-35 37 -168 37v136q41 -2 117 12q57 25 57 112q0 104 -88 105q-90 0 -90 -74v-63h-174q-12 272 262 272q270 0 270 -238q0 -172 -129 -190v-4q152 -14 150 -221q-4 -291 -289 -291 q-276 0 -276 270zM326 0l870 1511h154l-871 -1511h-153zM918 186v136l303 585h206v-585h86v-136h-86v-186h-186v186h-323zM1055 322h186v374h-4z" />
<glyph unicode="&#xbf;" d="M123 -8q0 111 35 190q29 66 106 164q59 61 142 156q74 84 73 270h240q2 -39 -6 -141q-10 -123 -80 -225q-74 -92 -148 -187q-47 -63 -61 -104q-18 -47 -18 -125q0 -166 116 -166q88 0 115 47q18 35 22 88q3 47 5 92h254q25 -440 -400 -440q-182 0 -288.5 102.5 t-106.5 278.5zM461 922v264h262v-264h-262z" />
<glyph unicode="&#xc0;" horiz-adv-x="1138" d="M18 0l367 1536h387l348 -1536h-307l-76 389h-336l-75 -389h-308zM209 1933h285l153 -291h-145zM446 614h246l-78 437q-20 115 -28 213q-4 57 -11 102h-4q-6 -88 -39 -315z" />
<glyph unicode="&#xc1;" horiz-adv-x="1138" d="M18 0l367 1536h387l348 -1536h-307l-76 389h-336l-75 -389h-308zM446 614h246l-78 437q-20 115 -28 213q-4 57 -11 102h-4q-6 -88 -39 -315zM494 1640l153 291h285l-293 -291h-145z" />
<glyph unicode="&#xc2;" horiz-adv-x="1138" d="M18 0l367 1536h387l348 -1536h-307l-76 389h-336l-75 -389h-308zM264 1589l197 254h219l199 -254h-199l-109 144l-112 -144h-195zM446 614h246l-78 437q-20 115 -28 213q-4 57 -11 102h-4q-6 -88 -39 -315z" />
<glyph unicode="&#xc3;" horiz-adv-x="1138" d="M18 0l367 1536h387l348 -1536h-307l-76 389h-336l-75 -389h-308zM211 1642q47 82 129 146q94 72 178 72q47 0 111 -31q37 -18 88 -33q68 -2 123 72h110q-150 -213 -311 -213q-27 0 -129 37q-43 25 -76 24q-45 0 -119 -74h-104zM446 614h246l-78 437q-20 115 -28 213 q-4 57 -11 102h-4q-6 -88 -39 -315z" />
<glyph unicode="&#xc4;" horiz-adv-x="1138" d="M18 0l367 1536h387l348 -1536h-307l-76 389h-336l-75 -389h-308zM239 1700v235h260v-235h-260zM446 614h246l-78 437q-18 100 -28 213q-2 35 -11 102h-4q-8 -104 -39 -315zM639 1700v235h262v-235h-262z" />
<glyph unicode="&#xc5;" horiz-adv-x="1138" d="M18 0l367 1536h387l348 -1536h-307l-76 389h-336l-75 -389h-308zM352 1769q0 90 65.5 155t153.5 65q90 0 153.5 -64.5t63.5 -155.5q0 -90 -63.5 -153.5t-153.5 -63.5t-154.5 64.5t-64.5 152.5zM446 614h246l-78 437q-18 100 -28 213q-2 35 -11 102h-4q-8 -104 -39 -315z M452 1769q0 -47 36 -81.5t83 -34.5t83 35.5t36 80.5q0 47 -36 83t-83 36q-49 0 -84 -34.5t-35 -84.5z" />
<glyph unicode="&#xc6;" horiz-adv-x="1593" d="M-45 0l590 1536h991v-225h-502v-389h469v-226h-469v-471h502v-225h-788v393h-353l-133 -393h-307zM473 618h275v633h-56z" />
<glyph unicode="&#xc7;" horiz-adv-x="1138" d="M113 672v219q0 348 80 489q109 195 421 193q387 -2 420 -397q8 -92 6 -117h-282q-20 172 -23 178q-31 104 -121 104q-145 0 -188 -149q-18 -66 -18 -238v-426q0 -334 206 -333q100 0 129 139q5 18 17 213h289q-2 -29 -7 -88q-12 -233 -100 -353q-104 -143 -328 -143 q-322 0 -428 201q-74 141 -73 508zM309 -416l39 86q104 -33 176 -32q37 0 66.5 28.5t23.5 65.5q-10 39 -41 49q-47 25 -133 -6l-43 41l121 184h108l-86 -129q31 12 68 12q90 0 139 -49q45 -35 45 -108q0 -43 -26 -95q-78 -100 -232 -100q-59 0 -225 53z" />
<glyph unicode="&#xc8;" d="M131 0v1536h807v-225h-520v-387h479v-226h-479v-473h520v-225h-807zM168 1933h285l153 -291h-145z" />
<glyph unicode="&#xc9;" d="M131 0v1536h807v-225h-520v-387h479v-226h-479v-473h520v-225h-807zM459 1642l153 291h285l-293 -291h-145z" />
<glyph unicode="&#xca;" d="M131 0v1536h807v-225h-520v-387h479v-226h-479v-473h520v-225h-807zM225 1610l197 254h219l199 -254h-199l-109 143l-112 -143h-195z" />
<glyph unicode="&#xcb;" d="M131 0v1536h807v-225h-520v-387h479v-226h-479v-473h520v-225h-807zM182 1700v235h260v-235h-260zM582 1700v235h262v-235h-262z" />
<glyph unicode="&#xcc;" horiz-adv-x="569" d="M-78 1933h285l153 -291h-145zM141 0v1536h287v-1536h-287z" />
<glyph unicode="&#xcd;" horiz-adv-x="569" d="M141 0v1536h287v-1536h-287zM211 1642l154 291h284l-293 -291h-145z" />
<glyph unicode="&#xce;" horiz-adv-x="569" d="M-75 1659l231 299h256l235 -299h-233l-129 168l-131 -168h-229zM141 0v1536h287v-1536h-287z" />
<glyph unicode="&#xcf;" horiz-adv-x="569" d="M-45 1700v235h260v-235h-260zM141 0v1536h287v-1536h-287zM355 1700v235h262v-235h-262z" />
<glyph unicode="&#xd0;" horiz-adv-x="1251" d="M-12 678v194h159v664h598q121 0 213.5 -78t126.5 -196q41 -137 41 -431q0 -315 -28 -456q-51 -244 -207 -334q-70 -41 -213 -41h-531v678h-159zM434 225h125q182 0 232 123q41 100 40 457q0 283 -38 389q-45 117 -170 117h-189v-439h139v-194h-139v-453z" />
<glyph unicode="&#xd1;" horiz-adv-x="1251" d="M139 0v1536h297l223 -559q115 -289 205 -610h4q-43 585 -43 868v301h287v-1536h-299l-223 547q-109 266 -205 610h-4q45 -559 45 -868v-289h-287zM252 1643q8 117 88 190q68 61 146 61q57 0 158.5 -37.5t121.5 -37.5q80 0 103 86h133q-45 -248 -240 -248q-49 0 -180 45 q-76 27 -107 27q-25 0 -44 -11.5t-52 -74.5h-127z" />
<glyph unicode="&#xd2;" horiz-adv-x="1251" d="M125 672v219q0 344 80 487q109 195 422 195q315 0 424 -195q78 -139 77 -487v-219q0 -369 -73 -508q-106 -201 -428 -201t-428 201q-74 139 -74 508zM260 1974h285l153 -291h-145zM420 528q0 -334 207 -333q135 0 180 124q27 74 27 234v393q0 170 -23 244 q-45 152 -184 151q-145 0 -189 -149q-18 -66 -18 -238v-426z" />
<glyph unicode="&#xd3;" horiz-adv-x="1251" d="M125 672v219q0 344 80 487q109 195 422 195q315 0 424 -195q78 -139 77 -487v-219q0 -369 -73 -508q-106 -201 -428 -201t-428 201q-74 139 -74 508zM420 528q0 -334 207 -333q135 0 180 124q27 74 27 234v393q0 170 -23 244q-45 152 -184 151q-145 0 -189 -149 q-18 -66 -18 -238v-426zM551 1683l154 291h284l-293 -291h-145z" />
<glyph unicode="&#xd4;" horiz-adv-x="1251" d="M125 672v219q0 344 80 487q109 195 422 195q315 0 424 -195q78 -139 77 -487v-219q0 -369 -73 -508q-106 -201 -428 -201t-428 201q-74 139 -74 508zM319 1628l197 254h219l199 -254h-199l-108 144l-113 -144h-195zM420 528q0 -334 207 -333q135 0 180 124q27 74 27 234 v393q0 170 -23 244q-45 152 -184 151q-145 0 -189 -149q-18 -66 -18 -238v-426z" />
<glyph unicode="&#xd5;" horiz-adv-x="1251" d="M125 672v219q0 344 80 487q109 195 422 195q315 0 424 -195q78 -139 77 -487v-219q0 -369 -73 -508q-106 -201 -428 -201t-428 201q-74 139 -74 508zM266 1681q47 82 129 146q94 72 178 71q47 0 111 -30q37 -18 88 -33q68 -2 123 72h111q-150 -213 -312 -213 q-27 0 -129 37q-43 25 -76 24q-45 0 -118 -74h-105zM420 528q0 -334 207 -333q135 0 180 124q27 74 27 234v393q0 170 -23 244q-45 152 -184 151q-145 0 -189 -149q-18 -66 -18 -238v-426z" />
<glyph unicode="&#xd6;" horiz-adv-x="1251" d="M125 672v219q0 346 80 487q109 195 422 195t424 -195q78 -141 77 -487v-219q0 -367 -73 -508q-106 -201 -428 -201t-428 201q-74 141 -74 508zM295 1700v235h260v-235h-260zM420 528q0 -334 207 -333q135 0 180 124q27 72 27 234v393q0 166 -23 244q-47 152 -184 151 q-145 0 -189 -149q-18 -66 -18 -238v-426zM695 1700v235h262v-235h-262z" />
<glyph unicode="&#xd7;" d="M53 215l295 295l-295 295l160 160l295 -295l305 305l160 -160l-305 -305l305 -305l-160 -160l-305 305l-295 -295z" />
<glyph unicode="&#xd8;" horiz-adv-x="1251" d="M74 -16l121 192q-70 139 -70 496v219q0 346 80 487q109 195 422 195q127 0 196 -19q94 -27 168 -104l90 145l103 -69l-119 -191q63 -129 63 -444v-219q0 -367 -73 -508q-106 -201 -428 -201q-135 0 -215 23.5t-144 87.5l-94 -152zM420 563l385 615q-12 164 -178 163 q-145 0 -187 -155q-20 -80 -20 -338v-285zM440 352q31 -158 187 -157q143 0 186 149q20 74 21 272q-1 322 -3 363z" />
<glyph unicode="&#xd9;" horiz-adv-x="1251" d="M139 465v1071h287v-1047q0 -143 29 -202q45 -92 176 -92q125 0 168 92q28 61 28 202v1047h287v-1071q0 -268 -106 -383q-113 -119 -379 -119q-270 0 -380 116t-110 386zM260 1913h285l153 -291h-145z" />
<glyph unicode="&#xda;" horiz-adv-x="1251" d="M139 465v1071h287v-1047q0 -143 29 -202q45 -92 176 -92q125 0 168 92q28 61 28 202v1047h287v-1071q0 -268 -106 -383q-113 -119 -379 -119q-270 0 -380 116t-110 386zM551 1622l154 291h284l-293 -291h-145z" />
<glyph unicode="&#xdb;" horiz-adv-x="1251" d="M139 465v1071h287v-1047q0 -141 29 -202q45 -92 176 -92q125 0 168 92q28 61 28 202v1047h287v-1071q0 -264 -102 -379q-111 -123 -383 -123q-274 0 -387 123q-102 115 -103 379zM265 1659l231 299h256l235 -299h-233l-129 168l-131 -168h-229z" />
<glyph unicode="&#xdc;" horiz-adv-x="1251" d="M139 465v1071h287v-1047q0 -141 29 -202q45 -92 176 -92q125 0 168 92q28 61 28 202v1047h287v-1071q0 -264 -102 -379q-111 -123 -383 -123q-274 0 -387 123q-102 115 -103 379zM295 1700v235h260v-235h-260zM695 1700v235h262v-235h-262z" />
<glyph unicode="&#xdd;" horiz-adv-x="1138" d="M25 1536h313l162 -403q51 -127 67 -236h4q16 94 95 291l137 348h313l-405 -883v-653h-287v653zM500 1622l153 291h285l-293 -291h-145z" />
<glyph unicode="&#xde;" horiz-adv-x="1138" d="M139 0v1536h287v-322h299q190 0 283 -137q76 -113 75 -299q0 -250 -143 -364q-117 -92 -322 -92h-192v-322h-287zM426 547h154q209 0 208 239q0 125 -55 168q-47 35 -176 35h-131v-442z" />
<glyph unicode="&#xdf;" d="M123 0v1092q0 207 51 309q88 172 338 172q190 0 291 -125q84 -104 84 -262q0 -244 -162 -293v-4q182 -47 186 -430q2 -190 -47 -314q-68 -176 -231 -176q-68 0 -150 31v188q29 -12 60 -12q104 2 102 205l-2 240q-2 152 -141 157v195q74 6 94 26q31 27 31 117v125 q0 127 -119 127t-119 -233v-1135h-266z" />
<glyph unicode="&#xe0;" d="M86 315q0 178 119 275q61 49 276 139q137 57 137 148q0 20 -6 45q-14 59 -125 59q-82 0 -114 -45q-27 -37 -25 -123h-254q-2 203 99 291q96 82 305 82q240 0 325 -115q55 -74 56 -227v-682q-1 -78 22 -162h-252q-23 47 -16 119h-4q-96 -150 -234 -150q-309 0 -309 346z M154 1575h270l145 -275h-137zM352 322q0 -147 125 -148q102 0 127 113q8 38 8 196v125q-96 -59 -215 -147q-45 -33 -45 -139z" />
<glyph unicode="&#xe1;" d="M86 315q0 178 119 275q61 49 276 139q137 57 137 148q0 20 -6 45q-14 59 -125 59q-82 0 -114 -45q-27 -37 -25 -123h-254q-2 203 99 291q96 82 305 82q240 0 325 -115q55 -74 56 -227v-682q-1 -78 22 -162h-252q-23 47 -16 119h-4q-96 -150 -234 -150q-309 0 -309 346z M352 322q0 -147 125 -148q102 0 127 113q8 38 8 196v125q-96 -59 -215 -147q-45 -33 -45 -139zM428 1300l145 275h271l-279 -275h-137z" />
<glyph unicode="&#xe2;" d="M86 315q0 178 119 275q61 49 276 139q137 57 137 148q0 20 -6 45q-14 59 -125 59q-82 0 -114 -45q-27 -37 -25 -123h-254q-2 203 99 291q96 82 305 82q240 0 325 -115q55 -74 56 -227v-682q-1 -78 22 -162h-252q-23 47 -16 119h-4q-96 -150 -234 -150q-309 0 -309 346z M209 1241l186 242h209l189 -242h-189l-104 137l-107 -137h-184zM352 322q0 -147 125 -148q102 0 127 113q8 38 8 196v125q-96 -59 -215 -147q-45 -33 -45 -139z" />
<glyph unicode="&#xe3;" d="M86 315q0 178 119 275q61 49 276 139q137 57 137 148q0 20 -6 45q-14 59 -125 59q-82 0 -114 -45q-27 -37 -25 -123h-254q-2 203 99 291q96 82 305 82q240 0 325 -115q55 -74 56 -227v-682q-1 -78 22 -162h-252q-23 47 -16 119h-4q-96 -150 -234 -150q-309 0 -309 346z M156 1303q45 76 123 137q90 70 167 69q45 0 107 -28q31 -14 82 -31q66 -2 117 68h106q-141 -203 -297 -203q-31 0 -121 35q-43 25 -73 24q-41 0 -113 -71h-98zM352 322q0 -147 125 -148q102 0 127 113q8 38 8 196v125q-96 -59 -215 -147q-45 -33 -45 -139z" />
<glyph unicode="&#xe4;" d="M86 315q0 176 119 275q66 51 276 139q137 57 137 148q0 20 -6 45q-14 59 -125 59q-84 0 -114 -45q-27 -37 -25 -123h-254q-2 182 76 268q94 104 328 105q242 0 325 -115q55 -72 56 -227v-682q-1 -78 22 -162h-252q-23 47 -16 119h-4q-96 -150 -234 -150q-160 0 -234.5 84 t-74.5 262zM182 1319v235h260v-235h-260zM352 322q0 -147 125 -148q102 0 127 113q8 38 8 196v125q-74 -45 -215 -147q-45 -37 -45 -139zM582 1319v235h262v-235h-262z" />
<glyph unicode="&#xe5;" d="M86 315q0 176 119 275q66 51 276 139q137 57 137 148q0 20 -6 45q-14 59 -125 59q-84 0 -114 -45q-27 -37 -25 -123h-254q-2 182 76 268q94 104 328 105q242 0 325 -115q55 -72 56 -227v-682q-1 -78 22 -162h-252q-23 47 -16 119h-4q-96 -150 -234 -150q-160 0 -234.5 84 t-74.5 262zM295 1511q0 90 65.5 155t153.5 65q90 0 153.5 -64.5t63.5 -155.5q0 -90 -63.5 -153.5t-153.5 -63.5t-154.5 64.5t-64.5 152.5zM352 322q0 -147 125 -148q102 0 127 113q8 38 8 196v125q-74 -45 -215 -147q-45 -37 -45 -139zM395 1511q0 -47 36 -81.5t83 -34.5 t83 35.5t36 80.5q0 47 -36 83t-83 36q-49 0 -84 -34.5t-35 -84.5z" />
<glyph unicode="&#xe6;" horiz-adv-x="1478" d="M90 293q0 141 44 214t169 142q106 49 215 99q96 49 96 133q0 100 -122 100q-84 0 -111 -43q-17 -31 -21 -119h-266q-2 84 27 178q59 188 379 189q156 0 266 -74q92 74 240 74q369 0 368 -359v-297h-502v-102q0 -123 11 -164q25 -90 112 -90q102 0 113 111v108h268 q12 -424 -381 -424q-180 0 -278 121q-78 -121 -268 -121q-178 0 -265 70q-94 78 -94 254zM356 328q0 -154 107 -154q143 0 143 199v233q-84 -53 -166 -106q-84 -66 -84 -172zM872 735h236v115q0 131 -117 131q-104 0 -119 -131v-115z" />
<glyph unicode="&#xe7;" horiz-adv-x="909" d="M98 401v375q0 410 361 410q186 0 282 -105q82 -90 82 -235v-92h-266v129q0 98 -92 98q-70 0 -88 -76q-12 -45 -12 -182v-272q0 -139 4 -166q18 -100 96 -111q55 2 74 51q10 27 18 119v107h266v-107q0 -375 -364 -375q-360 0 -361 432zM195 -416l39 86q104 -33 176 -32 q37 0 66.5 28.5t23.5 65.5q-10 39 -41 49q-47 25 -133 -6l-43 41l121 184h108l-86 -129q31 12 68 12q90 0 139 -49q45 -35 45 -108q0 -43 -26 -95q-78 -100 -232 -100q-59 0 -225 53z" />
<glyph unicode="&#xe8;" d="M106 455v303q0 428 390 428q256 0 344 -135q66 -100 65 -373v-156h-532v-168q0 -180 139 -180q131 0 123 217h266q16 -422 -369 -422q-238 0 -337 127q-89 113 -89 359zM150 1575h270l145 -275h-137zM373 727h266v100q0 84 -28.5 119t-110.5 35q-88 0 -113 -63 q-14 -37 -14 -144v-47z" />
<glyph unicode="&#xe9;" d="M106 455v303q0 428 390 428q256 0 344 -135q66 -100 65 -373v-156h-532v-168q0 -180 139 -180q131 0 123 217h266q16 -422 -369 -422q-238 0 -337 127q-89 113 -89 359zM373 727h266v100q0 84 -28.5 119t-110.5 35q-88 0 -113 -63q-14 -37 -14 -144v-47zM424 1300 l145 275h271l-279 -275h-137z" />
<glyph unicode="&#xea;" d="M106 455v303q0 428 390 428q256 0 344 -135q66 -100 65 -373v-156h-532v-168q0 -180 139 -180q131 0 123 217h266q16 -422 -369 -422q-238 0 -337 127q-89 113 -89 359zM205 1241l186 242h209l188 -242h-188l-104 137l-107 -137h-184zM373 727h266v100q0 84 -28.5 119 t-110.5 35q-88 0 -113 -63q-14 -37 -14 -144v-47z" />
<glyph unicode="&#xeb;" d="M106 455v303q0 428 390 428q256 0 344 -135q66 -102 65 -373v-156h-532v-168q0 -180 139 -180q72 0 99.5 52.5t23.5 164.5h266q16 -422 -369 -422q-229 0 -327.5 115t-98.5 371zM182 1319v235h260v-235h-260zM373 727h266v100q0 88 -29.5 121t-109.5 33q-88 0 -113 -63 q-14 -35 -14 -144v-47zM582 1319v235h262v-235h-262z" />
<glyph unicode="&#xec;" horiz-adv-x="569" d="M-63 1544h270l145 -274h-137zM152 0v1155h266v-1155h-266z" />
<glyph unicode="&#xed;" horiz-adv-x="569" d="M152 0v1155h266v-1155h-266zM213 1270l145 274h271l-279 -274h-137z" />
<glyph unicode="&#xee;" horiz-adv-x="569" d="M-96 1278l231 299h256l235 -299h-233l-129 168l-131 -168h-229zM152 0v1155h266v-1155h-266z" />
<glyph unicode="&#xef;" horiz-adv-x="569" d="M-45 1319v235h260v-235h-260zM152 0v1155h266v-1155h-266zM355 1319v235h262v-235h-262z" />
<glyph unicode="&#xf0;" d="M94 537q2 358 53 473q82 176 355 176q66 0 106 -8q-33 98 -98 131l-133 -92l-90 94l57 41q-61 12 -170 18v164q248 -4 379 -37l135 92l90 -94l-82 -57q106 -76 156 -260q59 -219 55 -643q-2 -317 -76 -433q-84 -133 -329 -133q-252 0 -336 133q-74 115 -72 435zM360 377 q0 -117 23 -154q29 -49 119 -49q86 0 112 49q20 37 21 154v385q0 109 -17 149q-29 70 -116 70q-94 0 -123 -70q-19 -40 -19 -149v-385z" />
<glyph unicode="&#xf1;" d="M125 0v1155h266v-119h4q68 150 240 150q121 0 190 -70q76 -78 76 -225v-891h-266v770q0 96 -19 135q-25 53 -94 56q-131 6 -131 -213v-748h-266zM139 1262q8 117 88 190q68 61 146 61q57 0 158.5 -37.5t121.5 -37.5q80 0 103 86h133q-45 -248 -240 -248q-49 0 -180 45 q-76 27 -107 27q-25 0 -44 -11.5t-52 -74.5h-127z" />
<glyph unicode="&#xf2;" d="M109 537q2 362 53 473q80 176 354 176q270 0 348 -176q49 -111 51 -473q2 -319 -69 -435q-84 -133 -330 -133q-252 0 -336 133q-74 115 -71 435zM170 1575h270l146 -275h-137zM375 377q0 -117 22 -154q29 -49 119 -49q86 0 113 49q20 37 20 154v385q0 109 -16 149 q-29 70 -117 70q-94 0 -123 -70q-18 -43 -18 -149v-385z" />
<glyph unicode="&#xf3;" d="M109 537q2 362 53 473q80 176 354 176q270 0 348 -176q49 -111 51 -473q2 -319 -69 -435q-84 -133 -330 -133q-252 0 -336 133q-74 115 -71 435zM375 377q0 -117 22 -154q29 -49 119 -49q86 0 113 49q20 37 20 154v385q0 109 -16 149q-29 70 -117 70q-94 0 -123 -70 q-18 -43 -18 -149v-385zM444 1300l146 275h270l-278 -275h-138z" />
<glyph unicode="&#xf4;" d="M109 537q2 362 53 473q80 176 354 176q270 0 348 -176q49 -111 51 -473q2 -319 -69 -435q-84 -133 -330 -133q-252 0 -336 133q-74 115 -71 435zM225 1241l187 242h209l188 -242h-188l-105 137l-106 -137h-185zM375 377q0 -117 22 -154q29 -49 119 -49q86 0 113 49 q20 37 20 154v385q0 109 -16 149q-29 70 -117 70q-94 0 -123 -70q-18 -43 -18 -149v-385z" />
<glyph unicode="&#xf5;" d="M109 537q2 362 53 473q80 176 354 176q270 0 348 -176q49 -111 51 -473q2 -319 -69 -435q-84 -133 -330 -133q-252 0 -336 133q-74 115 -71 435zM174 1300q45 76 123 138q90 70 168 69q45 0 106 -28q31 -14 82 -31q66 -2 117 68h107q-141 -203 -297 -203q-31 0 -121 35 q-43 25 -74 24q-41 0 -113 -72h-98zM375 377q0 -117 22 -154q29 -49 119 -49q86 0 113 49q20 37 20 154v385q0 109 -16 149q-29 70 -117 70q-94 0 -123 -70q-18 -43 -18 -149v-385z" />
<glyph unicode="&#xf6;" d="M109 537q2 358 53 473q82 176 354 176q268 0 348 -176q49 -113 51 -473q2 -319 -69 -435q-84 -133 -330 -133q-252 0 -336 133q-74 115 -71 435zM182 1319v235h260v-235h-260zM375 377q0 -117 22 -154q29 -49 119 -49q86 0 113 49q20 37 20 154v385q0 109 -16 149 q-29 70 -117 70q-94 0 -123 -70q-18 -40 -18 -149v-385zM582 1319v235h262v-235h-262z" />
<glyph unicode="&#xf7;" d="M53 397v226h920v-226h-920zM381 12v236h260v-236h-260zM381 772v236h260v-236h-260z" />
<glyph unicode="&#xf8;" d="M14 -49l142 203q-49 123 -47 383q2 358 55 473q80 176 352 176q191 0 283 -82l108 160l101 -72l-136 -203q43 -109 43 -452q0 -324 -69 -437q-82 -133 -328 -131q-199 2 -285 72l-110 -160zM375 449l270 399q-10 133 -129 133q-94 0 -123 -70q-18 -41 -18 -149v-313z M379 291q6 -63 35.5 -90t101.5 -27q86 0 113 49q20 37 20 154v315z" />
<glyph unicode="&#xf9;" d="M119 270v885h266v-790q0 -113 27 -154q35 -37 82 -37q82 0 108 82q14 45 14 150v749h267v-1155h-254v172h-4q-59 -201 -248 -203q-150 0 -209 78q-49 68 -49 223zM154 1544h270l145 -274h-137z" />
<glyph unicode="&#xfa;" d="M119 270v885h266v-790q0 -113 27 -154q35 -37 82 -37q82 0 108 82q14 45 14 150v749h267v-1155h-254v172h-4q-59 -201 -248 -203q-150 0 -209 78q-49 68 -49 223zM428 1270l145 274h271l-279 -274h-137z" />
<glyph unicode="&#xfb;" d="M119 270v885h266v-790q0 -113 27 -154q35 -37 82 -37q82 0 108 82q14 45 14 150v749h267v-1155h-254v172h-4q-59 -201 -248 -203q-150 0 -209 78q-49 68 -49 223zM152 1299l231 299h256l235 -299h-233l-129 168l-131 -168h-229z" />
<glyph unicode="&#xfc;" d="M119 270v885h266v-790q0 -113 27 -154q35 -37 82 -37q82 0 108 82q14 45 14 150v749h267v-1155h-254v172h-4q-59 -201 -248 -203q-150 0 -209 78q-49 68 -49 223zM182 1319v235h260v-235h-260zM582 1319v235h262v-235h-262z" />
<glyph unicode="&#xfd;" horiz-adv-x="909" d="M10 1155h281l117 -612q16 -82 38 -307h5q12 150 41 299l116 620h271l-281 -1171q-55 -227 -86 -279q-66 -104 -231 -104q-55 0 -125 10v207q12 0 34.5 -2t34.5 -2q88 0 88 55q0 47 -24 147zM383 1270l145 274h271l-279 -274h-137z" />
<glyph unicode="&#xfe;" d="M119 -387v1923h266v-502h4q68 156 232 152q137 -2 202 -90q74 -97 74 -324v-418q0 -391 -276 -385q-162 2 -244 150h-4v-506h-254zM385 379q0 -205 129 -205q117 0 117 199v385q0 117 -15 155q-23 68 -106 68q-125 0 -125 -256v-346z" />
<glyph unicode="&#xff;" horiz-adv-x="909" d="M10 1155h281l117 -612q16 -90 38 -307h5q12 143 41 299l116 620h271l-281 -1171q-53 -225 -86 -279q-66 -104 -231 -104q-55 0 -125 10v207q6 0 30.5 -2t38.5 -2q88 0 88 55q0 47 -24 147zM125 1319v235h260v-235h-260zM525 1319v235h262v-235h-262z" />
<glyph unicode="&#x152;" horiz-adv-x="1705" d="M123 891q-2 276 84 452q113 229 360 230q197 0 277 -158h4v4l4 -4v121h768v-225h-506v-389h469v-226h-469v-471h506v-225h-776v150h-4q-49 -84 -142 -140q-76 -47 -127 -47q-223 0 -333 164q-84 127 -107 369q-6 74 -8 395zM412 760q0 -256 16 -340q41 -225 195 -225 q125 0 170 77q34 58 34 191v633q0 260 -198 245q-158 -10 -201 -237q-16 -86 -16 -344z" />
<glyph unicode="&#x153;" horiz-adv-x="1478" d="M94 537q2 360 53 475q82 178 355 174q133 -2 246 -117q82 117 282 117q184 0 260 -107q99 -137 99 -336v-215h-506v-118q0 -139 24.5 -187.5t87.5 -48.5q127 0 127 133v86h267q2 -227 -92.5 -325.5t-323.5 -98.5q-139 0 -225 109q-100 -106 -246 -109q-250 -4 -336 131 q-74 117 -72 437zM360 440q0 -168 31 -223q23 -43 94 -43q72 0 99 49q33 61 32 234v338q0 104 -27.5 145t-103.5 41q-70 0 -97.5 -50t-27.5 -169v-322zM879 733h243v72q0 94 -27.5 135t-97.5 41q-78 0 -102 -72q-16 -43 -16 -135v-41z" />
<glyph unicode="&#x178;" horiz-adv-x="1138" d="M25 1536h313l162 -403q51 -129 67 -236h4q16 92 95 291l137 348h313l-405 -883v-653h-287v653zM239 1700v235h260v-235h-260zM639 1700v235h262v-235h-262z" />
<glyph unicode="&#x2c6;" horiz-adv-x="681" d="M-20 1319l231 299h256l235 -299h-233l-129 168l-131 -168h-229z" />
<glyph unicode="&#x2dc;" horiz-adv-x="681" d="M-33 1303q8 117 88 190q68 61 146 61q57 0 158.5 -37.5t121.5 -37.5q80 0 103 86h133q-45 -248 -240 -248q-49 0 -180 45q-76 27 -107 27q-25 0 -44 -11.5t-52 -74.5h-127z" />
<glyph unicode="&#x2000;" horiz-adv-x="994" />
<glyph unicode="&#x2001;" horiz-adv-x="1989" />
<glyph unicode="&#x2002;" horiz-adv-x="994" />
<glyph unicode="&#x2003;" horiz-adv-x="1989" />
<glyph unicode="&#x2004;" horiz-adv-x="663" />
<glyph unicode="&#x2005;" horiz-adv-x="497" />
<glyph unicode="&#x2006;" horiz-adv-x="331" />
<glyph unicode="&#x2007;" horiz-adv-x="331" />
<glyph unicode="&#x2008;" horiz-adv-x="248" />
<glyph unicode="&#x2009;" horiz-adv-x="397" />
<glyph unicode="&#x200a;" horiz-adv-x="110" />
<glyph unicode="&#x2010;" horiz-adv-x="681" d="M98 522v236h488v-236h-488z" />
<glyph unicode="&#x2011;" horiz-adv-x="681" d="M98 522v236h488v-236h-488z" />
<glyph unicode="&#x2012;" horiz-adv-x="681" d="M98 522v236h488v-236h-488z" />
<glyph unicode="&#x2013;" d="M0 530v226h1024v-226h-1024z" />
<glyph unicode="&#x2014;" horiz-adv-x="2048" d="M0 530v226h2048v-226h-2048z" />
<glyph unicode="&#x2018;" horiz-adv-x="569" d="M156 1014v243q0 141 54 215t193 97v-94q-139 -20 -131 -195h131v-266h-247z" />
<glyph unicode="&#x2019;" horiz-adv-x="569" d="M166 981v94q139 20 131 195h-131v266h248v-244q0 -141 -54.5 -214.5t-193.5 -96.5z" />
<glyph unicode="&#x201a;" horiz-adv-x="569" d="M178 4v266h246v-243q0 -143 -53.5 -212t-192.5 -98v95q78 16 109 65q25 41 20 127h-129z" />
<glyph unicode="&#x201c;" d="M178 1014v243q0 141 54.5 215t193.5 97v-94q-139 -20 -131 -195h131v-266h-248zM582 1014v243q0 141 54 215t193 97v-94q-139 -20 -131 -195h131v-266h-247z" />
<glyph unicode="&#x201d;" d="M195 981v94q139 20 131 195h-131v266h247v-244q0 -141 -54 -214.5t-193 -96.5zM598 981v94q139 20 131 195h-131v266h248v-244q0 -141 -54.5 -214.5t-193.5 -96.5z" />
<glyph unicode="&#x201e;" d="M197 4v266h245v-243q0 -143 -53 -212t-192 -98v95q78 16 108 65q25 41 21 127h-129zM600 4v266h246v-243q0 -143 -53.5 -212t-192.5 -98v95q76 18 107 61q23 41 22 131h-129z" />
<glyph unicode="&#x2022;" horiz-adv-x="860" d="M45 768q0 158 111.5 270.5t271.5 112.5t273.5 -112.5t113.5 -270.5q0 -160 -113.5 -273.5t-273.5 -113.5t-271.5 113.5t-111.5 273.5z" />
<glyph unicode="&#x2026;" horiz-adv-x="2048" d="M207 0v270h270v-270h-270zM889 0v270h270v-270h-270zM1571 0v270h270v-270h-270z" />
<glyph unicode="&#x202f;" horiz-adv-x="397" />
<glyph unicode="&#x2039;" horiz-adv-x="569" d="M119 418v209l321 288v-229l-194 -154l194 -174v-231z" />
<glyph unicode="&#x203a;" horiz-adv-x="569" d="M129 127v231l193 166l-193 162v229l322 -288v-209z" />
<glyph unicode="&#x205f;" horiz-adv-x="497" />
<glyph unicode="&#x2122;" horiz-adv-x="1761" d="M2 1376v160h633v-160h-236v-667h-163v667h-234zM723 709v827h264l168 -489l166 489h264v-827h-164v667h-4l-215 -667h-96l-215 667h-4v-667h-164z" />
<glyph unicode="&#x25fc;" horiz-adv-x="1157" d="M0 0v1157h1157v-1157h-1157z" />
</font>
</defs>
</svg>
