<?xml version="1.0" standalone="no"?>
<!DOCTYPE svg PUBLIC "-//W3C//DTD SVG 1.1//EN" "http://www.w3.org/Graphics/SVG/1.1/DTD/svg11.dtd" >
<svg xmlns="http://www.w3.org/2000/svg">
<metadata></metadata>
<defs>
<font id="sfu_helveticacondensedblack" horiz-adv-x="1024" >
<font-face units-per-em="2048" ascent="1638" descent="-410" />
<missing-glyph horiz-adv-x="512" />
<glyph horiz-adv-x="0" />
<glyph unicode="&#xd;" horiz-adv-x="512" />
<glyph unicode=" "  horiz-adv-x="512" />
<glyph unicode="&#x09;" horiz-adv-x="512" />
<glyph unicode="&#xa0;" horiz-adv-x="512" />
<glyph unicode="!" horiz-adv-x="681" d="M162 1149v387h360v-387l-88 -655h-184zM170 0v350h346v-350h-346z" />
<glyph unicode="&#x22;" horiz-adv-x="681" d="M33 958v555h243v-555h-243zM408 958v555h243v-555h-243z" />
<glyph unicode="#" d="M18 455v233h222l28 193h-192v235h221l57 420h178l-55 -420h176l56 420h184l-57 -420h170v-235h-203l-25 -193h174v-233h-207l-61 -455h-178l59 455h-174l-61 -455h-185l62 455h-189zM422 688h176l25 193h-177z" />
<glyph unicode="$" d="M29 440h284q6 -57 11 -116q18 -92 127 -123v383q-211 100 -293 186q-115 119 -115 315q0 162 112.5 270.5t272.5 119.5v135h180v-135q178 -16 279.5 -134t97.5 -299h-287q0 182 -129 199v-358q217 -92 301 -172q121 -117 121 -316q0 -190 -103.5 -301.5t-295.5 -126.5 v-225h-180v227q-209 35 -296 144.5t-87 326.5zM332 1102q0 -129 133 -168v311q-68 -20 -94 -45q-39 -33 -39 -98zM555 205q70 12 114 61t33 119q-10 35 -18 68q-23 41 -129 94v-342z" />
<glyph unicode="%" horiz-adv-x="1705" d="M49 1126q0 381 328 381q178 0 256 -94q72 -88 72 -287q0 -186 -58 -272q-73 -111 -270 -111q-184 0 -262 103q-66 88 -66 280zM297 1128q0 -119 4 -133q13 -65 76 -65q59 0 74 76q6 27 6 122q0 106 -2 119q-14 72 -78 74q-61 2 -76 -72q-4 -18 -4 -121zM426 -37l692 1573 h168l-688 -1573h-172zM1004 375q-1 381 327 381q182 0 260 -101q68 -88 68 -280q0 -186 -57 -273q-74 -111 -271 -110q-184 0 -262 102q-66 88 -65 281zM1251 379q0 -119 4 -135q12 -66 76 -66q59 0 74 76q6 29 6 125q0 104 -2 117q-15 71 -78 73q-61 2 -76 -69 q-4 -18 -4 -121z" />
<glyph unicode="&#x26;" horiz-adv-x="1366" d="M96 420q0 315 285 489q-125 154 -125 342q0 152 129 242q115 80 270 80q162 0 265 -84q113 -90 112 -250q0 -244 -260 -379q57 -86 166 -260h4q14 68 41 217h264q-6 -225 -137 -485l211 -332h-367l-55 88q-145 -125 -342 -125q-207 0 -334 124t-127 333zM416 438 q0 -82 55 -140t135 -58q62 -1 154 67l-240 371q-57 -63 -80 -109q-25 -53 -24 -131zM541 1253q0 -106 86 -184q41 20 74.5 73.5t33.5 98.5q0 107 -104 107q-39 0 -64.5 -28t-25.5 -67z" />
<glyph unicode="'" horiz-adv-x="512" d="M135 958v555h244v-555h-244z" />
<glyph unicode="(" horiz-adv-x="569" d="M49 610q1 441 232 926h247q-168 -426 -168 -973q0 -520 177 -946h-256q-135 322 -175 477q-57 219 -57 516z" />
<glyph unicode=")" horiz-adv-x="569" d="M33 1536h256q135 -322 174 -477q57 -219 57 -516q0 -441 -231 -926h-248q168 426 168 973q0 520 -176 946z" />
<glyph unicode="*" d="M131 1192l62 184l227 -78v238h190v-231l224 86l61 -189l-233 -72l159 -206l-151 -119l-158 211l-145 -205l-160 111l158 202z" />
<glyph unicode="+" d="M53 393v236h342v379h236v-379h342v-236h-342v-393h-236v393h-342z" />
<glyph unicode="," horiz-adv-x="681" d="M168 0v350h346v-352q0 -292 -346 -317v116q172 6 186 203h-186z" />
<glyph unicode="-" horiz-adv-x="681" d="M88 485v308h508v-308h-508z" />
<glyph unicode="." horiz-adv-x="681" d="M168 0v350h346v-350h-346z" />
<glyph unicode="/" horiz-adv-x="569" d="M-57 -193l460 1729h226l-467 -1729h-219z" />
<glyph unicode="0" d="M57 387v715q0 434 457 434q264 0 365 -131q88 -117 88 -391v-553q0 -262 -97 -375q-106 -123 -360 -123q-453 0 -453 424zM399 412q0 -94 15 -131q25 -63 100 -62q111 3 111 193v690q0 178 -111 178q-74 0 -98 -57q-16 -35 -17 -121v-690z" />
<glyph unicode="1" d="M76 1036v236q147 -2 252 47q131 59 155 184h232v-1503h-326v1036h-313z" />
<glyph unicode="2" d="M47 0v51q0 315 322 654l155 163q98 104 99 260q0 66 -29 107q-35 49 -100 45q-119 -8 -119 -225v-74h-326v80q0 229 121 352t350 123q211 0 328 -106.5t117 -315.5q0 -141 -44 -240.5t-149 -199.5l-133 -129q-184 -178 -203 -269h531v-276h-920z" />
<glyph unicode="3" d="M39 494h323q10 -162 15 -177q23 -98 117 -98q125 0 124 197q0 168 -77 215q-39 23 -107 26q-57 0 -112 2v246q55 2 108 6q63 8 102 35q66 47 66 172q0 158 -121 158q-76 0 -98 -80q-6 -25 -12 -143h-328l2 112q2 164 143 273q131 98 301 98q438 0 439 -395 q0 -244 -207 -342v-4q244 -61 244 -379q0 -453 -476 -453q-211 0 -325.5 110.5t-118.5 315.5z" />
<glyph unicode="4" d="M18 293v287l480 923h358v-954h135v-256h-135v-293h-326v293h-512zM276 549h254v498h-4z" />
<glyph unicode="5" d="M61 336v117h324l12 -140q20 -86 95 -94q135 -14 135 254q0 139 -11 189q-29 117 -122 116q-111 1 -121 -112h-301l39 837h794v-276h-534l-15 -287q106 94 240 94q217 0 307 -168q66 -125 66 -362q0 -266 -101 -395q-113 -145 -370 -146q-195 0 -297.5 91t-139.5 282z" />
<glyph unicode="6" d="M55 504v405q0 297 70 434q96 193 356 193q231 0 338 -82q121 -94 129 -315h-325q-4 141 -113 141q-84 0 -104 -98q-8 -35 -9 -166v-103q100 76 234 76q340 0 340 -461q0 -283 -94 -411q-109 -154 -377 -154q-444 0 -445 541zM397 352q0 -133 115 -133q117 0 117 201v153 q0 160 -121 160q-111 0 -111 -155v-226z" />
<glyph unicode="7" d="M49 1227v276h885v-256q-160 -281 -277 -729q-57 -215 -90 -518h-354q0 143 86 440q76 258 152 430l159 357h-561z" />
<glyph unicode="8" d="M59 436q0 139 35 211q39 82 154 160v4q-180 96 -180 322q0 199 122 303q115 100 320 100q209 0 326 -98q121 -104 120 -305q0 -227 -186 -322v-4q115 -68 155 -148.5t40 -222.5q0 -248 -119 -360.5t-365 -112.5q-199 0 -310.5 125t-111.5 348zM385 444q0 -231 125 -231 q86 0 115 82q14 47 14 156q0 102 -18 149q-29 78 -115 78t-111 -80q-10 -37 -10 -154zM393 1100q0 -176 115 -176q127 0 127 184q0 180 -119 180q-123 0 -123 -188z" />
<glyph unicode="9" d="M55 971q0 283 95 411q109 154 376 154q444 0 445 -541v-405q0 -295 -68 -432q-98 -195 -358 -195q-231 0 -338 82q-121 94 -129 315h325q4 -141 113 -141q84 0 107 98q6 35 6 166v103q-100 -76 -234 -76q-340 0 -340 461zM397 1008q0 -117 13 -156q23 -86 108 -86 q82 0 103 84q10 35 10 147q0 150 -6 179q-21 104 -111 104q-82 0 -106 -104q-10 -47 -11 -168z" />
<glyph unicode=":" horiz-adv-x="569" d="M113 0v350h346v-350h-346zM113 786v351h346v-351h-346z" />
<glyph unicode=";" horiz-adv-x="569" d="M113 0v350h346v-352q0 -292 -346 -317v116q172 6 186 203h-186zM113 786v351h346v-351h-346z" />
<glyph unicode="&#x3c;" d="M86 414v202l854 465v-227l-608 -342l608 -332v-227z" />
<glyph unicode="=" d="M53 195v235h920v-235h-920zM53 594v235h920v-235h-920z" />
<glyph unicode="&#x3e;" d="M86 -47v227l608 332l-608 342v227l854 -465v-202z" />
<glyph unicode="?" d="M41 1087q-10 215 116 350.5t339 135.5q205 0 329 -90q139 -102 140 -299q0 -154 -136 -320q-47 -53 -133 -166q-37 -51 -47 -98q-6 -25 -14 -108h-309q-4 199 51 288q133 166 139 174q88 125 88 207q0 135 -115 135q-80 0 -106 -67q-16 -44 -16 -142h-326zM303 0v350h346 l2 -350h-348z" />
<glyph unicode="@" horiz-adv-x="1699" d="M76 774q0 340 235.5 569.5t577.5 229.5q297 0 500 -172q238 -201 237 -475q0 -268 -164 -437q-66 -68 -170 -120q-113 -59 -198 -60q-35 0 -62.5 28t-27.5 75q0 14 4 30q-137 -125 -256 -125q-158 0 -254 111q-92 104 -92 266q0 197 118 338q125 150 316 150 q172 0 260 -125l22 108h201l-109 -630q-4 -27 8.5 -38.5t32.5 -4.5q61 18 140 131q68 96 71 243q6 256 -156.5 406.5t-426.5 150.5q-283 0 -466.5 -183t-183.5 -466q0 -293 199 -477q193 -180 486 -180q215 0 419 186h197q-246 -340 -633 -340q-346 0 -585.5 232.5 t-239.5 578.5zM631 731q-6 -94 37 -156q47 -70 137 -69q94 0 160 86q57 74 65 166q8 100 -31 166q-47 76 -137 67q-94 -8 -159.5 -84t-71.5 -176z" />
<glyph unicode="A" horiz-adv-x="1138" d="M18 0l336 1536h434l334 -1536h-364l-51 299h-283l-43 -299h-363zM463 569h209l-101 688h-4z" />
<glyph unicode="B" horiz-adv-x="1138" d="M90 0v1536h467q485 0 485 -397q0 -229 -174 -324v-4q121 -70 160 -144.5t39 -222.5q0 -444 -469 -444h-508zM451 276q160 4 196 23q59 35 60 176q0 121 -70 156q-41 18 -186 24v-379zM451 932q143 10 174 26q57 33 57 156q0 100 -68 129q-38 17 -163 17v-328z" />
<glyph unicode="C" horiz-adv-x="1138" d="M80 453v630q0 489 483 490q492 0 492 -445v-129h-361v99q0 197 -114 198q-80 0 -110 -38.5t-30 -120.5l-2 -760q0 -137 129 -137q133 0 133 221v139h361v-188q0 -209 -121 -324q-133 -125 -399 -125q-461 0 -461 490z" />
<glyph unicode="D" horiz-adv-x="1138" d="M94 0v1536h391q283 0 406 -72q162 -94 162 -379v-682q0 -233 -154 -331q-112 -72 -319 -72h-486zM455 276q21 -1 40 -1q132 0 169 61q28 45 28 215v12v502q0 127 -53 164q-41 27 -184 31v-984z" />
<glyph unicode="E" d="M94 0v1536h826v-307h-465v-283h450v-307h-450v-332h489v-307h-850z" />
<glyph unicode="F" d="M100 0v1536h848v-307h-487v-273h448v-307h-448v-649h-361z" />
<glyph unicode="G" horiz-adv-x="1138" d="M68 453v630q0 489 483 490q489 0 489 -445v-114h-360v84q0 94 -12 131q-25 66 -101 67h-3q-136 0 -136 -159v-760q0 -137 133 -137q82 0 111 61q16 39 16 135v121h-129v277h490v-836h-246l-17 137h-4q-55 -96 -123.5 -134t-187.5 -38q-403 0 -403 490z" />
<glyph unicode="H" horiz-adv-x="1138" d="M84 0v1536h360v-590h250v590h361v-1536h-361v639h-250v-639h-360z" />
<glyph unicode="I" horiz-adv-x="569" d="M104 0v1536h361v-1536h-361z" />
<glyph unicode="J" horiz-adv-x="909" d="M14 424v88h289v-195q0 -77 69 -77h5q70 2 69 55l3 1241h360v-1069q0 -131 -4 -168q-8 -96 -43 -162q-92 -174 -367 -174q-135 0 -229 64q-104 66 -135 190q-16 63 -17 207z" />
<glyph unicode="K" horiz-adv-x="1138" d="M90 0v1536h361v-614h4l266 614h369l-328 -678l348 -858h-381l-199 535l-79 -156v-379h-361z" />
<glyph unicode="L" horiz-adv-x="909" d="M76 0v1536h360v-1229h441v-307h-801z" />
<glyph unicode="M" horiz-adv-x="1593" d="M100 0v1536h508l187 -907h4l192 907h504v-1536h-344l37 1204h-4l-254 -1204h-268l-248 1204h-4l32 -1204h-342z" />
<glyph unicode="N" horiz-adv-x="1138" d="M88 0v1536h371l278 -858h6l-34 858h342v-1536h-369l-281 860l-4 -4l33 -856h-342z" />
<glyph unicode="O" horiz-adv-x="1138" d="M82 489v625q0 221 127 340t364 119q236 0 361 -119t125 -340v-625q0 -270 -107 -393q-115 -133 -379 -133q-266 0 -383 133q-109 125 -108 393zM442 459q0 -219 131 -219q125 0 125 219v631q0 206 -126 206h-1q-129 0 -129 -206v-631z" />
<glyph unicode="P" horiz-adv-x="1138" d="M109 0v1536h428q328 0 440 -127q100 -115 100 -334q0 -332 -203 -428q-80 -37 -198 -45q-104 -2 -207 -4v-598h-360zM469 874q104 4 104 5q61 6 99 34q45 49 45 156q0 147 -68 178q-35 12 -141 13h-39v-386z" />
<glyph unicode="Q" horiz-adv-x="1138" d="M82 489v625q0 221 127 340t364 119q236 0 361 -119t125 -340v-625q0 -258 -101 -380l168 -181l-211 -180l-202 227q-61 -12 -140 -12q-266 0 -383 133q-109 125 -108 393zM442 459q0 -219 131 -219q125 0 125 219v631q0 206 -126 206h-1h-1q-128 0 -128 -206v-631z" />
<glyph unicode="R" horiz-adv-x="1138" d="M86 0v1536h526q225 0 334 -99.5t109 -324.5q0 -133 -39 -211q-43 -90 -152 -139v-4q166 -37 178 -199q6 -193 33 -485q14 -35 35 -54v-20h-393q-23 63 -23 199v125q-2 125 -14 178q-29 104 -115 104h-119v-606h-360zM446 883h123q129 0 129 190q0 127 -59 164 q-40 24 -157 24q-17 0 -36 -1v-377z" />
<glyph unicode="S" d="M33 350v164h334v-108q0 -166 143 -166q59 0 90 45t31 108q0 84 -66 146q-29 27 -135 90q-199 117 -270 196q-106 123 -107 312q0 213 123 325q117 111 330 111q229 0 352 -141q106 -121 106 -316q0 -20 -1 -41h-332q-4 106 -17 142q-25 74 -102 79q-8 1 -15 1 q-99 0 -110 -103q-1 -10 -1 -19q0 -97 110 -169q121 -72 238.5 -147t168.5 -157q61 -106 62 -280q0 -221 -120 -340t-343 -119q-233 0 -359 117q-111 104 -110 270z" />
<glyph unicode="T" d="M45 1229v307h934v-307h-291v-1229h-360v1229h-283z" />
<glyph unicode="U" horiz-adv-x="1138" d="M86 424v1112h360v-1159q0 -137 125 -137q123 0 123 147v1149h361v-1112q0 -461 -486 -461q-483 0 -483 461z" />
<glyph unicode="V" horiz-adv-x="1138" d="M23 1536h360l184 -1077h4l185 1077h360l-336 -1536h-424z" />
<glyph unicode="W" horiz-adv-x="1593" d="M20 1536h349l108 -1079l4 4l146 1075h348l139 -1077h4l113 1077h342l-256 -1536h-406l-110 1081h-4l-119 -1081h-399z" />
<glyph unicode="X" horiz-adv-x="1138" d="M27 0l342 766l-324 770h358l168 -467h4l164 467h361l-320 -770l334 -766h-360l-174 459h-5l-204 -459h-344z" />
<glyph unicode="Y" horiz-adv-x="1138" d="M23 1536h364l180 -502h4l185 502h360l-371 -891v-645h-360v645z" />
<glyph unicode="Z" horiz-adv-x="909" d="M20 0v274l455 955h-422v307h815v-287l-446 -942h467v-307h-869z" />
<glyph unicode="[" horiz-adv-x="569" d="M86 -383v1919h451v-195h-166v-1529h166v-195h-451z" />
<glyph unicode="\" horiz-adv-x="512" d="M-203 1536h258l662 -1536h-258z" />
<glyph unicode="]" horiz-adv-x="569" d="M33 -188h166v1529h-166v195h450v-1919h-450v195z" />
<glyph unicode="^" d="M31 764l360 772h242l360 -772l-209 -96l-274 571l-270 -571z" />
<glyph unicode="_" d="M0 -125h1024v-119h-1024v119z" />
<glyph unicode="`" horiz-adv-x="681" d="M-78 1602h426l205 -304h-281z" />
<glyph unicode="a" d="M49 270q0 223 148 326q47 31 272 104q147 47 147 144q0 49 -27.5 84t-74.5 35q-80 0 -104 -54q-14 -29 -21 -125h-326q-1 16 -1 32q0 363 442 364q240 0 339 -80t99 -271v-702q0 -51 27 -127h-318l-22 102q-127 -139 -281 -139q-137 0 -218 85t-81 222zM377 326 q0 -123 121 -123q118 0 118 174v180q-61 -27 -163 -84q-76 -55 -76 -147z" />
<glyph unicode="b" d="M98 0v1536h326v-483h4q66 127 244 127q147 0 219 -129q59 -104 59 -265v-397q0 -422 -284 -426h-4q-171 0 -256 168h-5v-131h-303zM424 440q0 -211 98 -211h2q68 0 90 72q11 37 11 127v297q0 186 -95 186q-106 0 -106 -200v-271z" />
<glyph unicode="c" d="M100 319v467q0 394 402 394h2q240 -2 342 -112q90 -96 90 -291q0 -27 -2 -56h-307l-2 20q-2 45 -13 131q-23 72 -88 72q-98 0 -98 -139v-473q0 -133 104 -133q78 0 97 100q4 29 4 166h315q0 -184 -26 -272q-59 -201 -308 -224q-66 -6 -108 -6q-403 0 -404 356z" />
<glyph unicode="d" d="M84 389v397q0 160 59 265q72 129 219 129q145 0 238 -138h4v494h326v-1536h-303v133h-4q-92 -170 -247 -170h-7q-285 6 -285 426zM410 414q0 -184 94 -185q100 0 100 199v270q0 215 -92 215h-2q-68 0 -90 -73q-10 -39 -10 -129v-297z" />
<glyph unicode="e" d="M78 319v467q0 389 438 394h10q183 0 295 -72q133 -86 133 -260v-328h-551v-201q0 -115 101 -120h9q70 0 91 61q6 20 14 137h324q1 -22 1 -44q0 -385 -427 -390h-9q-186 0 -298 78q-131 94 -131 278zM403 735h226v113q0 41 -25 74q-31 43 -86 43q-115 0 -115 -154v-76z " />
<glyph unicode="f" horiz-adv-x="681" d="M39 909v236h129l2 100q4 160 84 228q74 63 238 63h143v-236h-70q-70 0 -69 -38v-117h139v-236h-139v-909h-326v909h-131z" />
<glyph unicode="g" d="M74 -63h325q0 -66 19 -87q17 -23 68 -23q9 0 20 1q53 4 75.5 22.5t22.5 71.5v232h-4q-109 -125 -231 -125q-143 0 -219 114q-68 98 -68 246v397q0 160 59 265q73 129 217 129h4q176 -2 259 -172h4v139h303v-1170q0 -364 -434 -364h-2q-203 0 -297 63q-115 75 -121 261z M408 418q0 -123 96 -123q98 0 98 149v318q0 151 -105 151h-1q-88 0 -88 -170v-325z" />
<glyph unicode="h" d="M94 0v1536h326v-479h4q96 123 248 123q117 0 188.5 -74t71.5 -186v-920h-326v815q0 98 -92 98q-94 0 -94 -120v-793h-326z" />
<glyph unicode="i" horiz-adv-x="569" d="M123 0v1147h326v-1147h-326zM123 1260v276h326v-276h-326z" />
<glyph unicode="j" horiz-adv-x="569" d="M29 -152h41q61 0 61 105v1194h326v-1176q0 -176 -51 -258q-63 -100 -222 -100h-155v235zM131 1260v276h326v-276h-326z" />
<glyph unicode="k" d="M82 0v1536h326v-772h4l223 383h356l-323 -461l327 -686h-342l-190 442l-55 -73v-369h-326z" />
<glyph unicode="l" horiz-adv-x="569" d="M123 0v1536h326v-1536h-326z" />
<glyph unicode="m" horiz-adv-x="1478" d="M78 0v1147h303v-133h4q80 156 244 166h13q70 0 134 -38q68 -42 94 -114h4q88 152 238 152q121 0 206 -63.5t85 -176.5v-940h-326v819q0 94 -79 94h-7q-88 -4 -88 -94v-819h-325v819q-20 94 -78 94q-96 0 -97 -94v-819h-325z" />
<glyph unicode="n" d="M100 0v1147h303v-143h5q25 70 89 123t138 53q121 0 206 -63.5t85 -176.5v-940h-326v819q0 94 -79 94h-7q-88 -4 -88 -94v-819h-326z" />
<glyph unicode="o" d="M86 319v467q0 393 426 394q426 0 426 -394v-467q0 -356 -426 -356q-190 0 -301 80q-125 92 -125 276zM412 299q10 -100 100 -100t100 100v512q0 133 -100 133t-100 -133v-512z" />
<glyph unicode="p" d="M86 -387v1534h303v-139h4q94 170 266 172h4q144 0 216 -129q59 -102 59 -265v-397q0 -416 -285 -426h-7q-133 0 -230 146h-4v-496h-326zM412 440q0 -211 98 -211h2q68 0 90 72q10 37 10 127v297q0 188 -94 188q-106 0 -106 -202v-271z" />
<glyph unicode="q" d="M72 389v397q0 162 59 265q71 129 215 129h4q172 -2 266 -172h5v139h303v-1532h-326v494h-4q-97 -146 -231 -146h-7q-285 10 -284 426zM397 414q0 -184 95 -185q106 0 106 199v270q0 215 -98 215h-2q-68 0 -90 -73q-10 -39 -11 -129v-297z" />
<glyph unicode="r" horiz-adv-x="681" d="M86 0v1147h303v-174h4q61 207 252 207v-369q-43 8 -98 8q-72 0 -98 -18q-37 -25 -37 -94v-707h-326z" />
<glyph unicode="s" horiz-adv-x="909" d="M23 350h311q0 -10 -1 -20q0 -152 118 -152q116 0 116 107q0 57 -43 90q-109 49 -219 100q-133 63 -196 135q-82 94 -82 215q0 176 127 271q113 84 297 84q188 0 301 -90q114 -95 114 -261v-22h-305q-10 88 -18 108q-23 49 -90 50q-109 0 -109 -97q0 -70 102.5 -116.5 t204.5 -92.5q113 -57 164 -122q68 -84 68 -209q0 -182 -127 -279q-115 -86 -307 -86q-427 0 -427 360q0 13 1 27z" />
<glyph unicode="t" horiz-adv-x="681" d="M25 911v236h129v328h325v-328h156v-236h-156v-604q0 -80 72 -80q25 4 84 4v-229q-125 -18 -209 -18q-272 0 -272 264v663h-129z" />
<glyph unicode="u" d="M94 205v942h326v-821q0 -97 75 -97h5q94 4 94 97v821h326v-1147h-304v141h-4q-25 -70 -86 -123q-68 -55 -141 -55q-291 0 -291 242z" />
<glyph unicode="v" horiz-adv-x="909" d="M18 1147h328l109 -741h4l116 741h318l-252 -1147h-373z" />
<glyph unicode="w" horiz-adv-x="1366" d="M18 1147h316l92 -741h4l119 741h278l117 -741h4l90 741h312l-222 -1147h-348l-92 596h-4l-98 -596h-348z" />
<glyph unicode="x" horiz-adv-x="909" d="M18 0l269 573l-256 574h323l97 -322h4l102 322h326l-256 -574l264 -573h-326l-104 330h-4l-105 -330h-334z" />
<glyph unicode="y" horiz-adv-x="909" d="M12 1147h328l111 -741h4l112 741h320l-207 -981q-51 -244 -64 -283q-41 -135 -116 -196q-88 -74 -256 -74q-31 0 -73 5t-56 5v242q41 -4 63 -8q8 -2 17 -2q23 0 47 12q34 16 34 47q0 27 -36 195z" />
<glyph unicode="z" horiz-adv-x="796" d="M29 0v227l372 664h-350v256h717v-238l-373 -653h373v-256h-739z" />
<glyph unicode="{" horiz-adv-x="561" d="M-18 662v4q154 20 153 223v377q0 164 80 219q57 39 139 47q37 4 226 4v-4q-154 -35 -154 -229v-377q0 -117 -31 -172q-39 -63 -137 -86v-4q168 -25 168 -277v-352q0 -184 154 -223v-5q-162 -4 -203 0q-127 12 -184.5 72t-57.5 232v331q0 180 -153 220z" />
<glyph unicode="|" horiz-adv-x="512" d="M111 0v1536h290v-1536h-290z" />
<glyph unicode="}" horiz-adv-x="561" d="M-18 -188q154 35 153 225v350q0 117 27 172q37 74 141 105v4q-98 23 -135 88q-33 55 -33 170v379q0 197 -153 227v4q195 0 225 -2q84 -8 139 -47q80 -55 80 -221v-375q0 -203 154 -223v-4q-94 -12 -129 -74q-25 -47 -25 -148v-331q0 -172 -57.5 -231.5t-184.5 -72.5 q-45 -4 -202 0v5z" />
<glyph unicode="~" d="M53 465q125 254 273 254q72 0 209 -67.5t174 -67.5q49 0 88 53q30 49 59 98l117 -149q-70 -123 -105 -162q-72 -78 -159 -78q-68 0 -211.5 67.5t-169.5 67.5q-53 0 -97 -57q-10 -14 -61 -111z" />
<glyph horiz-adv-x="1019" d="M-84 535l43 96h115q6 51 24 149h-135l43 99h121q84 229 221 374q170 180 383 181q193 -1 338 -138l-47 -319l-98 12q0 322 -193 322q-211 0 -330 -432h353l-43 -99h-336q-12 -49 -33 -149h301l-43 -96h-274q-12 -84 -13 -152q0 -115 43 -186q53 -88 160 -88 q119 0 207 139q49 78 104 244l113 -21l-111 -385q-158 -109 -325 -109q-227 0 -340 173q-96 145 -96 385h-152z" />
<glyph unicode="&#xa1;" horiz-adv-x="681" d="M162 -2l88 655h184l88 -655v-385h-360v385zM168 797v350h346v-350h-346z" />
<glyph unicode="&#xa2;" d="M94 428v268q0 178 27 258q43 123 174 185q88 41 237 41l54 223h176l-53 -252q246 -80 225 -430h-289q0 135 -22 197q-4 10 -11 14l-118 -750q16 -4 28 -4q66 0 92.5 29t30.5 96q4 57 8 162h293q0 -252 -74 -365q-92 -137 -331 -137q-51 0 -78 4l-55 -268h-177l58 301 q-125 57 -166 180q-29 80 -29 248zM408 356q0 -117 18 -127l119 736q-2 2 -33 2q-104 0 -104 -176v-435z" />
<glyph unicode="&#xa3;" d="M0 186q94 66 153.5 163t59.5 204q0 76 -18 131h-185v127h131q-90 143 -94 358q-2 184 137 297q129 106 318 107q190 0 309 -94q129 -102 131 -283l2 -129h-313q0 115 -17 164q-31 86 -118 86q-123 0 -123 -182q0 -88 73 -324h293v-127h-258q0 -12 5.5 -46t5.5 -50 q0 -199 -242 -383v-4q104 61 223 61q63 0 145 -20.5t105 -20.5q98 0 178 70l68 -256q-154 -72 -262 -72q-61 0 -181 35t-184 35q-121 0 -227 -66z" />
<glyph unicode="&#xa4;" d="M0 281l90 90q-76 135 -76 262q0 143 76 268l-90 88l162 164l90 -90q129 78 264 78q150 0 275 -78l90 90l161 -164l-90 -88q74 -129 74 -266q0 -150 -74 -264l90 -90l-161 -162l-90 90q-133 -80 -265 -80q-152 0 -274 80l-90 -90zM268 635q0 -102 73 -177t179 -75 t179 74.5t73 177.5q0 102 -72.5 177t-179.5 75q-106 0 -179 -75t-73 -177z" />
<glyph unicode="&#xa5;" d="M-35 1536h393l154 -502l158 502h389l-367 -891v-65h187v-127h-187v-101h187v-127h-187v-225h-368v225h-183v127h183v101h-183v127h183v63z" />
<glyph unicode="&#xa6;" horiz-adv-x="512" d="M111 0v614h290v-614h-290zM111 922v614h290v-614h-290z" />
<glyph unicode="&#xa7;" d="M55 688q0 86 45 169t117 132q-92 84 -92 219q0 143 98 248q113 117 299 117q174 0 283 -90q119 -98 110 -269h-292q6 123 -105 123q-98 0 -98 -96q0 -51 41 -92q49 -49 209 -166q145 -106 207 -180q94 -113 94 -240q0 -102 -39 -176q-29 -53 -76 -92q-25 -16 -51 -35 q109 -96 108 -240q0 -201 -125 -303q-117 -94 -323 -94q-176 0 -279.5 108.5t-99.5 282.5h295q-8 -156 108 -155q135 0 127 100q-8 98 -153 203q-236 170 -266 198q-141 141 -142 328zM328 717q0 -47 41 -92q12 -14 77 -70q63 -47 189 -147q53 59 53 110q0 33 -15.5 53.5 t-31.5 38.5q-39 39 -254 203q-59 -43 -59 -96z" />
<glyph unicode="&#xa8;" horiz-adv-x="681" d="M-41 1311v266h324v-266h-324zM401 1311v266h324v-266h-324z" />
<glyph unicode="&#xa9;" horiz-adv-x="1699" d="M43 770q0 317 190 541q221 262 617 262q379 0 602 -244q205 -225 205 -559q0 -342 -221 -571q-228 -236 -586 -236q-395 0 -614 260q-193 223 -193 547zM244 770q0 -274 164.5 -442t437.5 -168q270 0 440 172t170 446q0 268 -169 433t-441 165q-270 0 -436 -168 t-166 -438zM438 778q0 203 120 333t321 130q147 0 250.5 -81t130.5 -224h-183q-27 150 -203 149q-123 0 -186 -90q-59 -80 -59 -209q0 -127 57 -211q66 -96 184 -96q80 0 138 37q65 41 69 111h183q-16 -141 -124 -227.5t-253 -86.5q-199 0 -322 133.5t-123 331.5z" />
<glyph unicode="&#xaa;" horiz-adv-x="614" d="M20 1028q0 90 56 156q29 43 147 82q76 25 86 28q43 16 64 35q10 25 10 43q0 59 -66 60q-51 0 -67 -33q-4 -10 -10 -64h-203q-14 238 272 238q137 0 199 -41q74 -49 74 -170v-420q0 -35 14 -78h-195l-10 62h-2q-78 -82 -176 -82q-86 0 -139.5 51t-53.5 133zM37 567v164 h545v-164h-545zM240 1061q0 -76 67 -76q76 1 76 107v108q-51 -25 -102 -51q-41 -29 -41 -88z" />
<glyph unicode="&#xab;" d="M76 489v299l368 246v-268l-206 -129l206 -119v-266zM567 489v299l369 246v-268l-209 -129l209 -119v-266z" />
<glyph unicode="&#xac;" d="M53 594v235h920v-593h-236v358h-684z" />
<glyph unicode="&#xad;" horiz-adv-x="692" d="M16 356l68 250h504l-68 -250h-504z" />
<glyph unicode="&#xae;" horiz-adv-x="1699" d="M43 770q0 317 190 541q221 262 617 262q379 0 602 -244q205 -225 205 -559q0 -342 -221 -571q-228 -236 -586 -236q-395 0 -614 260q-193 223 -193 547zM244 770q0 -274 164.5 -442t437.5 -168q270 0 440 172t170 446q0 268 -169 433t-441 165q-270 0 -436 -168 t-166 -438zM477 330v870h488q291 0 290 -268q0 -217 -237 -234l211 -368h-219l-193 348h-149v-348h-191zM668 827h254q78 0 108 21q37 29 37 106q0 98 -188 99h-211v-226z" />
<glyph unicode="&#xaf;" horiz-adv-x="681" d="M-43 1358v184h770v-184h-770z" />
<glyph unicode="&#xb0;" horiz-adv-x="819" d="M102 1229q0 127 90.5 217t217.5 90t217 -90t90 -217t-90 -217t-217 -90t-217.5 90t-90.5 217zM319 1229q0 -37 27 -63.5t64 -26.5t63.5 26.5t26.5 63.5t-27 63.5t-63 26.5q-37 0 -64 -26.5t-27 -63.5z" />
<glyph unicode="&#xb1;" d="M53 -25v236h920v-236h-920zM53 567v236h342v241h236v-241h342v-236h-342v-256h-236v256h-342z" />
<glyph unicode="&#xb2;" horiz-adv-x="614" d="M8 614v31q0 186 209 391l100 99q66 63 66 157q0 96 -84 90q-78 -4 -78 -135v-45h-211v49q0 285 305 285q289 0 289 -254q0 -154 -125 -264l-86 -76q-121 -106 -131 -162h344v-166h-598z" />
<glyph unicode="&#xb3;" horiz-adv-x="614" d="M8 848v63h211q6 -100 8 -106q16 -59 76 -60q82 0 82 119q0 100 -51 129q-25 14 -70 15q-34 2 -71 2v147q68 2 71 4q41 4 66 21q41 27 41 104q0 94 -78 94q-49 0 -64 -49q-2 -4 -8 -86h-213v68q0 98 94 164q84 59 197 59q285 0 285 -238q0 -147 -135 -204v-2 q158 -37 157 -228q0 -272 -307 -272q-137 0 -214 66.5t-77 189.5z" />
<glyph unicode="&#xb4;" horiz-adv-x="681" d="M129 1298l205 304h426l-350 -304h-281z" />
<glyph unicode="&#xb6;" horiz-adv-x="1126" d="M23 1171q0 199 116 287q106 78 326 78h668v-236h-76v-1538h-277v1538h-135v-1538h-276v1059q-158 0 -252 94.5t-94 255.5z" />
<glyph unicode="&#xb7;" horiz-adv-x="681" d="M168 336v350h346v-350h-346z" />
<glyph unicode="&#xb8;" horiz-adv-x="681" d="M78 -418l43 94q150 -41 176 -41q43 0 76 20.5t30 55.5q-2 68 -81 72q-43 2 -86 -21l-54 50l115 188h119l-82 -131q33 12 80 10q78 -2 131 -41q61 -43 61 -117q0 -92 -86 -147q-76 -49 -172 -49q-104 0 -270 57z" />
<glyph unicode="&#xb9;" horiz-adv-x="614" d="M100 1257v142q231 -4 265 137h149v-901h-211v622h-203z" />
<glyph unicode="&#xba;" horiz-adv-x="614" d="M31 567v164h553v-164h-553zM31 1057v280q0 236 276 236t277 -236v-280q0 -213 -277 -213q-276 0 -276 213zM242 1044q6 -59 65 -59t66 59v308q0 80 -66 80q-65 0 -65 -80v-308z" />
<glyph unicode="&#xbb;" d="M88 252v266l209 119l-209 129v268l369 -246v-299zM580 252v266l206 119l-206 129v268l368 -246v-299z" />
<glyph unicode="&#xbc;" horiz-adv-x="1536" d="M29 1257v142q231 -4 264 137h149v-901h-211v622h-202zM266 0l840 1536h172l-834 -1536h-178zM877 176v172l311 553h231v-571h88v-154h-88v-176h-211v176h-331zM1042 330h166v299h-4z" />
<glyph unicode="&#xbd;" horiz-adv-x="1536" d="M20 1257v142q231 -4 265 137h149v-901h-211v622h-203zM221 0l840 1536h172l-834 -1536h-178zM918 0v31q0 186 208 391l101 98q66 63 65 158q0 96 -84 90q-78 -4 -78 -135v-45h-210v49q0 285 305 285q289 0 288 -254q0 -154 -124 -265l-86 -75q-121 -106 -132 -162h345 v-166h-598z" />
<glyph unicode="&#xbe;" horiz-adv-x="1536" d="M2 848v63h211q6 -100 8 -106q16 -59 76 -60q82 0 82 119q0 100 -51 129q-25 14 -70 15q-35 2 -72 2v147q68 2 72 4q41 4 66 21q41 27 41 104q0 94 -78 94q-49 0 -64 -49q-2 -4 -8 -86h-213v68q0 98 94 164q84 59 197 59q285 0 285 -238q0 -147 -136 -204v-2 q158 -37 158 -228q0 -272 -307 -272q-137 0 -214 66.5t-77 189.5zM328 0l839 1536h172l-833 -1536h-178zM891 176v172l311 553h232v-571h88v-154h-88v-176h-211v176h-332zM1057 330h166v299h-4z" />
<glyph unicode="&#xbf;" d="M57 2q0 154 136 320q47 53 133 165q37 51 47 99q6 25 14 108h309q4 -199 -51 -288q-133 -166 -139 -175q-88 -125 -88 -206q0 -135 114 -136q80 0 107 68q16 43 16 141h326q10 -215 -116 -350t-339 -135q-205 0 -329 90q-139 102 -140 299zM371 829v351h346v-351h-346z " />
<glyph unicode="&#xc0;" horiz-adv-x="1138" d="M18 0l336 1536h434l334 -1536h-364l-51 299h-283l-43 -299h-363zM236 1864h299l143 -213h-197zM463 569h209l-101 688z" />
<glyph unicode="&#xc1;" horiz-adv-x="1138" d="M18 0l336 1536h434l334 -1536h-364l-51 299h-283l-43 -299h-363zM463 569h209l-101 688zM475 1649l143 213h297l-243 -213h-197z" />
<glyph unicode="&#xc2;" horiz-adv-x="1138" d="M18 0l336 1536h434l334 -1536h-364l-51 299h-283l-43 -299h-363zM279 1618l172 211h235l174 -211h-213l-78 106l-80 -106h-210zM463 569h209l-101 688z" />
<glyph unicode="&#xc3;" horiz-adv-x="1138" d="M18 0l336 1536h434l334 -1536h-364l-51 299h-283l-43 -299h-363zM303 1649q35 199 176 202q29 0 64 -8q12 0 52 -19.5t52 -21.5t41 -6q59 0 60 53h114q-14 -186 -178 -190q-51 -2 -129 31q-31 12 -76 20q-49 0 -63 -61h-113zM463 569h209l-101 688z" />
<glyph unicode="&#xc4;" horiz-adv-x="1138" d="M18 0l336 1536h434l334 -1536h-364l-51 299h-283l-43 -299h-363zM188 1700v266h324v-266h-324zM463 569h209l-101 688h-4zM630 1700v266h324v-266h-324z" />
<glyph unicode="&#xc5;" horiz-adv-x="1138" d="M18 0l336 1536h434l334 -1536h-364l-51 299h-283l-43 -299h-363zM340 1798q0 94 68.5 161.5t162.5 67.5t161.5 -67.5t67.5 -161.5t-67.5 -163t-161.5 -69t-162.5 69t-68.5 163zM463 569h209l-101 688h-4zM465 1798q0 -43 31.5 -75t74.5 -32t75 33t32 74t-33 73.5 t-74 32.5t-73.5 -31.5t-32.5 -74.5z" />
<glyph unicode="&#xc6;" horiz-adv-x="1593" d="M-47 0l555 1536h1003v-307h-454v-287h436v-307h-436v-328h469v-307h-809v332h-291l-96 -332h-377zM502 639h209v590h-33z" />
<glyph unicode="&#xc7;" horiz-adv-x="1138" d="M80 453v630q0 489 483 490q492 0 492 -445v-129h-361v99q0 197 -114 198q-80 0 -110 -38.5t-30 -120.5l-2 -760q0 -137 129 -137q133 0 133 221v139h361v-188q0 -209 -121 -324q-133 -125 -399 -125q-461 0 -461 490zM307 -418l43 94q150 -41 176 -41q43 0 76 20.5 t30 55.5q-2 68 -81 72q-43 2 -86 -21l-54 50l115 188h119l-82 -131q33 12 80 10q78 -2 131 -41q61 -43 61 -117q0 -92 -86 -147q-76 -49 -172 -49q-104 0 -270 57z" />
<glyph unicode="&#xc8;" d="M94 0v1536h826v-307h-465v-283h450v-307h-450v-332h489v-307h-850zM164 1874h299l143 -213h-196z" />
<glyph unicode="&#xc9;" d="M94 0v1536h826v-307h-465v-283h450v-307h-450v-332h489v-307h-850zM403 1661l144 213h297l-244 -213h-197z" />
<glyph unicode="&#xca;" d="M94 0v1536h826v-307h-465v-283h450v-307h-450v-332h489v-307h-850zM211 1642l172 211h235l175 -211h-213l-78 107l-80 -107h-211z" />
<glyph unicode="&#xcb;" d="M94 0v1536h826v-307h-465v-283h450v-307h-450v-332h489v-307h-850zM131 1700v266h324v-266h-324zM573 1700v266h324v-266h-324z" />
<glyph unicode="&#xcc;" horiz-adv-x="569" d="M-57 1874h299l143 -213h-197zM104 0v1536h361v-1536h-361z" />
<glyph unicode="&#xcd;" horiz-adv-x="569" d="M104 0v1536h361v-1536h-361zM178 1661l144 213h296l-243 -213h-197z" />
<glyph unicode="&#xce;" horiz-adv-x="569" d="M-129 1646l246 304h338l248 -304h-303l-113 154l-115 -154h-301zM104 0v1536h361v-1536h-361z" />
<glyph unicode="&#xcf;" horiz-adv-x="569" d="M-96 1700v266h324v-266h-324zM104 0v1536h361v-1536h-361zM346 1700v266h324v-266h-324z" />
<glyph unicode="&#xd0;" horiz-adv-x="1138" d="M20 631v276h115v629h391q283 0 406 -72q162 -94 162 -379v-682q0 -233 -154 -331q-113 -72 -319 -72h-486v631h-115zM496 276q166 -10 209 60q29 47 28 227v502q0 127 -53 164q-41 27 -184 31v-353h106v-276h-106v-355z" />
<glyph unicode="&#xd1;" horiz-adv-x="1138" d="M88 0v1536h371l278 -858h6l-34 858h342v-1536h-369l-281 860l-4 -4l33 -856h-342zM170 1646q55 289 252 289q68 0 168 -40t131 -40t57 23.5t29 52.5h163q-14 -119 -73 -190q-68 -82 -183 -82q-66 0 -163 37.5t-129 37.5q-74 0 -91 -88h-161z" />
<glyph unicode="&#xd2;" horiz-adv-x="1138" d="M82 489v625q0 455 491 459q229 2 357.5 -115t128.5 -344v-625q0 -270 -105 -393q-115 -131 -381 -133q-264 -2 -383 133q-109 125 -108 393zM229 1894h299l144 -213h-197zM442 459q0 -217 131 -219q125 -2 125 219v631q0 94 -18 137q-29 70 -109 69q-129 0 -129 -206 v-631z" />
<glyph unicode="&#xd3;" horiz-adv-x="1138" d="M82 489v625q0 455 491 459q229 2 357.5 -115t128.5 -344v-625q0 -270 -105 -393q-115 -131 -381 -133q-264 -2 -383 133q-109 125 -108 393zM442 459q0 -217 131 -219q125 -2 125 219v631q0 94 -18 137q-29 70 -109 69q-129 0 -129 -206v-631zM475 1681l143 213h297 l-243 -213h-197z" />
<glyph unicode="&#xd4;" horiz-adv-x="1138" d="M82 489v625q0 455 491 459q229 2 357.5 -115t128.5 -344v-625q0 -270 -105 -393q-115 -131 -381 -133q-264 -2 -383 133q-109 125 -108 393zM283 1663l172 211h235l174 -211h-213l-78 106l-79 -106h-211zM442 459q0 -217 131 -219q125 -2 125 219v631q0 94 -18 137 q-29 70 -109 69q-129 0 -129 -206v-631z" />
<glyph unicode="&#xd5;" horiz-adv-x="1138" d="M82 489v625q0 455 491 459q229 2 357.5 -115t128.5 -344v-625q0 -270 -105 -393q-115 -131 -381 -133q-264 -2 -383 133q-109 125 -108 393zM303 1677q35 199 176 203q29 0 64 -8q12 0 52 -19.5t52 -21.5t41 -6q59 0 60 53h114q-14 -186 -178 -190q-51 -2 -129 30 q-31 12 -76 21q-49 0 -63 -62h-113zM442 459q0 -217 131 -219q125 -2 125 219v631q0 94 -18 137q-29 70 -109 69q-129 0 -129 -206v-631z" />
<glyph unicode="&#xd6;" horiz-adv-x="1138" d="M82 489v625q0 221 127 340t364 119q236 0 361 -119t125 -340v-625q0 -270 -107 -393q-115 -133 -379 -133q-266 0 -383 133q-109 125 -108 393zM188 1700v266h324v-266h-324zM442 459q0 -219 131 -219q125 0 125 219v631q0 207 -127 206q-129 0 -129 -206v-631zM630 1700 v266h324v-266h-324z" />
<glyph unicode="&#xd7;" d="M68 244l278 278l-278 279l168 166l276 -279l279 279l165 -166l-276 -279l276 -278l-165 -166l-279 278l-276 -278z" />
<glyph unicode="&#xd8;" horiz-adv-x="1138" d="M10 -76l137 236q-66 119 -65 329v625q0 221 127 340t364 119q201 0 320 -88l111 192l180 -94l-158 -270q33 -80 33 -199v-625q0 -270 -107 -393q-115 -133 -379 -133q-180 0 -290 62l-105 -199zM442 602h4l252 465v23q0 207 -127 206q-129 1 -129 -206v-488zM446 389 q20 -150 127 -149q125 0 125 219v377h-4z" />
<glyph unicode="&#xd9;" horiz-adv-x="1138" d="M86 424v1112h360v-1159q0 -135 125 -137q61 -2 97 49q27 39 26 98v1149h361v-1112q0 -459 -486 -461q-483 -2 -483 461zM225 1874h299l144 -213h-197z" />
<glyph unicode="&#xda;" horiz-adv-x="1138" d="M86 424v1112h360v-1159q0 -135 125 -137q61 -2 97 49q27 39 26 98v1149h361v-1112q0 -459 -486 -461q-483 -2 -483 461zM481 1661l144 213h297l-244 -213h-197z" />
<glyph unicode="&#xdb;" horiz-adv-x="1138" d="M86 424v1112h360v-1159q0 -137 125 -137q123 0 123 147v1149h361v-1112q0 -461 -486 -461q-483 0 -483 461zM155 1646l246 304h338l248 -304h-303l-113 154l-115 -154h-301z" />
<glyph unicode="&#xdc;" horiz-adv-x="1138" d="M86 424v1112h360v-1159q0 -137 125 -137q123 0 123 147v1149h361v-1112q0 -461 -486 -461q-483 0 -483 461zM188 1700v266h324v-266h-324zM630 1700v266h324v-266h-324z" />
<glyph unicode="&#xdd;" horiz-adv-x="1138" d="M23 1536h364l180 -502l189 502h360l-371 -891v-645h-360v645zM487 1640l144 213h297l-244 -213h-197z" />
<glyph unicode="&#xde;" horiz-adv-x="1138" d="M109 0v1536h360v-299h68q328 0 440 -127q100 -113 100 -334q0 -334 -203 -428q-82 -39 -200 -47q-33 -2 -205 -2v-299h-360zM469 575q104 4 104 5q61 6 99 34q45 49 45 156q0 147 -68 178q-35 12 -141 13h-39v-386z" />
<glyph unicode="&#xdf;" d="M90 0v1206q0 180 117 277q111 90 307 90q186 0 300 -111.5t104 -294.5q-6 -104 -33 -159q-33 -70 -115 -115v-4q84 -25 135 -133q39 -86 39 -166v-232q0 -383 -338 -395q-45 -2 -108 33v235q23 -4 39 -4q55 0 71 52q10 29 10 98v241q1 142 -120 134v235q68 -4 86 57 q8 25 8 117q0 90 -8 117q-18 59 -84 59q-84 0 -84 -100v-1237h-326z" />
<glyph unicode="&#xe0;" d="M49 270q0 158 67.5 249t217.5 140q66 20 194 64q86 41 88 121q2 47 -26.5 82t-75.5 37q-80 2 -106 -54q-18 -37 -19 -125h-326q0 393 441 396q217 2 315 -64q123 -80 123 -287v-702q0 -63 27 -127h-318l-22 102q-119 -137 -281 -139q-139 -2 -219 82t-80 225zM205 1485 h268l129 -193h-176zM377 326q-4 -119 121 -123q61 -2 94 59q24 47 24 115v180q-80 -33 -167 -86q-70 -41 -72 -145z" />
<glyph unicode="&#xe1;" d="M49 270q0 158 67.5 249t217.5 140q66 20 194 64q86 41 88 121q2 47 -26.5 82t-75.5 37q-80 2 -106 -54q-18 -37 -19 -125h-326q0 393 441 396q217 2 315 -64q123 -80 123 -287v-702q0 -63 27 -127h-318l-22 102q-119 -137 -281 -139q-139 -2 -219 82t-80 225zM377 326 q-4 -119 121 -123q61 -2 94 59q24 47 24 115v180q-80 -33 -167 -86q-70 -41 -72 -145zM426 1292l129 191h266l-219 -191h-176z" />
<glyph unicode="&#xe2;" d="M49 270q0 158 67.5 249t217.5 140q66 20 194 64q86 41 88 121q2 47 -26.5 82t-75.5 37q-80 2 -106 -54q-18 -37 -19 -125h-326q0 393 441 396q217 2 315 -64q123 -80 123 -287v-702q0 -63 27 -127h-318l-22 102q-119 -137 -281 -139q-139 -2 -219 82t-80 225zM248 1270 l155 190h213l156 -190h-192l-70 96l-72 -96h-190zM377 326q-4 -119 121 -123q61 -2 94 59q24 47 24 115v180q-80 -33 -167 -86q-70 -41 -72 -145z" />
<glyph unicode="&#xe3;" d="M49 270q0 158 67.5 249t217.5 140q66 20 194 64q86 41 88 121q2 47 -26.5 82t-75.5 37q-80 2 -106 -54q-18 -37 -19 -125h-326q0 393 441 396q217 2 315 -64q123 -80 123 -287v-702q0 -63 27 -127h-318l-22 102q-119 -137 -281 -139q-139 -2 -219 82t-80 225zM266 1292 q27 178 158 183q47 2 149 -39q14 -6 39 -11q18 0 36 15.5t18 34.5h102q-15 -172 -160 -172q-57 0 -106 24q-27 8 -78 21q-45 0 -57 -56h-101zM377 326q-4 -119 121 -123q61 -2 94 59q24 47 24 115v180q-80 -33 -167 -86q-70 -41 -72 -145z" />
<glyph unicode="&#xe4;" d="M49 270q0 223 148 326q47 31 272 104q147 47 147 144q0 49 -27.5 84t-74.5 35q-80 0 -104 -54q-14 -29 -21 -125h-326q-20 395 441 396q240 0 339 -80t99 -271v-702q0 -51 27 -127h-318l-22 102q-127 -139 -281 -139q-137 0 -218 85t-81 222zM131 1311v266h324v-266h-324 zM377 326q0 -123 121 -123q118 0 118 174v180q-61 -27 -163 -84q-76 -55 -76 -147zM573 1311v266h324v-266h-324z" />
<glyph unicode="&#xe5;" d="M49 270q0 223 148 326q47 31 272 104q147 47 147 144q0 49 -27.5 84t-74.5 35q-80 0 -104 -54q-14 -29 -21 -125h-326q-20 395 441 396q240 0 339 -80t99 -271v-702q0 -51 27 -127h-318l-22 102q-127 -139 -281 -139q-137 0 -218 85t-81 222zM283 1532q0 94 68.5 161.5 t162.5 67.5t161.5 -67.5t67.5 -161.5t-67.5 -163t-161.5 -69t-162.5 69t-68.5 163zM377 326q0 -123 121 -123q118 0 118 174v180q-61 -27 -163 -84q-76 -55 -76 -147zM408 1532q0 -43 31.5 -75t74.5 -32t75 33t32 74t-33 73.5t-74 32.5t-73.5 -31.5t-32.5 -74.5z" />
<glyph unicode="&#xe6;" horiz-adv-x="1478" d="M41 289q0 172 78 258q68 74 241 129q78 25 158 49q90 41 90 121q0 119 -114 119q-135 0 -127 -177h-326q-25 391 453 392q172 0 280 -90q111 90 264 90q432 0 432 -412v-264h-540v-168q0 -147 104 -148q70 0 88 70q4 12 11 121h325q23 -416 -436 -416q-86 0 -162 27 q-94 35 -127 96q-111 -123 -366 -123q-150 0 -238 87t-88 239zM369 322q0 -123 108 -123q86 0 113 98q14 49 14 168v90q-82 -39 -162 -78q-74 -45 -73 -155zM926 719h219v121q-12 125 -101 125q-119 0 -118 -158v-88z" />
<glyph unicode="&#xe7;" d="M100 319v467q0 395 404 394q240 -2 342 -111.5t88 -347.5h-307l-2 20q-2 45 -13 131q-23 72 -88 72q-98 0 -98 -139v-473q0 -133 104 -133q78 0 97 100q4 29 4 166h315q0 -184 -26 -272q-59 -201 -308 -224q-66 -6 -108 -6q-403 0 -404 356zM250 -418l43 94 q150 -41 176 -41q43 0 76 20.5t30 55.5q-2 68 -81 72q-43 2 -86 -21l-54 50l115 188h119l-82 -131q33 12 80 10q78 -2 131 -41q61 -43 61 -117q0 -92 -86 -147q-76 -49 -172 -49q-104 0 -270 57z" />
<glyph unicode="&#xe8;" d="M78 319v467q0 393 438 394q438 0 438 -332v-328h-551v-201q0 -119 101 -120q78 -2 102 63q12 33 12 135h324q0 -434 -426 -434q-193 0 -307 80q-131 92 -131 276zM203 1485h268l129 -193h-176zM403 735h226v113q0 51 -31 84t-80 33q-115 0 -115 -154v-76z" />
<glyph unicode="&#xe9;" d="M78 319v467q0 393 438 394q438 0 438 -332v-328h-551v-201q0 -119 101 -120q78 -2 102 63q12 33 12 135h324q0 -434 -426 -434q-193 0 -307 80q-131 92 -131 276zM403 735h226v113q0 51 -31 84t-80 33q-115 0 -115 -154v-76zM426 1292l129 191h266l-219 -191h-176z" />
<glyph unicode="&#xea;" d="M78 319v467q0 393 438 394q438 0 438 -332v-328h-551v-201q0 -119 101 -120q78 -2 102 63q12 33 12 135h324q0 -434 -426 -434q-193 0 -307 80q-131 92 -131 276zM248 1270l155 190h211l158 -190h-192l-70 96l-72 -96h-190zM403 735h226v113q0 51 -31 84t-80 33 q-115 0 -115 -154v-76z" />
<glyph unicode="&#xeb;" d="M78 319v467q0 389 438 394q190 2 305 -72q133 -86 133 -260v-328h-551v-201q0 -115 101 -120q78 -4 100 61q6 20 14 137h324q25 -428 -426 -434q-193 -2 -307 78q-131 94 -131 278zM131 1311v266h324v-266h-324zM403 735h226v113q0 41 -25 74q-31 43 -86 43 q-115 0 -115 -154v-76zM573 1311v266h324v-266h-324z" />
<glyph unicode="&#xec;" horiz-adv-x="569" d="M-18 1464h268l129 -192h-176zM123 0v1147h326v-1147h-326z" />
<glyph unicode="&#xed;" horiz-adv-x="569" d="M123 0v1147h326v-1147h-326zM201 1274l129 190h266l-219 -190h-176z" />
<glyph unicode="&#xee;" horiz-adv-x="569" d="M-150 1257l246 304h338l248 -304h-303l-113 154l-115 -154h-301zM123 0v1147h326v-1147h-326z" />
<glyph unicode="&#xef;" horiz-adv-x="569" d="M-96 1311v266h324v-266h-324zM123 0v1147h326v-1147h-326zM346 1311v266h324v-266h-324z" />
<glyph unicode="&#xf0;" d="M78 319v467q0 393 426 394q45 0 69 -2q-20 98 -67 131l-137 -92l-76 86l76 55q-72 12 -193 18v160q231 0 375 -47l141 100l86 -98l-92 -61q244 -154 244 -644v-467q0 -356 -426 -356q-190 0 -301 80q-125 92 -125 276zM403 299q10 -100 101 -100q90 0 100 100v512 q0 133 -100 133q-101 0 -101 -133v-512z" />
<glyph unicode="&#xf1;" d="M100 0v1147h303v-143h5q25 70 89 123t138 53q121 0 206 -63.5t85 -176.5v-940h-326v819q0 98 -86 94q-88 -4 -88 -94v-819h-326zM113 1257q55 289 252 289q68 0 168 -40t131 -40t57 23.5t29 52.5h163q-14 -119 -73 -190q-68 -82 -183 -82q-66 0 -163 37.5t-129 37.5 q-74 0 -91 -88h-161z" />
<glyph unicode="&#xf2;" d="M86 319v467q0 393 426 394q426 0 426 -394v-467q0 -352 -426 -356q-190 -2 -301 80q-125 92 -125 276zM203 1485h268l129 -193h-176zM412 299q10 -98 100 -100q88 -2 100 100v512q0 133 -100 133t-100 -133v-512z" />
<glyph unicode="&#xf3;" d="M86 319v467q0 393 426 394q426 0 426 -394v-467q0 -352 -426 -356q-190 -2 -301 80q-125 92 -125 276zM412 299q10 -98 100 -100q88 -2 100 100v512q0 133 -100 133t-100 -133v-512zM426 1292l129 191h266l-219 -191h-176z" />
<glyph unicode="&#xf4;" d="M86 319v467q0 393 426 394q426 0 426 -394v-467q0 -352 -426 -356q-190 -2 -301 80q-125 92 -125 276zM248 1270l155 190h213l156 -190h-192l-70 96l-72 -96h-190zM412 299q10 -98 100 -100q88 -2 100 100v512q0 133 -100 133t-100 -133v-512z" />
<glyph unicode="&#xf5;" d="M86 319v467q0 393 426 394q426 0 426 -394v-467q0 -352 -426 -356q-190 -2 -301 80q-125 92 -125 276zM266 1292q27 178 158 183q47 2 149 -39q14 -6 39 -11q18 0 36 15.5t18 34.5h102q-15 -172 -160 -172q-57 0 -106 24q-27 8 -78 21q-45 0 -57 -56h-101zM412 299 q10 -98 100 -100q88 -2 100 100v512q0 133 -100 133t-100 -133v-512z" />
<glyph unicode="&#xf6;" d="M86 319v467q0 393 426 394q426 0 426 -394v-467q0 -356 -426 -356q-190 0 -301 80q-125 92 -125 276zM131 1311v266h324v-266h-324zM412 299q10 -100 100 -100t100 100v512q0 133 -100 133t-100 -133v-512zM573 1311v266h324v-266h-324z" />
<glyph unicode="&#xf7;" d="M53 393v236h920v-236h-920zM350 14v236h326v-236h-326zM350 772v236h326v-236h-326z" />
<glyph unicode="&#xf8;" d="M-23 -55l142 209q-33 78 -33 165v467q0 393 426 394q166 -1 264 -60l107 176l147 -94l-137 -205q45 -82 45 -211v-467q0 -356 -426 -356q-178 0 -281 68l-112 -183zM412 299q10 -100 100 -100t100 100v377l-200 -297v-80zM412 510l200 289q0 145 -100 145t-100 -133v-301 z" />
<glyph unicode="&#xf9;" d="M94 205v942h326v-821q0 -96 80 -97q94 0 94 97v821h326v-1147h-304v141q-29 -76 -92 -127t-139 -51q-291 -2 -291 242zM203 1475h268l129 -193h-176z" />
<glyph unicode="&#xfa;" d="M94 205v942h326v-821q0 -96 80 -97q94 0 94 97v821h326v-1147h-304v141q-29 -76 -92 -127t-139 -51q-291 -2 -291 242zM426 1272l129 190h266l-219 -190h-176z" />
<glyph unicode="&#xfb;" d="M94 205v942h326v-821q0 -100 80 -97q94 4 94 97v821h326v-1147h-304v141h-4q-25 -70 -86 -123q-68 -55 -141 -55q-291 0 -291 242zM98 1278l246 304h338l248 -304h-303l-113 154l-115 -154h-301z" />
<glyph unicode="&#xfc;" d="M94 205v942h326v-821q0 -100 80 -97q94 4 94 97v821h326v-1147h-304v141h-4q-25 -70 -86 -123q-68 -55 -141 -55q-291 0 -291 242zM131 1311v266h324v-266h-324zM573 1311v266h324v-266h-324z" />
<glyph unicode="&#xfd;" horiz-adv-x="909" d="M12 1147h328l111 -741l116 741h320l-207 -981q-39 -180 -62 -256q-51 -164 -124 -227q-84 -70 -250 -70q-27 0 -129 10v242l63 -8q94 -12 98 57q2 41 -12 98q-12 47 -24 97zM360 1249l129 191h267l-219 -191h-177z" />
<glyph unicode="&#xfe;" d="M86 -387v1923h303v-528h4q94 170 266 172q147 2 220 -129q59 -102 59 -265v-397q0 -416 -285 -426q-137 -4 -237 146h-4v-496h-326zM412 440q0 -213 100 -211q68 0 90 72q10 37 10 127v297q0 188 -94 188q-106 0 -106 -202v-271z" />
<glyph unicode="&#xff;" horiz-adv-x="909" d="M12 1147h328l111 -741h4l112 741h320l-207 -981q-51 -244 -64 -283q-41 -135 -116 -196q-88 -74 -256 -74q-31 0 -73 5t-56 5v242q41 -4 63 -8q31 -6 64.5 10t33.5 47q0 27 -36 195zM74 1311v266h324v-266h-324zM516 1311v266h324v-266h-324z" />
<glyph unicode="&#x152;" horiz-adv-x="1593" d="M68 530v480q0 563 360 563q193 0 293 -164h4v127h782v-307h-465v-285h451v-307h-451v-332h480v-307h-803v133h-4q-86 -168 -279 -168q-219 0 -307 187q-61 131 -61 380zM428 461q0 -113 12 -150q25 -70 113 -69q94 0 125 65q18 41 18 150v633q0 90 -12 127q-23 66 -94 73 q-102 10 -139 -71q-23 -53 -23 -166v-592z" />
<glyph unicode="&#x153;" horiz-adv-x="1478" d="M72 395v355q0 211 86 313q96 117 311 117q199 0 307 -121q119 121 291 121q174 0 286.5 -92t112.5 -254v-330h-534v-98q0 -109 10 -138q23 -70 109 -69q61 0 82 77q8 31 12 119h317q6 -432 -426 -432q-166 0 -264 117q-104 -117 -295 -117q-225 0 -321 115 q-84 102 -84 317zM397 301q0 -102 103 -102q96 0 106 102v537q-14 106 -106 106q-102 0 -103 -106v-537zM932 719h209v82q0 156 -86 164q-98 8 -113 -84q-4 -21 -10 -162z" />
<glyph unicode="&#x178;" horiz-adv-x="1138" d="M23 1536h364l180 -502h4l185 502h360l-371 -891v-645h-360v645zM188 1700v266h324v-266h-324zM630 1700v266h324v-266h-324z" />
<glyph unicode="&#x2c6;" horiz-adv-x="681" d="M-74 1298l246 304h338l248 -304h-303l-113 154l-115 -154h-301z" />
<glyph unicode="&#x2dc;" horiz-adv-x="681" d="M-59 1298q55 289 252 289q68 0 168 -40t131 -40t57 23.5t29 52.5h163q-14 -119 -73 -190q-68 -82 -183 -82q-66 0 -163 37.5t-129 37.5q-74 0 -91 -88h-161z" />
<glyph unicode="&#x2000;" horiz-adv-x="1013" />
<glyph unicode="&#x2001;" horiz-adv-x="2027" />
<glyph unicode="&#x2002;" horiz-adv-x="1013" />
<glyph unicode="&#x2003;" horiz-adv-x="2027" />
<glyph unicode="&#x2004;" horiz-adv-x="675" />
<glyph unicode="&#x2005;" horiz-adv-x="506" />
<glyph unicode="&#x2006;" horiz-adv-x="337" />
<glyph unicode="&#x2007;" horiz-adv-x="337" />
<glyph unicode="&#x2008;" horiz-adv-x="253" />
<glyph unicode="&#x2009;" horiz-adv-x="405" />
<glyph unicode="&#x200a;" horiz-adv-x="112" />
<glyph unicode="&#x2010;" horiz-adv-x="681" d="M88 485v308h508v-308h-508z" />
<glyph unicode="&#x2011;" horiz-adv-x="681" d="M88 485v308h508v-308h-508z" />
<glyph unicode="&#x2012;" horiz-adv-x="681" d="M88 485v308h508v-308h-508z" />
<glyph unicode="&#x2013;" d="M0 518v236h1024v-236h-1024z" />
<glyph unicode="&#x2014;" horiz-adv-x="2048" d="M0 518v236h2048v-236h-2048z" />
<glyph unicode="&#x2018;" horiz-adv-x="569" d="M127 932v330q0 288 324 311v-117q-86 -2 -131.5 -55t-40.5 -141h172v-328h-324z" />
<glyph unicode="&#x2019;" horiz-adv-x="569" d="M119 895v117q86 2 131 55t41 141h-172v328h323v-330q1 -288 -323 -311z" />
<glyph unicode="&#x201a;" horiz-adv-x="569" d="M123 2v328h323v-330q1 -288 -323 -311v116q86 2 131 55.5t41 141.5h-172z" />
<glyph unicode="&#x201c;" d="M109 932v330q-1 288 323 311v-117q-86 -2 -131 -55t-41 -141h172v-328h-323zM600 932v330q0 288 324 311v-117q-86 -2 -131 -55t-41 -141h172v-328h-324z" />
<glyph unicode="&#x201d;" d="M100 895v117q86 2 131 55t41 141h-172v328h324v-330q0 -288 -324 -311zM592 895v117q86 2 131 55t41 141h-172v328h323v-330q1 -288 -323 -311z" />
<glyph unicode="&#x201e;" d="M104 2v328h324v-330q0 -288 -324 -311v116q86 2 131.5 55.5t40.5 141.5h-172zM598 2v328h324v-330q0 -288 -324 -311v116q86 2 131 55.5t41 141.5h-172z" />
<glyph unicode="&#x2022;" horiz-adv-x="860" d="M45 768q0 158 111.5 270.5t271.5 112.5t273.5 -112.5t113.5 -270.5q0 -160 -113.5 -273.5t-273.5 -113.5t-271.5 113.5t-111.5 273.5z" />
<glyph unicode="&#x2026;" horiz-adv-x="2048" d="M168 0v350h346v-350h-346zM850 0v350h346v-350h-346zM1534 0v350h346v-350h-346z" />
<glyph unicode="&#x202f;" horiz-adv-x="405" />
<glyph unicode="&#x2039;" horiz-adv-x="569" d="M109 489v299l370 246v-268l-209 -129l209 -119v-266z" />
<glyph unicode="&#x203a;" horiz-adv-x="569" d="M90 252v266l209 119l-209 129v268l371 -246v-299z" />
<glyph unicode="&#x205f;" horiz-adv-x="506" />
<glyph unicode="&#x2122;" horiz-adv-x="1761" d="M6 1356v180h686v-180h-243v-647h-209v647h-234zM782 709v827h301l185 -510h4l184 510h301v-827h-190v647h-4l-230 -647h-127l-229 647h-4v-647h-191z" />
<glyph unicode="&#x25fc;" horiz-adv-x="1146" d="M0 0v1147h1147v-1147h-1147z" />
</font>
</defs>
</svg>
