<?xml version="1.0" standalone="no"?>
<!DOCTYPE svg PUBLIC "-//W3C//DTD SVG 1.1//EN" "http://www.w3.org/Graphics/SVG/1.1/DTD/svg11.dtd" >
<svg xmlns="http://www.w3.org/2000/svg">
<metadata></metadata>
<defs>
<font id="sfu_helveticanarrow" horiz-adv-x="933" >
<font-face units-per-em="2048" ascent="1638" descent="-410" />
<missing-glyph horiz-adv-x="467" />
<glyph horiz-adv-x="0" />
<glyph unicode="&#xd;" horiz-adv-x="467" />
<glyph unicode=" "  horiz-adv-x="467" />
<glyph unicode="&#x09;" horiz-adv-x="467" />
<glyph unicode="&#xa0;" horiz-adv-x="467" />
<glyph unicode="!" horiz-adv-x="467" d="M208 0v213h141v-213h-141zM208 759v734h141v-734l-35 -418h-71z" />
<glyph unicode="&#x22;" horiz-adv-x="595" d="M87 1222v229h158v-229l-45 -276h-66zM354 1222v229h158v-229l-45 -276h-66z" />
<glyph unicode="#" d="M24 390v163h193l45 313h-177v167h201l61 397h128l-59 -397l207 -3l60 400h131l-59 -397h156v-167h-180l-46 -313h170v-163h-196l-64 -431h-128l62 431h-206l-67 -431h-126l61 431h-167zM347 553h208l44 313h-206z" />
<glyph unicode="$" d="M56 425h130q13 -148 37 -199q46 -98 185 -131v554q-96 37 -135 58q-91 46 -126 98q-67 95 -67 251q0 167 81 274q87 115 247 139v108h100v-110q135 -11 230 -109q56 -56 82 -160q19 -77 15 -133h-134q-6 113 -50 174q-56 95 -143 80v-503q193 -74 247 -118 q119 -100 115 -312q-2 -161 -89 -282q-78 -111 -178 -130l-95 -19v-213h-100v208q-152 35 -213 85q-139 115 -139 390zM210 1102q-9 -96 46.5 -172.5t151.5 -98.5v490q-74 -2 -131.5 -66t-66.5 -153zM508 96q219 58 219 284q0 115 -72 178q-41 36 -147 73v-535z" />
<glyph unicode="%" horiz-adv-x="1493" d="M48 1054q0 143 84.5 245.5t203.5 102.5t203 -102.5t84 -245.5q0 -145 -84.5 -248t-202.5 -103q-119 0 -203.5 103t-84.5 248zM167 1054q0 -87 49 -147.5t120 -60.5q70 0 120 60t50 148q0 85 -50 145.5t-120 60.5t-119.5 -60.5t-49.5 -145.5zM360 -41l662 1492h113 l-664 -1492h-111zM868 310q0 145 84.5 247.5t203.5 102.5t203 -103t84 -247q0 -145 -84.5 -248t-202.5 -103q-119 0 -203.5 103t-84.5 248zM987 310q0 -87 49 -147.5t120 -60.5q70 0 119.5 60.5t49.5 147.5q0 85 -49.5 145.5t-119.5 60.5t-119.5 -60.5t-49.5 -145.5z" />
<glyph unicode="&#x26;" horiz-adv-x="1120" d="M87 332q-7 245 178 401l87 74l-57 96q-69 115 -69 234q0 163 119 258q72 59 169 59q111 0 189 -87q85 -100 85 -226q0 -184 -144 -297l-89 -70l219 -331q56 143 53 240h136q7 -160 -100 -371l207 -312h-185l-104 152q-33 -37 -67 -72q-54 -56 -100 -84q-72 -43 -191 -42 q-102 0 -176 52q-152 111 -160 326zM228 375q0 -19 2 -39q9 -74 56 -138q65 -87 163 -83q63 2 108 26q61 35 146 135l-267 410q-104 -83 -124 -105q-83 -95 -84 -206zM365 1132q0 -67 36 -127q0 -2 76 -103q173 78 170 233q1 43 -16 89q-30 87 -126 88q-119 0 -138 -134 q-2 -24 -2 -46z" />
<glyph unicode="'" horiz-adv-x="320" d="M80 1222v229h159v-229l-46 -276h-67z" />
<glyph unicode="(" horiz-adv-x="560" d="M122 529q0 247 80 517q74 254 193 447h95q-228 -460 -228 -964q0 -505 228 -965h-95q-119 193 -193 447q-80 271 -80 518z" />
<glyph unicode=")" horiz-adv-x="560" d="M63 -436q228 460 228 965q0 504 -228 964h95q119 -193 193 -447q80 -271 79 -517q0 -247 -79 -518q-74 -254 -193 -447h-95z" />
<glyph unicode="*" horiz-adv-x="652" d="M67 1245l31 122l178 -80l-7 229h104l-8 -229l177 75l35 -127l-182 -53l111 -184l-81 -72l-104 191l-108 -189l-81 74l115 180z" />
<glyph unicode="+" horiz-adv-x="981" d="M83 404v143h349v423h117v-423h349v-143h-349v-424h-117v424h-349z" />
<glyph unicode="," horiz-adv-x="467" d="M147 -213q98 63 102 213h-101v213h175v-213q0 -126 -63 -219q-54 -78 -113 -89v95z" />
<glyph unicode="-" horiz-adv-x="560" d="M78 492v150h399v-150h-399z" />
<glyph unicode="." horiz-adv-x="467" d="M147 0v213h174v-213h-174z" />
<glyph unicode="/" horiz-adv-x="467" d="M-13 -43l397 1494h93l-397 -1494h-93z" />
<glyph unicode="0" d="M72 703q0 354 88 536q102 213 302 214q200 0 302 -214q87 -182 87 -536t-87 -538q-102 -211 -302 -211t-302 211q-87 184 -88 538zM217 703q0 -306 56 -430q65 -149 189 -149t189 149q56 124 56 430t-56 430q-65 147 -189 147t-189 -147q-56 -124 -56 -430z" />
<glyph unicode="1" d="M171 1024v139q178 33 226 78q43 43 87 212h98v-1453h-140v1024h-271z" />
<glyph unicode="2" d="M58 0q11 224 63 341q67 147 246 271l178 123q161 111 162 285q0 158 -100 227q-65 45 -136 42q-234 -11 -245 -341h-143q9 505 416 505q163 0 265 -136q95 -124 95 -295q0 -137 -80 -263q-67 -108 -158 -165l-194 -123q-56 -35 -115 -100q-96 -106 -97 -198h633v-173 h-790z" />
<glyph unicode="3" d="M54 421h141q15 -304 215 -304q158 0 232 91q67 80 57 217q-11 152 -87 200q-63 39 -241 39v156q156 0 213 37q76 52 76 206q0 122 -74 182q-54 45 -133 44q-230 0 -230 -308l-143 2q6 469 363 470q163 0 262 -99q109 -109 109 -315q0 -167 -142 -290q178 -96 178 -356 q0 -197 -115 -318t-288 -121q-371 0 -393 467z" />
<glyph unicode="4" d="M46 339v195l544 919h111v-941h173v-173h-173v-339h-141v339h-514zM180 512h380v649h-3z" />
<glyph unicode="5" d="M59 356h151q24 -93 50 -135q59 -96 172 -97q269 0 269 336q0 156 -74 245q-67 83 -174 83q-130 0 -223 -128h-134l91 793h616v-173h-497l-48 -404l4 -6q72 87 207 87q147 0 249 -93q145 -130 145 -410q0 -189 -112 -339q-119 -161 -291 -161q-206 0 -319 155 q-83 119 -82 247z" />
<glyph unicode="6" d="M72 651q0 801 449 802q82 0 171 -73q127 -106 146 -306h-146q4 82 -53.5 148.5t-143.5 66.5q-158 0 -232 -211q-54 -148 -53 -345q102 109 122 124q65 48 161 48q154 0 258 -122q111 -130 112 -340q0 -180 -86 -317q-106 -173 -308 -172q-397 0 -397 697zM228 434 q0 -147 80 -237q70 -80 163 -80q111 0 177 81.5t66 241.5q0 302 -241 302q-91 0 -159 -70q-86 -84 -86 -238z" />
<glyph unicode="7" d="M78 1280v173h796v-154q-115 -173 -286 -553q-143 -317 -200 -746h-158q54 267 91 391q41 141 126 336q89 184 269 553h-638z" />
<glyph unicode="8" d="M63 367q0 174 58 256q28 65 135 139q-102 85 -126 151t-24 161q0 182 124 293q96 85 219 86q150 0 260.5 -90t110.5 -296q0 -117 -46 -182q-54 -78 -104 -119q65 -22 122 -124q70 -95 71 -275q0 -182 -149 -317q-106 -96 -269 -96q-165 0 -273.5 123t-108.5 290zM217 388 q2 -113 59 -188q67 -83 188 -83q102 0 173.5 83.5t71.5 192.5q0 167 -99 241q-63 48 -146 49q-122 0 -186.5 -84.5t-60.5 -210.5zM254 1074q0 -58 13 -100q43 -137 176 -137q135 0 190 87q39 61 39 137q0 115 -69 182q-46 46 -137 46q-102 0 -154 -55q-58 -63 -58 -160z" />
<glyph unicode="9" d="M63 963q0 180 85 315q106 174 308 175q397 0 397 -700q0 -800 -449 -799q-82 0 -170 72q-128 104 -147 306h147q-4 -82 53.5 -148.5t142.5 -66.5q158 0 232 209q54 150 54 346q-102 -108 -122 -123q-65 -50 -162 -50q-154 0 -258 122q-111 132 -111 342zM211 965 q0 -301 242 -301q91 0 159 69q86 85 86 237q0 147 -80 238q-70 82 -165 81q-109 0 -175 -79q-67 -85 -67 -245z" />
<glyph unicode=":" horiz-adv-x="467" d="M186 0v213h174v-213h-174zM186 863v213h174v-213h-174z" />
<glyph unicode=";" horiz-adv-x="467" d="M186 -213q98 63 102 213h-101v213h175v-213q0 -126 -63 -219q-54 -78 -113 -89v95zM187 844v213h175v-213h-175z" />
<glyph unicode="&#x3c;" horiz-adv-x="981" d="M76 404v143l822 423v-163l-664 -332l664 -332v-163z" />
<glyph unicode="=" horiz-adv-x="981" d="M83 230v143h815v-143h-815zM83 577v145h815v-145h-815z" />
<glyph unicode="&#x3e;" horiz-adv-x="981" d="M83 -20v163l657 332l-657 332v163l822 -423v-143z" />
<glyph unicode="?" d="M130 1033q-4 204 74 329q93 152 286 152q37 0 76 -6q158 -22 232 -148q58 -98 57 -240q0 -80 -17 -137q-28 -98 -187 -276q-93 -106 -93 -212v-96h-155v124q0 89 59 184q20 33 89 115q33 39 67 80q39 50 54 85q30 74 29 143q0 100 -56.5 163t-147.5 63q-152 0 -200 -139 q-15 -45 -22 -184h-145zM403 0v213h155v-213h-155z" />
<glyph unicode="@" horiz-adv-x="1704" d="M56 536q0 109 24 208q83 364 310 566q108 95 246 150q150 58 288 48q126 -9 263 -78q165 -82 262 -213q137 -189 146 -416q9 -189 -76 -391q-93 -219 -250 -278q-113 -45 -210 -11q-95 33 -107 142q-48 -59 -52 -61q-43 -45 -102 -67q-45 -17 -88 -16q-50 0 -94 22 q-108 56 -156 208q-37 117 -7 261q43 228 193 364q106 95 226 95q35 0 63 -12q52 -19 93 -71.5t52 -100.5l37 135h139l-162 -612q-20 -74 3 -115t68 -41q11 0 22 2q139 41 209.5 191t70.5 288q0 30 -3 57q-26 193 -136 332q-50 67 -141 126q-109 72 -222 95q-52 11 -102 11 q-219 0 -398 -178t-241 -417q-22 -93 -22 -199q0 -176 58 -319q93 -223 335 -341q102 -50 221 -50q130 0 334 76l50 -137q-195 -89 -384 -90q-139 0 -263 51q-93 37 -210 135q-158 132 -217 276q-70 171 -70 375zM594 492q0 -91 44 -164q48 -80 121 -79q22 0 42 7 q74 26 130 130q37 69 66 188.5t23 197.5q-7 102 -104 137q-22 9 -48 9q-65 0 -115 -41q-98 -80 -137 -233q-22 -95 -22 -152z" />
<glyph unicode="A" horiz-adv-x="1120" d="M28 0l445 1493h193l430 -1493h-176l-124 447h-468l-131 -447h-169zM369 607h380l-179 653z" />
<glyph unicode="B" horiz-adv-x="1120" d="M134 0v1493h534q108 0 202 -83q124 -108 124 -303q0 -230 -157 -317q35 -20 68 -42q59 -43 95 -108q46 -87 46 -211q0 -206 -122 -333q-95 -96 -188 -96h-602zM291 171h394q108 0 163 89q45 74 44 178q0 148 -92 204q-65 41 -203 41h-306v-512zM291 851h323 q221 0 221 223q0 93 -48 156q-69 93 -229 93h-267v-472z" />
<glyph unicode="C" horiz-adv-x="1213" d="M80 735q4 406 196 628q46 56 132 101q102 52 206 53h9q374 0 490 -484h-161q-91 314 -329 314q-165 0 -263 -145q-119 -169 -119 -467q0 -297 119 -466q98 -145 263 -145q260 0 353 423h161q-41 -265 -176 -426q-140 -167 -338 -167h-9q-104 0 -206 53q-85 45 -132 99 q-196 230 -196 621v8z" />
<glyph unicode="D" horiz-adv-x="1213" d="M150 0v1493h471q198 0 334 -159q139 -165 160 -449q5 -60 6 -117q0 -10 -1 -19q0 -326 -129 -526q-72 -113 -160 -173q-70 -50 -124 -50h-557zM308 171h341q69 0 126 31q41 22 89.5 99t61.5 135q32 150 37 306q1 21 1 41q0 213 -68 350q-96 190 -289 190h-299v-1152z" />
<glyph unicode="E" horiz-adv-x="1120" d="M150 0v1493h852v-170h-692v-472h664v-168h-664v-512h720v-171h-880z" />
<glyph unicode="F" horiz-adv-x="1025" d="M150 0v1493h822v-170h-662v-472h580v-168h-580v-683h-160z" />
<glyph unicode="G" horiz-adv-x="1307" d="M74 729q4 412 215 634q52 56 147 99q113 52 230 55q14 1 27 1q144 0 235 -60q215 -141 248 -415h-154q-7 109 -96 198q-104 106 -260 106q-186 0 -299 -145q-133 -170 -133 -467q0 -303 133 -473q113 -143 299 -143q126 0 215 72q121 98 154 238q13 50 15 192h-373v171 h514v-799h-100l-37 183q-100 -109 -164 -150q-113 -70 -269 -72h-7q-80 0 -182 46q-95 45 -143 96q-215 226 -215 619v14z" />
<glyph unicode="H" horiz-adv-x="1213" d="M139 0v1493h158v-642h627v642h158v-1493h-158v683h-627v-683h-158z" />
<glyph unicode="I" horiz-adv-x="467" d="M169 0v1493h157v-1493h-157z" />
<glyph unicode="J" horiz-adv-x="840" d="M28 317v158h159v-152q0 -82 43 -139q50 -63 128 -63q96 0 158 87q42 58 42 261v10v1014h158v-1181q-26 -206 -154 -305q-80 -61 -189 -61q-32 0 -47 8q-160 9 -239 148q-59 102 -59 215z" />
<glyph unicode="K" horiz-adv-x="1120" d="M134 0v1493h157v-740l607 740h208l-507 -610l501 -883h-184l-424 751l-201 -243v-508h-157z" />
<glyph unicode="L" d="M134 0v1493h159v-1322h603v-171h-762z" />
<glyph unicode="M" horiz-adv-x="1398" d="M126 0v1493h223l354 -1270l353 1270h222v-1493h-161v1213l-334 -1213h-162l-333 1213v-1213h-162z" />
<glyph unicode="N" horiz-adv-x="1213" d="M128 0v1493h186l614 -1209v1209h157v-1493h-180l-619 1197v-1197h-158z" />
<glyph unicode="O" horiz-adv-x="1307" d="M63 735q4 408 215 628q54 58 147 101q115 53 230 53t230 -53q93 -43 146 -101q211 -221 216 -628v-14q0 -389 -216 -615q-54 -56 -146 -99q-113 -53 -226 -53h-4q-115 0 -230 53q-93 43 -147 99q-215 228 -215 622v7zM223 735q0 -295 135 -466q113 -145 297 -145 q186 0 297 145q135 171 135 466q0 297 -135 467q-111 145 -297 145q-184 0 -297 -145q-135 -171 -135 -467z" />
<glyph unicode="P" horiz-adv-x="1120" d="M152 0v1493h514q15 2 32 2q111 0 198 -72q119 -95 137 -291q4 -39 4 -76q0 -206 -115 -327q-95 -96 -206 -96h-404v-633h-160zM312 803h400q45 0 99 60q67 74 67 190q0 12 -1 25q-9 134 -87 198q-56 46 -126 47h-352v-520z" />
<glyph unicode="Q" horiz-adv-x="1307" d="M63 735q4 408 215 628q54 58 147 101q113 53 226 53h4q115 0 230 -53q93 -43 146 -101q211 -221 216 -628q1 -353 -173 -579l158 -156l-82 -121l-174 177q-161 -102 -321 -102q-115 0 -230 53q-93 43 -147 99q-215 228 -215 622v7zM223 735q0 -295 135 -466 q113 -145 297 -145q101 0 196 56l-124 126l78 113l152 -148q130 171 130 464q0 297 -135 467q-111 145 -297 145q-184 0 -297 -145q-135 -171 -135 -467z" />
<glyph unicode="R" horiz-adv-x="1213" d="M156 0v1493h547q174 0 262 -63q119 -89 129 -317q1 -19 1 -36q0 -114 -34 -183q-32 -67 -128 -156q93 -72 116 -134t27 -248q2 -150 13 -206q11 -67 52 -100v-50h-189q-39 111 -39 252q0 210 -13 258q-35 132 -184 132h-402v-642h-158zM314 811h395q206 0 224 228 q4 24 4 48q0 236 -230 236h-393v-512z" />
<glyph unicode="S" horiz-adv-x="1120" d="M80 473h146v-9q0 -96 39 -176q59 -124 199 -154q56 -13 110 -13q26 0 51 3q117 15 173 73q81 84 81 193t-87 183q-72 45 -256 97q-109 32 -126 37q-63 26 -124 54q-145 59 -164 274q-2 22 -1 47q0 182 102 302q112 133 308 133h3q193 0 300 -78.5t147 -210.5 q24 -74 24 -143q0 -14 -1 -28h-154v15q0 145 -110 227q-77 57 -198 57h-4q-128 0 -202 -80q-65 -72 -65 -170q0 -109 76 -162q70 -48 185 -74q50 -17 151.5 -50t151.5 -50q82 -33 143 -129.5t65 -204.5q1 -13 1 -25q0 -203 -136 -331q-134 -127 -320 -127q-14 0 -28 1 q-137 4 -215 37q-100 41 -176 150q-56 82 -74 167q-11 54 -15 165z" />
<glyph unicode="T" horiz-adv-x="1025" d="M35 1323v170h961v-170h-401v-1323h-157v1323h-403z" />
<glyph unicode="U" horiz-adv-x="1213" d="M143 416v1077h158v-1064q0 -113 66 -201q83 -111 247 -111q161 0 245 111q67 87 67 201v1064h157v-1077q0 -161 -98 -292q-127 -170 -368 -170h-3q-245 0 -373 170q-98 130 -98 292z" />
<glyph unicode="V" horiz-adv-x="1120" d="M50 1493h169l354 -1263l343 1263h167l-430 -1493h-169z" />
<glyph unicode="W" horiz-adv-x="1586" d="M37 1493h174l227 -1202l274 1202h169l273 -1202l232 1202h174l-312 -1493h-172l-282 1217l-275 -1217h-172z" />
<glyph unicode="X" horiz-adv-x="1120" d="M37 0l430 766l-400 727h191l312 -571l311 571h193l-410 -727l427 -766h-195l-326 608l-338 -608h-195z" />
<glyph unicode="Y" horiz-adv-x="1120" d="M22 1493h193l355 -725l346 725h195l-462 -909v-584h-159v584z" />
<glyph unicode="Z" horiz-adv-x="1025" d="M46 0v163l731 1160h-679v170h880v-174l-731 -1148h732v-171h-933z" />
<glyph unicode="[" horiz-adv-x="467" d="M108 -438v1933h311v-154h-169v-1625h169v-154h-311z" />
<glyph unicode="\" horiz-adv-x="467" d="M-13 1493h93l397 -1534h-93z" />
<glyph unicode="]" horiz-adv-x="467" d="M39 -288h169v1627h-169v154h312v-1933h-312v152z" />
<glyph unicode="^" horiz-adv-x="788" d="M74 683l258 777h122l260 -777h-119l-202 606l-204 -606h-115z" />
<glyph unicode="_" d="M-37 -256h1007v-102h-1007v102z" />
<glyph unicode="`" horiz-adv-x="560" d="M37 1516h187l164 -303h-102z" />
<glyph unicode="a" d="M70 289q13 219 186 281q93 33 191 44q111 13 134 19q70 20 70 81v128q-7 52 -83 84q-65 28 -145 28q-165 0 -180 -201h-132l4 95q28 143 147 211q82 46 181 47q85 0 152 -19q205 -58 205 -206v-718q0 -22 20 -42.5t46 -20.5q22 0 32 6v-134q-48 -18 -102 -18h-6 q-46 0 -87 50t-44 105q-168 -155 -280 -155h-1q-150 0 -234 89q-75 80 -75 216q0 15 1 30zM215 284v-7q0 -86 47 -134q43 -41 107 -43h10q118 0 203 91q71 73 71 121v215q-58 -30 -189 -52q-124 -22 -165 -45q-82 -45 -84 -146z" />
<glyph unicode="b" d="M91 0v1493h141v-547h4q17 50 76 97q82 63 193 63q150 0 257 -138q115 -145 115 -428q0 -163 -44 -303q-58 -173 -171 -239q-74 -44 -170 -44h-4q-96 0 -152 44q-89 74 -123 121v-119h-122zM230 512q0 -156 61 -278q52 -106 169 -117q11 -1 22 -1q105 0 164 99 q74 126 74 319q0 187 -63 295q-60 102 -171 102h-13q-115 -4 -174 -102q-69 -113 -69 -317z" />
<glyph unicode="c" horiz-adv-x="840" d="M52 545q6 249 126 416q100 139 265 145h17q141 0 232 -97q91 -69 109 -297h-139q-22 156 -94 203q-57 33 -110 33h-11q-96 -6 -172 -111q-58 -80 -71 -267q-2 -37 -2 -70q0 -135 35 -220q68 -165 203 -166q7 0 14 1q58 4 104.5 38t64.5 79q36 91 43 139h135 q-6 -130 -46 -217q-50 -102 -145 -156q-78 -45 -167 -45q-11 0 -22 1q-100 6 -183.5 65t-124.5 161q-61 155 -61 342v23z" />
<glyph unicode="d" d="M45 538q0 284 114 426q113 142 256 142h2q109 0 193 -65q59 -46 76 -97h4v549h141v-1495h-122v124q-54 -78 -121 -128q-53 -40 -147 -40h-5q-104 0 -176 42q-113 67 -171 241q-44 134 -44 294v7zM202 532q0 -193 74 -319q61 -99 165 -99q10 0 21 1q119 11 169 117 q61 122 61 278q0 202 -69 317q-58 98 -174 102h-13q-112 -1 -171 -101q-63 -106 -63 -296z" />
<glyph unicode="e" d="M67 531q4 269 109 413q120 164 290 164q17 0 35 -2q176 -17 261 -152q67 -108 86 -227q13 -74 15 -258h-644q-1 -18 -1 -35q0 -109 49 -198q74 -134 199 -134q111 0 174 91q30 39 61 135h143q-24 -130 -80 -215q-103 -159 -295 -159h-2q-200 0 -311 170q-89 140 -89 396 v11zM223 621h486q1 9 1 18q0 60 -24 133q-20 72 -40 98q-32 80 -154 95q-15 2 -29 2q-105 0 -164 -97q-20 -22 -45 -93q-27 -84 -31 -156z" />
<glyph unicode="f" horiz-adv-x="467" d="M30 918v158h120v182q0 111 63 182q45 50 78 53q32 8 65 8q38 0 78 -10v-142q-28 4 -48 3q-95 0 -95 -118v-158h141v-158h-141v-918h-141v918h-120z" />
<glyph unicode="g" d="M48 469q-1 23 -1 45q0 260 98 425q28 46 92 96q91 71 184 71h8q152 -6 248 -162h4v132h141v-894q0 -236 -35 -364q-50 -174 -175 -224q-43 -17 -148 -43q-24 -3 -47 -3q-80 0 -152 35q-174 83 -185 295h143q9 -58 14 -73q20 -46 82 -78q48 -24 110 -24q69 0 128 28 q58 37 77 78q15 26 28 95q19 98 19 226q-123 -176 -281 -176h-7q-100 11 -187 96q-147 115 -158 419zM200 519q-1 -18 -1 -36q0 -157 56 -253q62 -106 170 -115q12 -1 24 -1q92 0 154 84q78 104 78 316q0 230 -82 332q-13 24 -59.5 47t-96.5 25h-7q-134 0 -195 -156 q-37 -96 -41 -243z" />
<glyph unicode="h" d="M117 0v1493h141v-547q111 160 271 160q63 0 144.5 -37.5t120.5 -135.5q23 -57 23 -98q0 -9 -1 -17v-818h-141v733q0 150 -74 189q-60 33 -111 33q-19 0 -37 -5q-61 -13 -141 -91q-54 -67 -54 -160v-699h-141z" />
<glyph unicode="i" horiz-adv-x="372" d="M111 0v1076h141v-1076h-141zM111 1280v213h141v-213h-141z" />
<glyph unicode="j" horiz-adv-x="372" d="M-30 -297l82 9q63 9 63 91v1273h143v-1312q0 -150 -130 -198q-45 -17 -108 -17q-24 0 -50 2v152zM115 1280v213h143v-213h-143z" />
<glyph unicode="k" horiz-adv-x="840" d="M98 0v1493h141v-866l373 449h180l-306 -373l358 -703h-174l-290 573l-141 -169v-404h-141z" />
<glyph unicode="l" horiz-adv-x="372" d="M115 0v1493h141v-1493h-141z" />
<glyph unicode="m" horiz-adv-x="1398" d="M119 0v1076h141v-137h3q48 98 89 124q67 43 167 43t147 -41q58 -52 91 -121q41 61 54 76q32 39 66 58q50 26 128 28h23q94 0 138 -30q48 -34 81 -97q35 -69 35 -139v-840h-141v768q-24 182 -171 182q-89 0 -143 -69q-46 -59 -55 -152v-729h-141v772q0 178 -164 178 q-85 0 -146 -74.5t-61 -183.5v-692h-141z" />
<glyph unicode="n" d="M117 0v1076h141v-135h4q45 83 98 116q55 49 162 49h12q104 -2 145 -28q121 -76 139 -241v-837h-141v748q0 96 -52 152q-48 50 -124 50q-102 0 -165 -80q-78 -98 -78 -299v-571h-141z" />
<glyph unicode="o" d="M61 531q0 321 137 467q102 108 260 108t260 -108q139 -146 139 -467t-139 -470q-101 -107 -257 -107h-3q-156 0 -260 107q-137 148 -137 470zM204 531q0 -156 58 -269q70 -137 196 -138q128 0 197 138q57 113 57 269t-57 267q-69 137 -197 137q-126 0 -196 -137 q-58 -111 -58 -267z" />
<glyph unicode="p" d="M91 -449v1525h122v-135h4q35 65 117 124q56 41 152 41q102 0 176 -45q113 -69 169 -241q46 -137 46 -301q0 -280 -115 -426q-109 -139 -257 -139q-108 0 -193 65q-59 46 -76 96h-4v-564h-141zM230 547q0 -204 69 -315q61 -100 174 -102h9q115 0 176 102q62 107 62 295 q0 193 -74 319q-59 99 -164 99q-11 0 -22 -1q-117 -11 -169 -117q-61 -122 -61 -280z" />
<glyph unicode="q" d="M45 519q0 163 46 301q58 173 169 241q74 45 176 45q98 0 152 -41q70 -54 121 -124v135h122v-1525h-141v564h-4q-17 -50 -76 -96q-85 -65 -193 -65q-147 0 -259.5 141.5t-112.5 423.5zM202 518q0 -182 61 -284q63 -104 177 -104h9q115 2 174 102q69 115 69 315 q0 156 -61 280q-50 106 -169 117q-11 1 -21 1q-104 0 -165 -99q-74 -125 -74 -318v-10z" />
<glyph unicode="r" horiz-adv-x="560" d="M115 0v1076h143v-169h2q37 89 96 143q54 52 104 56h80v-180q-78 0 -136 -24q-147 -83 -146 -344v-558h-143z" />
<glyph unicode="s" horiz-adv-x="840" d="M58 317h131q7 -154 154 -208q33 -13 124 -13q43 15 112 49q54 50 54 131q0 98 -95 138q-89 26 -178 50q-102 32 -150 59q-130 58 -130 262q0 148 98 237q91 83 226 84q323 0 329 -332h-138q0 172 -200 172h-2q-70 0 -125 -48t-55 -115q0 -65 49.5 -97.5t208.5 -80.5 q126 -26 202 -82q98 -72 99 -224q0 -93 -41 -173q-43 -85 -119 -128q-65 -35 -161 -44q-119 0 -171 13q-222 62 -222 350z" />
<glyph unicode="t" horiz-adv-x="467" d="M24 918v158h123v291h141v-291h139v-158h-139v-745q0 -63 74 -64q26 0 65 8v-152q-65 -13 -114 -13q-20 0 -38 2q-65 7 -102 65q-26 43 -26 85v814h-123z" />
<glyph unicode="u" d="M109 219v857h141v-761q0 -186 147 -200q15 -2 28 -2q39 0 70 13q173 72 173 366v584h141v-1076h-141v115h-2q-43 -80 -98 -117q-66 -44 -173 -44h-5q-102 0 -141 24q-115 72 -140 241z" />
<glyph unicode="v" horiz-adv-x="840" d="M17 1076h157l229 -872l256 872h157l-337 -1076h-153z" />
<glyph unicode="w" horiz-adv-x="1213" d="M9 1076h160l172 -839l171 839h174l164 -837l181 837h158l-260 -1076h-159l-178 818l-171 -818h-159z" />
<glyph unicode="x" horiz-adv-x="840" d="M28 0l310 551l-292 525h160l213 -380l214 380h159l-300 -523l302 -553h-158l-222 401l-227 -401h-159z" />
<glyph unicode="y" horiz-adv-x="840" d="M33 1076h151l222 -814l245 814h152l-400 -1325q-37 -126 -123 -170q-55 -30 -108 -30h-7q-45 2 -78 28v158q42 -20 78 -20q13 0 26 3q54 13 80 94l52 169z" />
<glyph unicode="z" horiz-adv-x="840" d="M52 0v141l516 764h-479v171h659v-150l-507 -755h527v-171h-716z" />
<glyph unicode="{" horiz-adv-x="560" d="M72 458v143q89 22 117 117q17 54 15 174v351q-2 104 50 180q45 67 87 68l123 6v-135l-74 -10q-61 -9 -62 -131l2 -362q2 -213 -122 -330q124 -117 122 -329l-2 -361q0 -124 62 -134l74 -11v-132l-123 6q-43 2 -87 67q-52 78 -50 181v349q2 122 -15 176q-28 95 -117 117z " />
<glyph unicode="|" horiz-adv-x="435" d="M169 -440v1933h100v-1933h-100z" />
<glyph unicode="}" horiz-adv-x="560" d="M48 -302l74 9q61 9 62 132l-2 361q-2 211 122 329q-124 134 -122 330l2 362q0 122 -62 131l-74 10v135l123 -6q43 -2 87 -66q52 -78 52 -182l-2 -351q-2 -121 15 -174q28 -95 117 -117v-143q-89 -22 -117 -117q-17 -54 -15 -176l2 -349q0 -104 -52 -181q-45 -65 -87 -67 l-123 -6v136z" />
<glyph unicode="~" horiz-adv-x="981" d="M126 595q6 158 57 230.5t123 72.5q50 0 87 -28l221 -161q30 -22 65 -23q61 0 80 65q11 39 5 91h87q9 -121 -50 -215q-52 -83 -128 -83q-59 0 -129 53l-179 141q-30 28 -59 28q-43 0 -69 -52t-20 -119h-91z" />
<glyph horiz-adv-x="1020" d="M-83 534l42 97h115q6 52 24 150h-135l43 98h120q85 230 223 375q169 180 382 180q193 0 338 -137l-47 -319l-98 11q0 323 -193 323q-211 0 -330 -433h352l-43 -98h-335q-13 -50 -34 -150h303l-45 -97h-273q-13 -83 -12 -152q0 -113 42 -185q52 -87 160 -88q119 0 207 140 q48 76 104 243l114 -21l-112 -386q-158 -108 -324 -107q-228 0 -342 172q-96 145 -96 384h-150z" />
<glyph unicode="&#xa1;" horiz-adv-x="560" d="M204 301l35 417h71l35 -417v-739h-141v739zM204 863v213h141v-213h-141z" />
<glyph unicode="&#xa2;" d="M87 519q0 187 47 290q70 211 213 258q76 37 154 37q37 0 74 -8l45 188h68l-54 -212q109 -30 175 -163q43 -85 46 -200h-130q-32 178 -122 211l-189 -798q33 -17 76 -16q67 0 124 39q87 74 109 230h134q-9 -249 -176 -360q-83 -56 -199 -56q-61 0 -100 17l-54 -223h-63 l60 243q-141 74 -201 256q-37 115 -37 267zM234 473q0 -87 37 -177t89 -136l182 790q-22 11 -49 11q-52 0 -107 -37q-152 -80 -152 -451z" />
<glyph unicode="&#xa3;" d="M45 655v113h141q-56 98 -71 139q-22 65 -24 150q-2 167 115 299t276 132q26 0 54 -4q219 -37 291 -223q28 -74 36 -244h-149q-9 141 -39 198q-45 87 -167 104q-80 11 -157 -41q-100 -67 -101 -208q0 -41 8 -85q13 -59 89 -217h269v-113h-234q20 -104 21 -130 q0 -56 -21 -115q-33 -93 -91 -174q-45 -56 -87 -112q126 82 213 82q63 0 147 -30q91 -33 132 -33q43 0 142 68l60 -141q-87 -115 -219 -115q-78 0 -241 69q-59 26 -115 26q-58 0 -113 -30q-2 0 -75 -46l-79 135q115 117 159 203q52 102 52 189q0 59 -39 154h-183z" />
<glyph unicode="&#xa4;" d="M113 1018l91 117l97 -120q96 56 165 55q67 0 163 -55l93 109l100 -124l-99 -113q20 -37 30 -65q15 -46 21 -110q6 -89 -56 -217l95 -117l-97 -111l-89 111q-87 -69 -165 -68q-67 0 -160 52l-91 -104l-92 120l83 106q-56 83 -55 210q0 137 63 202zM284 690q0 -102 57 -163 q52 -52 112 -45q63 -7 115 47q61 61 61 167q0 98 -61 157q-52 54 -115 47q-59 7 -112 -47q-58 -59 -57 -163z" />
<glyph unicode="&#xa5;" d="M19 1453h126l322 -689l323 689h126l-341 -726h252v-106h-298v-154h298v-109h-296v-358h-128v358h-297v109h298v154h-298v106h254z" />
<glyph unicode="&#xa6;" horiz-adv-x="435" d="M169 334h100v-774h-100v774zM169 720v773h100v-773h-100z" />
<glyph unicode="&#xa7;" d="M74 664q4 111 56 180q33 45 128 111q-41 39 -64 107t-18 120q13 126 98.5 219.5t204.5 93.5q150 0 231 -109q74 -96 75 -251q0 -32 -4 -59h-139q2 74 2 57q0 167 -143 205q-89 9 -136 -51q-37 -46 -39 -113q-9 -59 38 -111q26 -32 99 -84.5t224 -166.5t163 -326 q9 -161 -71 -260q-54 -67 -109 -78q85 -134 85 -231q0 -26 -4 -56q-17 -145 -113 -226q-85 -74 -202 -75q-141 0 -230 117q-82 108 -82 251q0 24 4 44h145q-9 -85 28 -156q41 -82 116 -91q150 -19 182 132q6 20 6 43q0 100 -80 165q-100 80 -302 243q-158 126 -149 356z M210 670q0 -74 40 -132q15 -20 73 -74q72 -83 272 -247q35 19 71 72q50 74 44 154q-9 121 -101.5 202.5t-274.5 241.5q-59 -52 -61 -56q-50 -54 -60 -117q-4 -22 -3 -44z" />
<glyph unicode="&#xa8;" horiz-adv-x="560" d="M50 1239v212h154v-212h-154zM343 1239v212h154v-212h-154z" />
<glyph unicode="&#xa9;" horiz-adv-x="1237" d="M-22 738q0 323 188 551t455 228q265 0 452.5 -228t187.5 -551q0 -326 -187.5 -555t-452.5 -229q-267 0 -455 229t-188 555zM58 738q0 -288 164.5 -490t398.5 -202t398.5 202.5t164.5 489.5q0 284 -164.5 484.5t-398.5 200.5t-398.5 -200.5t-164.5 -484.5zM293 744 q0 197 95.5 323t257.5 126q117 0 200 -79t102 -216h-93q-13 91 -71.5 146.5t-136.5 55.5q-122 0 -190.5 -101t-68.5 -253q0 -148 68 -251q74 -109 193 -109q78 0 137.5 56.5t68.5 151.5h93q-13 -135 -98.5 -219t-200.5 -84q-158 0 -257 129t-99 324z" />
<glyph unicode="&#xaa;" horiz-adv-x="621" d="M63 1028q6 130 110 169q56 20 117.5 25.5t76.5 11.5q43 11 43 48v78q-6 32 -52 51t-93 16q-93 -9 -98 -119h-82l4 54q15 87 87 128q50 28 121 27q80 0 141 -36t61 -99v-432q0 -39 46 -39q7 0 15 4v-77l-70 -12q-69 22 -74 94q-52 -48 -71 -59q-46 -32 -98 -35 q-89 -6 -139 50.5t-45 151.5zM72 616v107h466v-107h-466zM148 1024q-4 -108 93 -109q78 -4 128 46q43 41 43 80v130q-35 -19 -112 -32t-102 -26q-48 -26 -50 -89z" />
<glyph unicode="&#xab;" d="M165 469v178l264 251v-173l-182 -168l182 -167v-173zM505 469v178l259 251v-173l-172 -168l172 -167v-173z" />
<glyph unicode="&#xac;" horiz-adv-x="981" d="M67 566v156h848v-553h-128v397h-720z" />
<glyph unicode="&#xad;" horiz-adv-x="691" d="M17 356l66 251h505l-69 -251h-502z" />
<glyph unicode="&#xae;" horiz-adv-x="1237" d="M-22 738q0 323 188 551t455 228q265 0 452.5 -228t187.5 -551q0 -326 -187.5 -555t-452.5 -229q-267 0 -455 229t-188 555zM58 738q0 -288 164.5 -490t398.5 -202t398.5 202.5t164.5 489.5q0 284 -164.5 484.5t-398.5 200.5t-398.5 -200.5t-164.5 -484.5zM382 299v875 h314q113 0 174 -42q82 -58 82 -190q-1 -232 -229 -239l218 -404h-104l-206 404h-160v-404h-89zM471 787h134q130 0 167 13q91 30 91 144q0 152 -188 152h-204v-309z" />
<glyph unicode="&#xaf;" horiz-adv-x="560" d="M46 1273v148h460v-148h-460z" />
<glyph unicode="&#xb0;" horiz-adv-x="671" d="M83 1145q0 126 74.5 217t178.5 91t178 -91t74 -217t-74 -216.5t-178 -90.5t-177.5 89.5t-75.5 217.5zM150 1145q2 -93 56 -159t130 -66t130.5 66t54.5 159t-54.5 159.5t-132.5 66.5q-76 0 -130 -67t-54 -159z" />
<glyph unicode="&#xb1;" horiz-adv-x="981" d="M67 0v156h848v-156h-848zM83 699v143h349v423h117v-423h349v-143h-349v-424h-117v424h-349z" />
<glyph unicode="&#xb2;" horiz-adv-x="560" d="M19 582q13 141 37 197q41 91 165 169l115 74q100 63 106 162q6 83 -51 133q-48 45 -103 41q-152 -7 -158 -206h-95q7 87 15 119q20 80 74 124q72 59 184 58q102 -2 166 -77.5t64 -178.5q0 -82 -52 -160q-43 -65 -102 -98l-126 -75q-33 -20 -74 -63q-63 -63 -63 -116h411 v-103h-513z" />
<glyph unicode="&#xb3;" horiz-adv-x="560" d="M20 833h93q7 -74 19 -100q32 -78 120 -82q98 -4 149 52q45 50 39 134q-9 145 -167 144q-21 0 -47 -2v95q104 2 141 24q52 30 49 121q-6 137 -153 137q-87 0 -118 -83q-11 -28 -15 -101h-91q2 280 236 281q106 0 168 -60q72 -65 73 -189q0 -98 -95 -174q67 -32 93 -84 q20 -45 24 -124q2 -78 -33 -143q-41 -72 -121 -104q-48 -19 -104 -22q-26 -2 -70 4q-176 41 -190 276z" />
<glyph unicode="&#xb4;" horiz-adv-x="560" d="M154 1213l163 303h189l-248 -303h-104z" />
<glyph unicode="&#xb6;" horiz-adv-x="901" d="M80 994q0 100 31 201q48 156 167 237q87 61 162 61h437v-133h-98v-1725h-109v1725h-136v-1725h-109v894q-28 4 -56 5q-56 11 -104 45q-65 45 -113 130q-72 134 -72 285z" />
<glyph unicode="&#xb7;" horiz-adv-x="467" d="M147 779q0 52 30.5 89t72.5 37q43 0 73.5 -37t30.5 -89q0 -54 -30.5 -91t-73.5 -37t-73 37t-30 91z" />
<glyph unicode="&#xb8;" horiz-adv-x="560" d="M65 -369l37 87q63 -41 78 -48q43 -22 78 -24q67 -4 94 65q7 20 2 48q-6 33 -28 43q-20 17 -35 16q-9 0 -41 -18l-20 14l46 186h71l-30 -111q67 0 63 2q43 -6 71 -34q32 -33 31 -100q0 -13 -2 -28q-24 -134 -131 -158q-52 -11 -84 -11q-61 1 -200 71z" />
<glyph unicode="&#xb9;" horiz-adv-x="560" d="M100 1197v81q117 22 146.5 48t57.5 127h63v-871h-91v615h-176z" />
<glyph unicode="&#xba;" horiz-adv-x="614" d="M67 1172q0 137 41 219q63 126 198 126t199 -126q39 -82 39 -219q0 -135 -39 -217q-63 -128 -199 -128q-135 0 -198 128q-41 82 -41 217zM83 616v107h444v-107h-444zM152 1172q0 -61 30 -144q33 -99 124 -99t124 99q28 83 28 144t-28 145q-33 95 -124 98q-95 4 -132 -98 q-22 -106 -22 -145z" />
<glyph unicode="&#xbb;" d="M165 217v173l182 167l-176 168v173l246 -251v-178zM499 217v173l182 167l-178 168v173l254 -251v-178z" />
<glyph unicode="&#xbc;" horiz-adv-x="1400" d="M50 1197v83q117 20 146.5 45t57.5 128h63v-871h-93v615h-174zM254 -43l761 1494h96l-762 -1494h-95zM813 204v115l352 551h72v-562h113v-104h-113v-204h-91v204h-333zM898 306h248v388z" />
<glyph unicode="&#xbd;" horiz-adv-x="1400" d="M50 1197v83q117 20 146.5 45t57.5 128h65v-871h-93v615h-176zM202 -43l761 1494h94l-760 -1494h-95zM829 0q11 139 37 197q41 91 165 170l115 73q98 63 106 163q6 82 -50 133q-48 43 -104 41q-150 -7 -159 -207h-93q7 87 17 118q19 80 72 125q72 61 184 57 q102 -2 168 -78q61 -74 62 -176q0 -83 -50 -160q-44 -65 -102 -100l-127 -74q-35 -20 -76 -61q-63 -65 -61 -119h410v-102h-514z" />
<glyph unicode="&#xbe;" horiz-adv-x="1400" d="M50 833h93q13 -85 18 -100q33 -76 121 -82q98 -6 148 52q45 50 41 134q-11 145 -169 144q-20 0 -44 -2v95q102 2 139 24q52 30 48 121q-6 137 -152 137q-91 -15 -119 -85q-9 -20 -14 -100l-91 1q4 280 235 281q106 0 171 -60q70 -65 70 -189q0 -96 -92 -174 q109 -52 115 -208q4 -78 -34 -143q-41 -72 -118 -104q-95 -35 -177 -18q-176 41 -189 276zM349 -43l762 1494h95l-761 -1494h-96zM813 204v115l352 551h72v-562h113v-104h-113v-204h-91v204h-333zM898 308h248v388z" />
<glyph unicode="&#xbf;" horiz-adv-x="1025" d="M160 -45q0 80 16 138q28 96 188 276q93 106 92 212v94h156v-122q0 -122 -148 -299q-33 -41 -67 -80q-41 -50 -54 -87q-30 -72 -29 -143q0 -98 56.5 -161t147.5 -63q150 0 200 139q15 45 22 184h145q13 -202 -72 -334q-96 -147 -288 -147q-37 0 -76 6q-158 22 -232 150 q-58 96 -57 237zM456 863v213h156v-213h-156z" />
<glyph unicode="&#xc0;" horiz-adv-x="1365" d="M28 0l445 1493h195l428 -1493h-176l-124 447h-468l-131 -447h-169zM256 1850h171l146 -275zM369 607h380l-179 653z" />
<glyph unicode="&#xc1;" horiz-adv-x="1365" d="M28 0l445 1493h195l428 -1493h-176l-124 447h-468l-131 -447h-169zM369 607h380l-179 653zM573 1575l149 275h167z" />
<glyph unicode="&#xc2;" horiz-adv-x="1365" d="M28 0l445 1493h195l428 -1493h-176l-124 447h-468l-131 -447h-169zM304 1514l191 204h149l191 -204h-130l-132 141l-143 -141h-126zM369 607h380l-179 653z" />
<glyph unicode="&#xc3;" horiz-adv-x="1365" d="M28 0l445 1493h195l428 -1493h-176l-124 447h-468l-131 -447h-169zM293 1590q0 6 9 9q96 132 188 132q22 0 39 -6l109 -42q39 -13 69 -13q33 0 61 20q22 20 45 39q33 -7 33 -17q0 -5 -6 -11q-19 -20 -52 -61q-26 -30 -61 -46q-69 -32 -109 -17l-123 50q-35 13 -55 13 q-30 0 -108 -71q-39 9 -39 21zM369 607h380l-179 653z" />
<glyph unicode="&#xc4;" horiz-adv-x="1120" d="M28 0l445 1493h193l430 -1493h-176l-124 447h-468l-131 -447h-169zM330 1647v212h154v-212h-154zM369 607h380l-179 653zM623 1647v212h154v-212h-154z" />
<glyph unicode="&#xc5;" horiz-adv-x="1120" d="M28 0l445 1493h193l430 -1493h-176l-124 447h-468l-131 -447h-169zM369 607h380l-179 653zM414 1747q0 76 42.5 128t103.5 52q63 0 106 -52t43 -128q0 -74 -43 -127t-106 -53q-61 0 -103.5 53t-42.5 127zM473 1747q0 -45 26 -75t61 -30q37 0 62 30.5t25 74.5 q0 45 -25 76.5t-62 31.5q-35 0 -61 -31.5t-26 -76.5z" />
<glyph unicode="&#xc6;" horiz-adv-x="1680" d="M19 0l502 1493h1045v-170h-627v-475h595v-169h-595v-508h656v-171h-810v436h-451l-143 -436h-172zM391 607h396v716h-169z" />
<glyph unicode="&#xc7;" horiz-adv-x="1213" d="M80 735q4 406 196 628q46 56 132 101q102 52 206 53q382 6 499 -484h-161q-91 314 -329 314q-165 0 -263 -145q-119 -169 -119 -467q0 -297 119 -466q98 -145 263 -145q260 0 353 423h161q-41 -265 -176 -426q-143 -171 -347 -167q-104 0 -206 53q-85 45 -132 99 q-198 232 -196 629zM414 -369l37 87q63 -41 78 -48q43 -22 78 -24q67 -4 94 65q7 20 2 48q-6 33 -28 43q-20 17 -35 16q-9 0 -41 -18l-20 14l46 186h71l-30 -111q67 0 63 2q43 -6 71 -34q32 -33 31 -100q0 -13 -2 -28q-24 -134 -131 -158q-52 -11 -84 -11q-61 1 -200 71z " />
<glyph unicode="&#xc8;" horiz-adv-x="1365" d="M152 0v1493h850v-170h-692v-472h666v-168h-666v-512h720v-171h-878zM256 1850h171l146 -275z" />
<glyph unicode="&#xc9;" horiz-adv-x="1365" d="M152 0v1493h850v-170h-692v-472h666v-168h-666v-512h720v-171h-878zM573 1575l149 275h168z" />
<glyph unicode="&#xca;" horiz-adv-x="1365" d="M152 0v1493h850v-170h-692v-472h666v-168h-666v-512h720v-171h-878zM304 1514l191 204h149l191 -204h-130l-132 141l-143 -141h-126z" />
<glyph unicode="&#xcb;" horiz-adv-x="1120" d="M150 0v1493h852v-170h-692v-472h664v-168h-664v-512h720v-171h-880zM365 1647v212h154v-212h-154zM658 1647v212h154v-212h-154z" />
<glyph unicode="&#xcc;" horiz-adv-x="569" d="M-72 1850h170l147 -275zM169 0v1493h157v-1493h-157z" />
<glyph unicode="&#xcd;" horiz-adv-x="569" d="M169 0v1493h157v-1493h-157zM245 1575l148 275h171z" />
<glyph unicode="&#xce;" horiz-adv-x="467" d="M-2 1618l162 306h159l162 -306h-108l-133 192l-134 -192h-108zM169 0v1493h157v-1493h-157z" />
<glyph unicode="&#xcf;" horiz-adv-x="467" d="M15 1647v212h154v-212h-154zM169 0v1493h157v-1493h-157zM308 1647v212h154v-212h-154z" />
<glyph unicode="&#xd0;" horiz-adv-x="1213" d="M0 701v143h150v649h471q198 0 334 -159q139 -165 160 -449q6 -70 5 -136q0 -326 -129 -526q-72 -113 -160 -173q-70 -50 -124 -50h-557v701h-150zM308 171h341q69 0 126 31q41 22 89.5 99t61.5 135q32 150 37 306q7 241 -67 391q-96 190 -289 190h-299v-479h223v-143 h-223v-530z" />
<glyph unicode="&#xd1;" horiz-adv-x="1213" d="M128 0v1493h186l614 -1209v1209h157v-1493h-180l-619 1197v-1197h-158zM347 1618q35 224 154 224q15 0 32 -4l124 -29q32 -7 54 -8q43 0 65 26q14 24 29 48h69q-33 -137 -93 -185q-52 -43 -96 -32l-137 34q-32 9 -50 9q-37 0 -80 -87z" />
<glyph unicode="&#xd2;" horiz-adv-x="1593" d="M63 735q4 406 215 628q65 69 175 114q104 40 202 40q119 0 230 -53q91 -43 145 -101q213 -223 215 -628q2 -401 -215 -629q-54 -56 -145 -100q-111 -52 -230 -52q-98 0 -202 40q-109 43 -175 112q-219 232 -215 629zM223 735q0 -241 94 -407q115 -204 338 -204t339 204 q93 165 93 407q0 241 -93 408q-116 202 -339 202t-338 -202q-95 -167 -94 -408zM338 1874h170l147 -275z" />
<glyph unicode="&#xd3;" horiz-adv-x="1593" d="M63 735q4 406 215 628q65 69 175 114q104 40 202 40q119 0 230 -53q91 -43 145 -101q213 -223 215 -628q2 -401 -215 -629q-54 -56 -145 -100q-111 -52 -230 -52q-98 0 -202 40q-109 43 -175 112q-219 232 -215 629zM223 735q0 -241 94 -407q115 -204 338 -204t339 204 q93 165 93 407q0 241 -93 408q-116 202 -339 202t-338 -202q-95 -167 -94 -408zM655 1599l148 275h169z" />
<glyph unicode="&#xd4;" horiz-adv-x="1593" d="M63 735q4 406 215 628q65 69 175 114q104 40 202 40q119 0 230 -53q91 -43 145 -101q213 -223 215 -628q2 -401 -215 -629q-54 -56 -145 -100q-111 -52 -230 -52q-98 0 -202 40q-109 43 -175 112q-219 232 -215 629zM223 735q0 -241 94 -407q115 -204 338 -204t339 204 q93 165 93 407q0 241 -93 408q-116 202 -339 202t-338 -202q-95 -167 -94 -408zM388 1517l189 205h148l193 -205h-131l-132 141l-143 -141h-124z" />
<glyph unicode="&#xd5;" horiz-adv-x="1593" d="M63 735q4 406 215 628q65 69 175 114q104 40 202 40q119 0 230 -53q91 -43 145 -101q213 -223 215 -628q2 -401 -215 -629q-54 -56 -145 -100q-111 -52 -230 -52q-98 0 -202 40q-109 43 -175 112q-219 232 -215 629zM223 735q0 -241 94 -407q115 -204 338 -204t339 204 q93 165 93 407q0 241 -93 408q-116 202 -339 202t-338 -202q-95 -167 -94 -408zM375 1612q0 6 11 9q95 132 185 132q22 0 39 -6l112 -40q37 -15 66 -15q33 0 62 20q22 20 44 39q33 -6 34 -17q0 -5 -6 -9q-17 -22 -52 -63q-26 -30 -61 -46q-69 -32 -108 -17l-124 50 q-35 13 -54 13q-32 0 -109 -70q-39 9 -39 20z" />
<glyph unicode="&#xd6;" horiz-adv-x="1307" d="M63 735q4 408 215 628q54 58 147 101q115 53 230 53t230 -53q93 -43 146 -101q211 -221 216 -628q4 -399 -216 -629q-54 -56 -146 -99q-115 -54 -230 -53q-115 0 -230 53q-93 43 -147 99q-217 230 -215 629zM223 735q0 -295 135 -466q113 -145 297 -145q186 0 297 145 q135 171 135 466q0 297 -135 467q-111 145 -297 145q-184 0 -297 -145q-135 -171 -135 -467zM425 1647v212h154v-212h-154zM718 1647v212h154v-212h-154z" />
<glyph unicode="&#xd7;" horiz-adv-x="981" d="M83 82l325 395l-325 395l84 104l323 -399l324 399l84 -104l-325 -395l325 -395l-84 -102l-324 397l-323 -397z" />
<glyph unicode="&#xd8;" horiz-adv-x="1307" d="M50 17l148 202q-134 221 -131 516q4 408 215 628q54 58 147 101q115 54 230 53q115 0 228 -53q93 -43 148 -101l115 153l50 -58l-113 -156q160 -223 163 -567q4 -399 -215 -629q-54 -56 -146 -99q-115 -54 -230 -53q-234 0 -410 207l-149 -202zM226 735q2 -214 78 -375 l633 864q-113 122 -278 123q-186 0 -297 -145q-137 -173 -136 -467zM343 289q132 -165 316 -165t296 145q135 171 136 466q0 254 -104 432z" />
<glyph unicode="&#xd9;" horiz-adv-x="1478" d="M143 416v1077h158v-1064q0 -115 66 -201q82 -111 245 -111t249 111q65 83 65 201v1064h157v-1077q0 -163 -98 -294q-128 -169 -373 -168q-243 0 -371 168q-98 132 -98 294zM291 1768h169l148 -275z" />
<glyph unicode="&#xda;" horiz-adv-x="1478" d="M143 416v1077h158v-1064q0 -115 66 -201q82 -111 245 -111t249 111q65 83 65 201v1064h157v-1077q0 -163 -98 -294q-128 -169 -373 -168q-243 0 -371 168q-98 132 -98 294zM610 1495l147 275h171z" />
<glyph unicode="&#xdb;" horiz-adv-x="1213" d="M143 416v1077h158v-1064q0 -113 66 -201q83 -111 247 -111q161 0 245 111q67 87 67 201v1064h157v-1077q0 -161 -98 -292q-128 -171 -371 -170q-245 0 -373 170q-98 130 -98 292zM361 1618l162 306h159l162 -306h-108l-133 192l-134 -192h-108z" />
<glyph unicode="&#xdc;" horiz-adv-x="1213" d="M143 416v1077h158v-1064q0 -113 66 -201q83 -111 247 -111q161 0 245 111q67 87 67 201v1064h157v-1077q0 -161 -98 -292q-128 -171 -371 -170q-245 0 -373 170q-98 130 -98 292zM378 1647v212h154v-212h-154zM671 1647v212h154v-212h-154z" />
<glyph unicode="&#xdd;" horiz-adv-x="1365" d="M22 1493h193l355 -725l348 725h191l-460 -909v-584h-159v584zM570 1493l146 275h171z" />
<glyph unicode="&#xde;" horiz-adv-x="1120" d="M152 0v1493h160v-256h354q130 0 223 -68q148 -109 148 -369q0 -206 -115 -325q-96 -98 -226 -98h-384v-377h-160zM312 547h373q65 0 120 50q72 67 72 190q0 156 -81 230q-56 50 -132 50h-352v-520z" />
<glyph unicode="&#xdf;" horiz-adv-x="1025" d="M211 0v1124q0 108 52 199q72 132 227 165q43 9 81 9q158 0 247 -121q80 -106 80 -267q0 -223 -154 -280q37 -24 72 -48q58 -41 89 -104q45 -87 47 -217q4 -358 -232 -467q-69 -33 -132 -34q-6 0 -89 8v155q82 -4 76 -3q52 2 100 31q126 74 130 267q4 299 -237 299 q-15 0 -36 -2l-26 -2v173q87 0 156 46q89 61 91 176q0 83 -39 141q-46 72 -135 80q-122 9 -180 -78q-39 -61 -39 -137v-1113h-149z" />
<glyph unicode="&#xe0;" horiz-adv-x="1139" d="M70 289q11 217 186 281q70 26 173 37q111 15 153 26q69 20 69 81v128q-9 58 -93 87q-61 22 -133 23q-165 0 -182 -199h-132l6 95q22 139 145 211q82 46 180 47q87 0 152 -19q206 -58 206 -206v-718q0 -24 21 -43.5t45 -19.5q22 0 34 6v-134q-52 -19 -112 -18 q-50 0 -90 53q-37 48 -41 102q-165 -156 -280 -155q-152 0 -234 91.5t-73 243.5zM150 1464h169l148 -275zM215 284q-4 -178 154 -184q124 -4 215 91q69 73 69 121v215q-52 -26 -179 -48.5t-175 -48.5q-82 -46 -84 -146z" />
<glyph unicode="&#xe1;" horiz-adv-x="1139" d="M70 289q11 217 186 281q70 26 173 37q111 15 153 26q69 20 69 81v128q-9 58 -93 87q-61 22 -133 23q-165 0 -182 -199h-132l6 95q22 139 145 211q82 46 180 47q87 0 152 -19q206 -58 206 -206v-718q0 -24 21 -43.5t45 -19.5q22 0 34 6v-134q-52 -19 -112 -18 q-50 0 -90 53q-37 48 -41 102q-165 -156 -280 -155q-152 0 -234 91.5t-73 243.5zM215 284q-4 -178 154 -184q124 -4 215 91q69 73 69 121v215q-52 -26 -179 -48.5t-175 -48.5q-82 -46 -84 -146zM467 1189l147 275h171z" />
<glyph unicode="&#xe2;" horiz-adv-x="1139" d="M70 289q11 217 186 281q70 26 173 37q111 15 153 26q69 20 69 81v128q-9 58 -93 87q-61 22 -133 23q-165 0 -182 -199h-132l6 95q22 139 145 211q82 46 180 47q87 0 152 -19q206 -58 206 -206v-718q0 -24 21 -43.5t45 -19.5q22 0 34 6v-134q-52 -19 -112 -18 q-50 0 -90 53q-37 48 -41 102q-165 -156 -280 -155q-152 0 -234 91.5t-73 243.5zM197 1130l191 206h146l193 -206h-132l-129 143l-145 -143h-124zM215 284q-4 -178 154 -184q124 -4 215 91q69 73 69 121v215q-52 -26 -179 -48.5t-175 -48.5q-82 -46 -84 -146z" />
<glyph unicode="&#xe3;" horiz-adv-x="1139" d="M70 289q11 217 186 281q70 26 173 37q111 15 153 26q69 20 69 81v128q-9 58 -93 87q-61 22 -133 23q-165 0 -182 -199h-132l6 95q22 139 145 211q82 46 180 47q87 0 152 -19q206 -58 206 -206v-718q0 -24 21 -43.5t45 -19.5q22 0 34 6v-134q-52 -19 -112 -18 q-50 0 -90 53q-37 48 -41 102q-165 -156 -280 -155q-152 0 -234 91.5t-73 243.5zM184 1206q0 7 11 11q96 130 185 130q22 0 39 -6l112 -41q39 -15 66 -14q33 0 59.5 20t48.5 39q32 -6 31 -17q1 -5 -5 -9q-17 -20 -50 -61q-28 -32 -63 -48q-69 -32 -108 -15l-122 48 q-37 15 -56 15q-32 0 -109 -73q-39 11 -39 21zM215 284q-4 -178 154 -184q124 -4 215 91q69 73 69 121v215q-52 -26 -179 -48.5t-175 -48.5q-82 -46 -84 -146z" />
<glyph unicode="&#xe4;" d="M70 289q13 219 186 281q93 33 191 44q111 13 134 19q70 20 70 81v128q-7 52 -83 84q-65 28 -145 28q-165 0 -180 -201h-132l4 95q28 143 147 211q82 46 181 47q85 0 152 -19q205 -58 205 -206v-718q0 -22 20 -42.5t46 -20.5q22 0 32 6v-134q-50 -19 -108 -18 q-46 0 -87 50t-44 105q-169 -156 -281 -155q-150 0 -233.5 89t-74.5 246zM215 284q-2 -91 47 -141q43 -41 107 -43q124 -4 213 91q71 73 71 121v215q-58 -30 -189 -52q-124 -22 -165 -45q-82 -45 -84 -146zM237 1239v212h154v-212h-154zM530 1239v212h154v-212h-154z" />
<glyph unicode="&#xe5;" d="M70 289q13 219 186 281q93 33 191 44q111 13 134 19q70 20 70 81v128q-7 52 -83 84q-65 28 -145 28q-165 0 -180 -201h-132l4 95q28 143 147 211q82 46 181 47q85 0 152 -19q205 -58 205 -206v-718q0 -22 20 -42.5t46 -20.5q22 0 32 6v-134q-50 -19 -108 -18 q-46 0 -87 50t-44 105q-169 -156 -281 -155q-150 0 -233.5 89t-74.5 246zM215 284q-2 -91 47 -141q43 -41 107 -43q124 -4 213 91q71 73 71 121v215q-58 -30 -189 -52q-124 -22 -165 -45q-82 -45 -84 -146zM321 1339q0 76 42.5 128t103.5 52q63 0 106 -52t43 -128 q0 -74 -43 -127t-106 -53q-61 0 -103.5 53t-42.5 127zM380 1339q0 -45 26 -75t61 -30q37 0 62 30.5t25 74.5q0 45 -25 76.5t-62 31.5q-35 0 -61 -31.5t-26 -76.5z" />
<glyph unicode="&#xe6;" horiz-adv-x="1493" d="M58 282q-2 173 102 265q61 58 144 76q33 15 104 24q80 9 117 21q78 17 97.5 39t17.5 91q-15 100 -45 126q-63 58 -174 42q-204 -26 -189 -218h-139q6 108 15 137q39 130 168 197q72 37 178 37q237 0 284 -178q98 106 145.5 134.5t136.5 35.5q145 9 253 -96 q72 -70 105 -162q41 -106 41 -382h-644q7 -58 15 -115q19 -89 63 -148q85 -115 195 -102q113 15 173 109q15 26 52 134h139q-26 -176 -123.5 -279t-234.5 -111q-150 -7 -232 56q-41 32 -124 156q-50 -59 -101 -117q-96 -85 -235 -95q-111 -7 -195 60q-109 85 -109 263z M211 308q-6 -95 39 -147q39 -45 102 -44q78 0 123 20q39 19 93 76q72 76 70 165l-2 180q-45 -39 -150 -55q-113 -17 -122 -24q-143 -30 -153 -171zM774 631h495q-13 139 -35 193q-61 150 -223 142q-102 -4 -161 -85q-43 -59 -63 -154q-6 -48 -13 -96z" />
<glyph unicode="&#xe7;" horiz-adv-x="840" d="M52 545q6 249 126 416q100 139 265 145q152 6 249 -97q91 -69 109 -297h-139q-22 156 -94 203q-63 37 -121 33q-96 -6 -172 -111q-58 -80 -71 -267q-11 -184 33 -290q72 -174 217 -165q58 4 104.5 38t64.5 79q36 91 43 139h135q-6 -130 -46 -217q-50 -102 -145 -156 q-87 -50 -189 -44q-100 6 -183.5 65t-124.5 161q-65 165 -61 365zM228 -369l37 87q63 -41 78 -48q43 -22 78 -24q67 -4 94 65q7 20 2 48q-6 33 -28 43q-20 17 -35 16q-9 0 -41 -18l-20 14l46 186h71l-30 -111q67 0 63 2q43 -6 71 -34q32 -33 31 -100q0 -13 -2 -28 q-24 -134 -131 -158q-52 -11 -84 -11q-61 1 -200 71z" />
<glyph unicode="&#xe8;" horiz-adv-x="1139" d="M67 531q6 271 109 413q132 180 323 162q178 -17 263 -154q65 -106 86 -225q13 -72 15 -258h-644q-9 -130 48 -233q72 -134 199 -134q113 0 176 91q26 37 59 135h143q-72 -375 -377 -374q-219 0 -322 189q-82 152 -78 388zM161 1464h171l147 -275zM223 621h486 q2 52 -17 128q-20 85 -46 121q-32 80 -154 95q-126 15 -193 -95q-28 -32 -52 -119q-22 -78 -24 -130z" />
<glyph unicode="&#xe9;" horiz-adv-x="1139" d="M67 531q6 271 109 413q132 180 323 162q178 -17 263 -154q65 -106 86 -225q13 -72 15 -258h-644q-9 -130 48 -233q72 -134 199 -134q113 0 176 91q26 37 59 135h143q-72 -375 -377 -374q-219 0 -322 189q-82 152 -78 388zM223 621h486q2 52 -17 128q-20 85 -46 121 q-32 80 -154 95q-126 15 -193 -95q-28 -32 -52 -119q-22 -78 -24 -130zM479 1189l148 275h169z" />
<glyph unicode="&#xea;" horiz-adv-x="1139" d="M67 531q6 271 109 413q132 180 323 162q178 -17 263 -154q65 -106 86 -225q13 -72 15 -258h-644q-9 -130 48 -233q72 -134 199 -134q113 0 176 91q26 37 59 135h143q-72 -375 -377 -374q-219 0 -322 189q-82 152 -78 388zM210 1106l189 206h148l193 -206h-132l-131 141 l-143 -141h-124zM223 621h486q2 52 -17 128q-20 85 -46 121q-32 80 -154 95q-126 15 -193 -95q-28 -32 -52 -119q-22 -78 -24 -130z" />
<glyph unicode="&#xeb;" d="M67 531q4 269 109 413q132 180 325 162q176 -17 261 -152q67 -108 86 -227q13 -74 15 -258h-644q-9 -130 48 -233q74 -134 199 -134q111 0 174 91q30 39 61 135h143q-24 -130 -80 -215q-104 -160 -297 -159q-200 0 -311 170q-91 143 -89 407zM223 621h486q4 67 -23 151 q-20 72 -40 98q-32 80 -154 95q-126 15 -193 -95q-20 -22 -45 -93q-27 -84 -31 -156zM248 1239v212h154v-212h-154zM541 1239v212h154v-212h-154z" />
<glyph unicode="&#xec;" horiz-adv-x="454" d="M-135 1434h170l147 -275zM111 0v1076h141v-1076h-141z" />
<glyph unicode="&#xed;" horiz-adv-x="454" d="M111 0v1076h141v-1076h-141zM182 1159l148 275h169z" />
<glyph unicode="&#xee;" horiz-adv-x="467" d="M-12 1210l162 306h159l162 -306h-108l-133 192l-134 -192h-108zM158 0v1076h141v-1076h-141z" />
<glyph unicode="&#xef;" horiz-adv-x="467" d="M5 1239v212h154v-212h-154zM158 0v1076h141v-1076h-141zM298 1239v212h154v-212h-154z" />
<glyph unicode="&#xf0;" d="M61 531q0 221 69 365q95 195 336 210l-93 139l-200 -99l-47 71l182 95q-54 67 -154 89l57 92q122 -20 227 -115l191 97l50 -76l-174 -87q128 -122 228 -316q124 -239 124 -465t-69 -368q-104 -210 -330 -209q-226 0 -328 209q-69 141 -69 368zM204 531q0 -109 46 -242 q56 -165 208 -165t208 165q46 132 46 242q0 108 -46 239q-56 165 -208 165q-83 7 -146 -54q-56 -54 -82 -141t-26 -209z" />
<glyph unicode="&#xf1;" d="M117 0v1076h141v-135h4q45 83 98 116q58 52 174 49q104 -2 145 -28q121 -76 139 -241v-837h-141v748q0 96 -52 152q-48 50 -124 50q-102 0 -165 -80q-78 -98 -78 -299v-571h-141zM207 1210q35 224 154 224q15 0 32 -4l124 -29q32 -7 54 -8q43 0 65 26q14 24 29 48h69 q-33 -137 -93 -185q-52 -43 -96 -32l-137 34q-32 9 -50 9q-37 0 -80 -87z" />
<glyph unicode="&#xf2;" horiz-adv-x="1139" d="M61 531q0 237 80 385q102 189 317 190q217 0 317 -190q80 -148 80 -385q0 -239 -78 -388q-102 -189 -319 -189q-215 0 -317 189q-80 148 -80 388zM147 1464h170l149 -275zM204 531q0 -148 54 -262q69 -145 200 -145q134 0 202 145q52 114 52 262t-52 259 q-69 143 -202 143q-132 0 -200 -143q-54 -111 -54 -259z" />
<glyph unicode="&#xf3;" horiz-adv-x="1139" d="M61 531q0 237 80 385q102 189 317 190q217 0 317 -190q80 -148 80 -385q0 -239 -78 -388q-102 -189 -319 -189q-215 0 -317 189q-80 148 -80 388zM204 531q0 -148 54 -262q69 -145 200 -145q134 0 202 145q52 114 52 262t-52 259q-69 143 -202 143q-132 0 -200 -143 q-54 -111 -54 -259zM467 1187l147 275h171z" />
<glyph unicode="&#xf4;" horiz-adv-x="1139" d="M61 531q0 237 80 385q102 189 317 190q217 0 317 -190q80 -148 80 -385q0 -239 -78 -388q-102 -189 -319 -189q-215 0 -317 189q-80 148 -80 388zM195 1106l191 206h146l193 -206h-131l-130 141l-145 -141h-124zM204 531q0 -148 54 -262q69 -145 200 -145q134 0 202 145 q52 114 52 262t-52 259q-69 143 -202 143q-132 0 -200 -143q-54 -111 -54 -259z" />
<glyph unicode="&#xf5;" horiz-adv-x="1139" d="M61 531q0 237 80 385q102 189 317 190q217 0 317 -190q80 -148 80 -385q0 -239 -78 -388q-102 -189 -319 -189q-215 0 -317 189q-80 148 -80 388zM182 1206q0 7 11 11q96 130 185 130q22 0 39 -6l112 -41q39 -15 66 -14q33 0 59.5 20t48.5 39q32 -6 32 -17q0 -5 -6 -9 q-17 -20 -52 -61q-26 -32 -61 -48q-69 -32 -108 -15l-122 48q-37 15 -56 15q-32 0 -109 -73q-39 11 -39 21zM204 531q0 -148 54 -262q69 -145 200 -145q134 0 202 145q52 114 52 262t-52 259q-69 143 -202 143q-132 0 -200 -143q-54 -111 -54 -259z" />
<glyph unicode="&#xf6;" d="M61 531q0 321 137 467q102 108 260 108t260 -108q139 -146 139 -467t-139 -470q-102 -108 -260 -107q-156 0 -260 107q-137 148 -137 470zM204 531q0 -156 58 -269q70 -137 196 -138q128 0 197 138q57 113 57 269t-57 267q-69 137 -197 137q-126 0 -196 -137 q-58 -111 -58 -267zM237 1239v212h154v-212h-154zM530 1239v212h154v-212h-154z" />
<glyph unicode="&#xf7;" horiz-adv-x="981" d="M83 404v143h815v-143h-815zM403 -20v213h176v-213h-176zM403 759v211h176v-211h-176z" />
<glyph unicode="&#xf8;" horiz-adv-x="1025" d="M30 6l98 135l-13 30q-69 167 -69 363q0 224 69 366q104 211 330 211q180 0 284 -137l109 148l51 -61l-115 -159q70 -145 70 -368t-70 -363q-102 -211 -329 -212q-169 0 -269 119l-96 -134zM191 534q0 -102 46 -243l390 538q-63 109 -182 110q-152 0 -208 -165 q-46 -130 -46 -240zM278 219q63 -87 167 -87q152 0 208 163q46 132 46 239q0 82 -33 217z" />
<glyph unicode="&#xf9;" horiz-adv-x="1139" d="M109 219v857h141v-761q0 -186 147 -200q56 -6 98 11q173 72 173 366v584h141v-1076h-141v115h-2q-43 -80 -98 -117q-67 -45 -178 -44q-102 0 -141 24q-115 72 -140 241zM137 1362h171l146 -275z" />
<glyph unicode="&#xfa;" horiz-adv-x="1139" d="M109 219v857h141v-761q0 -186 147 -200q56 -6 98 11q173 72 173 366v584h141v-1076h-141v115h-2q-43 -80 -98 -117q-67 -45 -178 -44q-102 0 -141 24q-115 72 -140 241zM456 1085l149 275h169z" />
<glyph unicode="&#xfb;" d="M109 219v857h141v-761q0 -186 147 -200q56 -6 98 11q173 72 173 366v584h141v-1076h-141v115h-2q-43 -80 -98 -117q-67 -45 -178 -44q-102 0 -141 24q-115 72 -140 241zM220 1210l162 306h159l162 -306h-108l-133 192l-134 -192h-108z" />
<glyph unicode="&#xfc;" d="M109 219v857h141v-761q0 -186 147 -200q56 -6 98 11q173 72 173 366v584h141v-1076h-141v115h-2q-43 -80 -98 -117q-67 -45 -178 -44q-102 0 -141 24q-115 72 -140 241zM237 1239v212h154v-212h-154zM530 1239v212h154v-212h-154z" />
<glyph unicode="&#xfd;" horiz-adv-x="1024" d="M33 1076h149l224 -814l245 814h152l-400 -1325q-61 -208 -240 -200q-43 2 -76 28v158q59 -28 104 -17q56 13 80 94l50 169zM416 1085l148 275h169z" />
<glyph unicode="&#xfe;" d="M91 -449v1942h141v-547h4q33 76 115 121q72 39 154 39q182 0 283 -177q89 -156 89 -387q0 -226 -79 -386q-104 -202 -310 -202q-83 0 -161 52t-91 113h-4v-568h-141zM232 512q0 -156 50 -260q61 -126 178 -135q134 -11 204 133q59 119 56 294q-2 167 -54 269 q-65 128 -193 118q-241 -15 -241 -419z" />
<glyph unicode="&#xff;" horiz-adv-x="840" d="M33 1076h151l222 -814l245 814h152l-400 -1325q-37 -126 -123 -170q-58 -32 -115 -30q-45 2 -78 28v158q59 -28 104 -17q54 13 80 94l52 169zM191 1239v212h154v-212h-154zM484 1239v212h154v-212h-154z" />
<glyph unicode="&#x152;" horiz-adv-x="1680" d="M72 698q0 263 58 421q67 187 193 296q115 100 237 101q19 0 37 -4q197 7 280 -176h4v157h720v-170h-560v-483h549v-170h-549v-499h569v-171h-729v160h-4q-35 -83 -105 -138q-89 -67 -212 -63q-173 6 -295 126q-106 108 -154 275q-39 134 -39 338zM226 699q0 -186 32 -285 q87 -286 308 -282q126 2 196 59q60 50 119 184v705q-56 134 -85 172q-76 95 -214 95q-22 0 -46 -4q-189 -19 -265 -282q-45 -150 -45 -362z" />
<glyph unicode="&#x153;" horiz-adv-x="1586" d="M67 508q0 232 89 388q122 210 326 210q200 0 310 -214q134 213 327 214q391 0 391 -613h-644q-17 -98 32 -220q33 -80 104 -126q65 -45 141 -45q133 0 215 230h139q-52 -163 -80 -211q-98 -165 -282 -166q-148 0 -243 86q-45 41 -100 139q-28 -82 -100 -143 q-95 -83 -228 -82q-265 2 -360 303q-37 119 -37 250zM213 532q0 -100 21 -193q24 -108 92 -174q63 -63 130 -63q154 0 232 197q32 76 32 241q-1 178 -34 248q-74 165 -209 166q-132 0 -204 -130q-59 -104 -60 -292zM866 646h490q-6 102 -50 185q-61 113 -167 113 q-135 0 -215 -137q-43 -78 -58 -161z" />
<glyph unicode="&#x178;" horiz-adv-x="1120" d="M22 1493h193l355 -725l346 725h195l-462 -909v-584h-159v584zM330 1647v212h154v-212h-154zM623 1647v212h154v-212h-154z" />
<glyph unicode="&#x2c6;" horiz-adv-x="560" d="M33 1210l162 306h159l162 -306h-108l-133 192l-134 -192h-108z" />
<glyph unicode="&#x2dc;" horiz-adv-x="560" d="M9 1210q35 224 154 224q15 0 32 -4l124 -29q32 -7 54 -8q43 0 65 26q14 24 29 48h69q-33 -137 -93 -185q-52 -43 -96 -32l-137 34q-32 9 -50 9q-37 0 -80 -87z" />
<glyph unicode="&#x2000;" horiz-adv-x="963" />
<glyph unicode="&#x2001;" horiz-adv-x="1927" />
<glyph unicode="&#x2002;" horiz-adv-x="963" />
<glyph unicode="&#x2003;" horiz-adv-x="1927" />
<glyph unicode="&#x2004;" horiz-adv-x="642" />
<glyph unicode="&#x2005;" horiz-adv-x="481" />
<glyph unicode="&#x2006;" horiz-adv-x="321" />
<glyph unicode="&#x2007;" horiz-adv-x="321" />
<glyph unicode="&#x2008;" horiz-adv-x="240" />
<glyph unicode="&#x2009;" horiz-adv-x="385" />
<glyph unicode="&#x200a;" horiz-adv-x="107" />
<glyph unicode="&#x2010;" horiz-adv-x="560" d="M78 492v150h399v-150h-399z" />
<glyph unicode="&#x2011;" horiz-adv-x="560" d="M78 492v150h399v-150h-399z" />
<glyph unicode="&#x2012;" horiz-adv-x="560" d="M78 492v150h399v-150h-399z" />
<glyph unicode="&#x2013;" d="M-9 492v150h951v-150h-951z" />
<glyph unicode="&#x2014;" horiz-adv-x="1680" d="M-15 492v150h1696v-150h-1696z" />
<glyph unicode="&#x2018;" horiz-adv-x="372" d="M109 941v217q0 156 62 230q26 30 94 63v-84q-82 -43 -81 -170q0 -20 3 -41h76v-215h-154z" />
<glyph unicode="&#x2019;" horiz-adv-x="372" d="M108 976v80q80 11 79 183h-79v212h157v-212q0 -108 -40.5 -182t-116.5 -81z" />
<glyph unicode="&#x201a;" horiz-adv-x="372" d="M108 0v211h157v-211q0 -109 -39 -180q-43 -76 -118 -83v79q80 11 79 184h-79z" />
<glyph unicode="&#x201c;" horiz-adv-x="560" d="M80 941v217q0 156 63 230q24 30 94 63v-84q-82 -43 -81 -170q0 -20 2 -41h78v-215h-156zM347 941v217q0 156 61 230q24 30 95 63v-82q-82 -43 -82 -172q0 -20 2 -41h78v-215h-154z" />
<glyph unicode="&#x201d;" horiz-adv-x="560" d="M82 976v80q81 10 81 183h-81v212h157v-212q0 -108 -40.5 -182t-116.5 -81zM349 976v80q82 11 81 183h-81v212h157v-212q0 -108 -40.5 -182t-116.5 -81z" />
<glyph unicode="&#x201e;" horiz-adv-x="560" d="M80 0v211h157v-211q0 -109 -40 -180q-43 -76 -117 -83v79q80 11 80 184h-80zM347 0v211h158v-211q0 -109 -41 -180q-43 -76 -117 -83v79q80 11 80 184h-80z" />
<glyph unicode="&#x2022;" horiz-adv-x="588" d="M83 707q0 106 61.5 181t148.5 75t149.5 -75t62.5 -181t-62.5 -181t-149.5 -75q-85 0 -146.5 74t-63.5 182z" />
<glyph unicode="&#x2026;" horiz-adv-x="1680" d="M193 0v213h174v-213h-174zM753 0v213h175v-213h-175zM1312 0v213h174v-213h-174z" />
<glyph unicode="&#x202f;" horiz-adv-x="385" />
<glyph unicode="&#x2039;" horiz-adv-x="560" d="M152 475v176l256 241v-163l-171 -167l171 -169v-163z" />
<glyph unicode="&#x203a;" horiz-adv-x="560" d="M143 230v163l180 165l-180 180v154l258 -237v-184z" />
<glyph unicode="&#x205f;" horiz-adv-x="481" />
<glyph unicode="&#x2122;" horiz-adv-x="1680" d="M106 1395v122h573v-122h-225v-740h-124v740h-224zM803 655v862h182l202 -608l210 608h178v-862h-109v740l-247 -740h-65l-238 740v-740h-113z" />
<glyph unicode="&#x25fc;" horiz-adv-x="1075" d="M0 0v1076h1076v-1076h-1076z" />
</font>
</defs>
</svg>
